{"glyphs":{"0":{"ha":940,"x_min":68,"x_max":872,"o":"m 450 -15 q 170 91 272 -15 q 68 414 68 197 q 126 675 68 572 q 279 826 183 778 q 494 874 375 874 q 772 767 671 874 q 872 446 872 661 q 815 185 872 289 q 663 33 758 82 q 450 -15 568 -15 m 474 86 q 560 167 531 86 q 589 422 589 247 q 577 637 589 561 q 540 743 565 713 q 469 774 514 774 q 382 692 413 774 q 351 438 351 610 q 365 225 351 301 q 404 117 378 149 q 474 86 431 86 z "},"1":{"ha":672,"x_min":47,"x_max":650,"o":"m 229 629 q 142 614 196 622 q 64 604 88 606 l 47 729 q 220 788 128 744 q 364 875 313 831 l 365 875 l 513 857 l 513 119 l 650 101 l 650 0 l 78 0 l 78 101 l 229 118 l 229 629 z "},"2":{"ha":853,"x_min":36,"x_max":810,"o":"m 36 99 q 329 333 224 217 q 435 572 435 449 q 398 661 435 628 q 297 694 361 694 q 203 676 242 694 q 142 640 165 658 q 111 615 118 621 l 47 711 q 128 783 72 746 q 257 847 183 821 q 403 874 331 874 q 583 840 511 874 q 691 749 656 806 q 726 622 726 692 q 285 146 726 392 l 643 181 l 701 288 l 810 265 l 771 0 l 75 0 l 36 99 z "},"3":{"ha":799,"x_min":42,"x_max":757,"o":"m 258 -222 q 142 -213 204 -222 q 47 -192 79 -204 l 47 -58 q 194 -81 114 -81 q 333 -53 275 -81 q 423 21 392 -26 q 454 126 454 68 q 281 299 454 288 l 203 281 l 168 382 q 282 418 218 389 q 387 498 354 451 q 419 596 419 544 q 383 681 419 653 q 293 708 347 708 q 106 643 188 708 l 42 757 q 122 809 67 782 q 246 855 176 836 q 383 874 315 874 q 615 816 526 874 q 703 643 703 758 q 626 469 703 540 q 428 356 549 399 q 474 358 458 358 q 678 298 599 358 q 757 126 757 238 q 697 -50 757 29 q 525 -176 638 -129 q 258 -222 413 -222 z "},"4":{"ha":951,"x_min":26,"x_max":918,"o":"m 540 0 l 86 0 l 26 88 q 198 468 85 197 q 392 947 311 739 l 442 947 l 663 838 l 339 229 l 272 132 l 542 151 l 568 396 l 765 410 l 765 168 l 918 178 l 918 0 l 765 0 l 765 -222 l 540 -222 l 540 0 z "},"5":{"ha":885,"x_min":106,"x_max":814,"o":"m 117 -96 q 196 -99 169 -99 q 360 -61 286 -99 q 478 39 435 -24 q 521 172 521 101 q 476 292 521 258 q 346 326 432 326 q 248 315 300 326 q 164 290 196 304 l 106 331 l 171 860 l 649 860 l 663 886 l 771 886 l 736 669 l 339 669 l 289 431 q 393 472 346 457 q 511 488 440 488 q 739 416 664 488 q 814 221 814 344 q 735 -16 814 85 q 519 -170 656 -117 q 214 -224 383 -224 q 117 -214 161 -224 l 117 -96 z "},"6":{"ha":947,"x_min":81,"x_max":878,"o":"m 478 -18 q 265 40 354 -18 q 128 199 175 97 q 81 432 81 301 q 173 763 81 615 q 406 996 265 910 q 682 1092 546 1082 l 735 997 q 519 868 604 961 q 394 643 433 775 q 583 697 469 697 q 735 659 668 697 q 840 549 803 621 q 878 379 878 478 q 831 183 878 274 q 694 37 785 92 q 478 -18 603 -18 m 479 565 q 419 554 447 565 q 369 526 390 543 q 363 393 363 475 q 483 86 363 86 q 572 152 540 86 q 603 332 603 218 q 479 565 603 565 z "},"7":{"ha":838,"x_min":38,"x_max":829,"o":"m 179 -190 q 356 174 268 -22 q 543 607 443 369 q 566 660 556 633 q 588 711 576 686 l 282 704 l 190 474 l 38 504 l 78 860 l 782 860 l 829 800 l 463 -265 l 179 -190 z "},"8":{"ha":908,"x_min":53,"x_max":857,"o":"m 53 251 q 105 393 53 329 q 254 494 157 457 q 140 610 182 544 q 99 768 99 676 q 146 917 99 854 q 276 1014 193 981 q 461 1047 358 1047 q 645 1017 569 1047 q 758 933 721 986 q 796 813 796 879 q 751 681 796 739 q 618 588 706 624 q 793 451 729 524 q 857 271 857 379 q 806 118 857 183 q 662 18 756 53 q 442 -17 568 -17 q 164 49 275 -17 q 53 251 53 115 m 338 829 q 385 730 338 771 q 531 635 432 689 q 584 704 565 665 q 603 783 603 743 q 567 906 603 864 q 463 947 532 947 q 374 917 411 947 q 338 829 338 886 m 586 225 q 561 299 586 267 q 499 356 536 332 q 393 415 461 379 l 333 447 q 265 289 265 383 q 312 144 265 200 q 443 89 358 89 q 543 126 500 89 q 586 225 586 164 z "},"9":{"ha":921,"x_min":54,"x_max":851,"o":"m 458 874 q 673 818 585 874 q 806 663 761 763 q 851 433 851 564 q 765 97 851 247 q 541 -142 678 -54 q 263 -240 404 -231 l 211 -146 q 423 -17 342 -110 q 540 214 504 76 q 358 160 468 160 q 204 201 274 160 q 94 317 135 242 q 54 492 54 393 q 101 683 54 596 q 240 822 149 769 q 458 874 332 874 m 457 293 q 515 303 486 293 q 563 329 543 314 q 571 463 571 415 q 444 771 571 771 q 359 706 389 771 q 329 536 329 642 q 363 352 329 411 q 457 293 397 293 z "},"\u0000":{"ha":0,"x_min":0,"x_max":0,"o":""},"\r":{"ha":342,"x_min":0,"x_max":0,"o":""}," ":{"ha":342,"x_min":0,"x_max":0,"o":""},"A":{"ha":993,"x_min":-31,"x_max":1013,"o":"m 47 119 l 344 1035 l 643 1035 l 940 118 l 1013 103 l 1013 0 l 540 0 l 540 103 l 631 118 l 592 265 l 296 265 l 258 115 l 361 103 l 361 0 l -29 0 l -31 103 l 47 119 m 561 383 l 456 782 l 440 868 l 425 782 l 325 383 l 561 383 z "},"Á":{"ha":993,"x_min":-31,"x_max":1013,"o":"m 47 119 l 344 1035 l 643 1035 l 940 118 l 1013 103 l 1013 0 l 540 0 l 540 103 l 631 118 l 592 265 l 296 265 l 258 115 l 361 103 l 361 0 l -29 0 l -31 103 l 47 119 m 561 383 l 456 782 l 440 868 l 425 782 l 325 383 l 561 383 m 385 1150 l 585 1365 l 750 1257 q 608 1144 692 1196 q 482 1081 525 1092 l 385 1150 z "},"Ă":{"ha":993,"x_min":-31,"x_max":1013,"o":"m 494 1096 q 342 1128 404 1096 q 250 1213 281 1160 q 219 1331 219 1267 q 221 1363 219 1353 l 347 1363 q 349 1349 347 1354 q 388 1282 354 1311 q 496 1253 422 1253 q 601 1281 569 1253 q 636 1349 632 1310 q 638 1363 638 1354 l 767 1363 q 768 1332 768 1353 q 737 1215 768 1269 q 644 1128 706 1161 q 494 1096 582 1096 m 47 119 l 344 1035 l 643 1035 l 940 118 l 1013 103 l 1013 0 l 540 0 l 540 103 l 631 118 l 592 265 l 296 265 l 258 115 l 361 103 l 361 0 l -29 0 l -31 103 l 47 119 m 561 383 l 456 782 l 440 868 l 425 782 l 325 383 l 561 383 z "},"Ắ":{"ha":993,"x_min":-31,"x_max":1013,"o":"m 47 119 l 344 1035 l 643 1035 l 940 118 l 1013 103 l 1013 0 l 540 0 l 540 103 l 631 118 l 592 265 l 296 265 l 258 115 l 361 103 l 361 0 l -29 0 l -31 103 l 47 119 m 561 383 l 456 782 l 440 868 l 425 782 l 325 383 l 561 383 m 497 1096 q 345 1128 407 1096 q 253 1213 283 1160 q 222 1331 222 1267 q 224 1363 222 1353 l 350 1363 q 351 1349 350 1354 q 391 1282 357 1311 q 499 1253 425 1253 q 603 1281 572 1253 q 639 1349 635 1310 q 640 1363 640 1354 l 769 1363 q 771 1332 771 1353 q 740 1215 771 1269 q 647 1128 708 1161 q 497 1096 585 1096 m 385 1439 l 585 1654 l 750 1546 q 608 1433 692 1485 q 482 1369 525 1381 l 385 1439 z "},"Ặ":{"ha":993,"x_min":-31,"x_max":1013,"o":"m 47 119 l 344 1035 l 643 1035 l 940 118 l 1013 103 l 1013 0 l 540 0 l 540 103 l 631 118 l 592 265 l 296 265 l 258 115 l 361 103 l 361 0 l -29 0 l -31 103 l 47 119 m 561 383 l 456 782 l 440 868 l 425 782 l 325 383 l 561 383 m 489 -278 q 415 -251 444 -278 q 386 -183 386 -224 q 417 -103 386 -135 q 501 -72 449 -72 q 581 -99 553 -72 q 608 -167 608 -125 q 578 -247 608 -215 q 490 -278 547 -278 l 489 -278 m 497 1093 q 345 1125 407 1093 q 253 1210 283 1157 q 222 1328 222 1264 q 224 1360 222 1350 l 350 1360 q 351 1346 350 1351 q 391 1279 357 1308 q 499 1250 425 1250 q 603 1278 572 1250 q 639 1346 635 1307 q 640 1360 640 1351 l 769 1360 q 771 1329 771 1350 q 740 1213 771 1267 q 647 1126 708 1158 q 497 1093 585 1093 z "},"Ằ":{"ha":993,"x_min":-31,"x_max":1013,"o":"m 47 119 l 344 1035 l 643 1035 l 940 118 l 1013 103 l 1013 0 l 540 0 l 540 103 l 631 118 l 592 265 l 296 265 l 258 115 l 361 103 l 361 0 l -29 0 l -31 103 l 47 119 m 561 383 l 456 782 l 440 868 l 425 782 l 325 383 l 561 383 m 497 1096 q 345 1128 407 1096 q 253 1213 283 1160 q 222 1331 222 1267 q 224 1363 222 1353 l 350 1363 q 351 1349 350 1354 q 391 1282 357 1311 q 499 1253 425 1253 q 603 1281 572 1253 q 639 1349 635 1310 q 640 1363 640 1354 l 769 1363 q 771 1332 771 1353 q 740 1215 771 1269 q 647 1128 708 1161 q 497 1096 585 1096 m 504 1375 q 372 1442 458 1386 q 239 1551 285 1497 l 404 1660 l 604 1444 l 504 1375 z "},"Ẳ":{"ha":993,"x_min":-31,"x_max":1013,"o":"m 47 119 l 344 1035 l 643 1035 l 940 118 l 1013 103 l 1013 0 l 540 0 l 540 103 l 631 118 l 592 265 l 296 265 l 258 115 l 361 103 l 361 0 l -29 0 l -31 103 l 47 119 m 561 383 l 456 782 l 440 868 l 425 782 l 325 383 l 561 383 m 497 1096 q 345 1128 407 1096 q 253 1213 283 1160 q 222 1331 222 1267 q 224 1363 222 1353 l 350 1363 q 351 1349 350 1354 q 391 1282 357 1311 q 499 1253 425 1253 q 603 1281 572 1253 q 639 1349 635 1310 q 640 1363 640 1354 l 769 1363 q 771 1332 771 1353 q 740 1215 771 1269 q 647 1128 708 1161 q 497 1096 585 1096 m 471 1360 q 447 1394 463 1368 q 432 1429 432 1419 q 439 1454 432 1444 q 463 1476 446 1464 q 493 1515 489 1494 l 493 1519 q 481 1556 493 1543 q 436 1569 468 1569 q 397 1567 403 1569 l 390 1713 q 410 1717 393 1714 q 442 1719 428 1719 q 537 1701 486 1719 q 623 1644 588 1682 q 658 1553 658 1607 q 640 1498 658 1521 q 601 1459 622 1475 q 572 1436 581 1443 q 553 1396 553 1419 q 557 1368 553 1385 l 471 1360 z "},"Ẵ":{"ha":993,"x_min":-31,"x_max":1013,"o":"m 47 119 l 344 1035 l 643 1035 l 940 118 l 1013 103 l 1013 0 l 540 0 l 540 103 l 631 118 l 592 265 l 296 265 l 258 115 l 361 103 l 361 0 l -29 0 l -31 103 l 47 119 m 561 383 l 456 782 l 440 868 l 425 782 l 325 383 l 561 383 m 497 1096 q 345 1128 407 1096 q 253 1213 283 1160 q 222 1331 222 1267 q 224 1363 222 1353 l 350 1363 q 351 1349 350 1354 q 391 1282 357 1311 q 499 1253 425 1253 q 603 1281 572 1253 q 639 1349 635 1310 q 640 1363 640 1354 l 769 1363 q 771 1332 771 1353 q 740 1215 771 1269 q 647 1128 708 1161 q 497 1096 585 1096 m 617 1435 q 540 1449 574 1435 q 463 1492 506 1464 q 399 1526 422 1515 q 347 1538 375 1538 q 290 1521 313 1538 q 238 1472 268 1504 l 165 1546 q 251 1648 197 1604 q 388 1692 306 1692 q 467 1677 433 1692 q 543 1633 500 1663 q 600 1601 579 1611 q 646 1590 621 1590 q 703 1604 682 1590 q 738 1634 724 1618 q 757 1656 751 1650 l 829 1582 q 742 1475 792 1515 q 617 1435 692 1435 z "},"Â":{"ha":993,"x_min":-31,"x_max":1013,"o":"m 421 1360 l 563 1360 l 781 1157 l 696 1082 l 490 1208 l 285 1082 l 200 1156 l 421 1360 m 47 119 l 344 1035 l 643 1035 l 940 118 l 1013 103 l 1013 0 l 540 0 l 540 103 l 631 118 l 592 265 l 296 265 l 258 115 l 361 103 l 361 0 l -29 0 l -31 103 l 47 119 m 561 383 l 456 782 l 440 868 l 425 782 l 325 383 l 561 383 z "},"Ấ":{"ha":993,"x_min":-31,"x_max":1071,"o":"m 47 119 l 344 1035 l 643 1035 l 940 118 l 1013 103 l 1013 0 l 540 0 l 540 103 l 631 118 l 592 265 l 296 265 l 258 115 l 361 103 l 361 0 l -29 0 l -31 103 l 47 119 m 561 383 l 456 782 l 440 868 l 425 782 l 325 383 l 561 383 m 428 1360 l 569 1360 l 788 1157 l 703 1082 l 497 1208 l 292 1082 l 207 1156 l 428 1360 m 706 1325 l 906 1540 l 1071 1432 q 929 1319 1013 1371 q 803 1256 846 1267 l 706 1325 z "},"Ậ":{"ha":993,"x_min":-31,"x_max":1013,"o":"m 47 119 l 344 1035 l 643 1035 l 940 118 l 1013 103 l 1013 0 l 540 0 l 540 103 l 631 118 l 592 265 l 296 265 l 258 115 l 361 103 l 361 0 l -29 0 l -31 103 l 47 119 m 561 383 l 456 782 l 440 868 l 425 782 l 325 383 l 561 383 m 489 -278 q 415 -251 444 -278 q 386 -183 386 -224 q 417 -103 386 -135 q 501 -72 449 -72 q 581 -99 553 -72 q 608 -167 608 -125 q 578 -247 608 -215 q 490 -278 547 -278 l 489 -278 m 428 1372 l 569 1372 l 788 1169 l 703 1094 l 497 1221 l 292 1094 l 207 1168 l 428 1372 z "},"Ầ":{"ha":993,"x_min":-31,"x_max":1013,"o":"m 47 119 l 344 1035 l 643 1035 l 940 118 l 1013 103 l 1013 0 l 540 0 l 540 103 l 631 118 l 592 265 l 296 265 l 258 115 l 361 103 l 361 0 l -29 0 l -31 103 l 47 119 m 561 383 l 456 782 l 440 868 l 425 782 l 325 383 l 561 383 m 428 1360 l 569 1360 l 788 1157 l 703 1082 l 497 1208 l 292 1082 l 207 1156 l 428 1360 m 779 1322 q 647 1389 733 1333 q 514 1499 560 1444 l 679 1607 l 879 1392 l 779 1322 z "},"Ẩ":{"ha":993,"x_min":-31,"x_max":1013,"o":"m 47 119 l 344 1035 l 643 1035 l 940 118 l 1013 103 l 1013 0 l 540 0 l 540 103 l 631 118 l 592 265 l 296 265 l 258 115 l 361 103 l 361 0 l -29 0 l -31 103 l 47 119 m 561 383 l 456 782 l 440 868 l 425 782 l 325 383 l 561 383 m 428 1360 l 569 1360 l 788 1157 l 703 1082 l 497 1208 l 292 1082 l 207 1156 l 428 1360 m 756 1264 q 732 1298 747 1272 q 717 1333 717 1324 q 724 1358 717 1349 q 747 1381 731 1368 q 778 1419 774 1399 l 778 1424 q 765 1460 778 1447 q 721 1474 753 1474 q 682 1471 688 1474 l 675 1617 q 695 1621 678 1618 q 726 1624 713 1624 q 822 1605 771 1624 q 908 1549 872 1586 q 943 1457 943 1511 q 925 1402 943 1425 q 886 1363 907 1379 q 857 1340 865 1347 q 838 1300 838 1324 q 842 1272 838 1289 l 756 1264 z "},"Ẫ":{"ha":993,"x_min":-31,"x_max":1013,"o":"m 47 119 l 344 1035 l 643 1035 l 940 118 l 1013 103 l 1013 0 l 540 0 l 540 103 l 631 118 l 592 265 l 296 265 l 258 115 l 361 103 l 361 0 l -29 0 l -31 103 l 47 119 m 561 383 l 456 782 l 440 868 l 425 782 l 325 383 l 561 383 m 428 1360 l 569 1360 l 788 1157 l 703 1082 l 497 1208 l 292 1082 l 207 1156 l 428 1360 m 649 1411 q 572 1426 606 1411 q 494 1468 538 1440 q 431 1503 454 1492 q 379 1514 407 1514 q 322 1497 344 1514 q 269 1449 300 1481 l 197 1522 q 283 1624 229 1581 q 419 1668 338 1668 q 499 1653 465 1668 q 575 1610 532 1639 q 632 1577 611 1588 q 678 1567 653 1567 q 735 1581 714 1567 q 769 1610 756 1594 q 789 1632 783 1626 l 861 1558 q 774 1451 824 1492 q 649 1411 724 1411 z "},"Ä":{"ha":993,"x_min":-31,"x_max":1013,"o":"m 286 1103 q 208 1138 239 1103 q 176 1219 176 1172 q 210 1319 176 1281 q 310 1357 244 1357 l 311 1357 q 403 1324 372 1357 q 435 1242 435 1292 q 398 1141 435 1179 q 288 1103 361 1103 l 286 1103 m 660 1103 q 581 1140 613 1103 q 550 1219 550 1176 q 583 1319 550 1281 q 682 1357 617 1357 l 683 1357 q 776 1324 746 1357 q 807 1242 807 1292 q 771 1141 807 1179 q 660 1103 735 1103 m 47 119 l 344 1035 l 643 1035 l 940 118 l 1013 103 l 1013 0 l 540 0 l 540 103 l 631 118 l 592 265 l 296 265 l 258 115 l 361 103 l 361 0 l -29 0 l -31 103 l 47 119 m 561 383 l 456 782 l 440 868 l 425 782 l 325 383 l 561 383 z "},"Ạ":{"ha":993,"x_min":-31,"x_max":1013,"o":"m 47 119 l 344 1035 l 643 1035 l 940 118 l 1013 103 l 1013 0 l 540 0 l 540 103 l 631 118 l 592 265 l 296 265 l 258 115 l 361 103 l 361 0 l -29 0 l -31 103 l 47 119 m 561 383 l 456 782 l 440 868 l 425 782 l 325 383 l 561 383 m 489 -278 q 415 -251 444 -278 q 386 -183 386 -224 q 417 -103 386 -135 q 501 -72 449 -72 q 581 -99 553 -72 q 608 -167 608 -125 q 578 -247 608 -215 q 490 -278 547 -278 l 489 -278 z "},"À":{"ha":993,"x_min":-31,"x_max":1013,"o":"m 47 119 l 344 1035 l 643 1035 l 940 118 l 1013 103 l 1013 0 l 540 0 l 540 103 l 631 118 l 592 265 l 296 265 l 258 115 l 361 103 l 361 0 l -29 0 l -31 103 l 47 119 m 561 383 l 456 782 l 440 868 l 425 782 l 325 383 l 561 383 m 504 1081 q 372 1147 458 1092 q 239 1257 285 1203 l 404 1365 l 604 1150 l 504 1081 z "},"Ả":{"ha":993,"x_min":-31,"x_max":1013,"o":"m 47 119 l 344 1035 l 643 1035 l 940 118 l 1013 103 l 1013 0 l 540 0 l 540 103 l 631 118 l 592 265 l 296 265 l 258 115 l 361 103 l 361 0 l -29 0 l -31 103 l 47 119 m 561 383 l 456 782 l 440 868 l 425 782 l 325 383 l 561 383 m 471 1097 q 447 1131 463 1106 q 432 1167 432 1157 q 439 1192 432 1182 q 463 1214 446 1201 q 493 1253 489 1232 l 493 1257 q 481 1294 493 1281 q 436 1307 468 1307 q 397 1304 403 1307 l 390 1450 q 410 1454 393 1451 q 442 1457 428 1457 q 537 1438 486 1457 q 623 1382 588 1419 q 658 1290 658 1344 q 640 1235 658 1258 q 601 1197 622 1213 q 572 1174 581 1181 q 553 1133 553 1157 q 557 1106 553 1122 l 471 1097 z "},"Ā":{"ha":993,"x_min":-31,"x_max":1013,"o":"m 728 1301 l 728 1151 l 256 1151 l 256 1301 l 728 1301 m 47 119 l 344 1035 l 643 1035 l 940 118 l 1013 103 l 1013 0 l 540 0 l 540 103 l 631 118 l 592 265 l 296 265 l 258 115 l 361 103 l 361 0 l -29 0 l -31 103 l 47 119 m 561 383 l 456 782 l 440 868 l 425 782 l 325 383 l 561 383 z "},"Ą":{"ha":993,"x_min":-31,"x_max":1013,"o":"m 344 1035 l 643 1035 l 940 118 l 1013 103 l 1013 0 l 943 0 q 838 -63 878 -22 q 799 -144 799 -104 q 825 -191 799 -174 q 897 -208 851 -208 q 937 -206 921 -208 q 975 -193 953 -203 l 975 -304 q 895 -337 947 -325 q 796 -349 843 -349 q 649 -309 704 -349 q 594 -207 594 -269 q 652 -84 594 -143 q 801 0 710 -25 l 540 0 l 540 103 l 631 118 l 592 265 l 296 265 l 258 115 l 361 103 l 361 0 l -29 0 l -31 103 l 47 119 l 344 1035 m 561 383 l 456 782 l 440 868 l 425 782 l 325 383 l 561 383 z "},"Å":{"ha":993,"x_min":-31,"x_max":1013,"o":"m 1013 103 l 1013 0 l 540 0 l 540 103 l 631 118 l 592 265 l 296 265 l 258 115 l 361 103 l 361 0 l -29 0 l -31 103 l 47 119 l 340 1022 q 243 1178 243 1064 q 314 1315 243 1265 q 504 1365 385 1365 q 694 1315 636 1365 q 751 1179 751 1264 q 723 1088 750 1128 q 646 1025 696 1049 l 940 118 l 1013 103 m 497 1276 q 417 1252 440 1276 q 394 1182 394 1228 q 419 1113 394 1142 q 496 1083 443 1083 q 576 1107 553 1083 q 599 1174 599 1131 q 497 1276 599 1276 m 325 383 l 561 383 l 456 782 l 440 868 l 425 782 l 325 383 z "},"Ã":{"ha":993,"x_min":-31,"x_max":1013,"o":"m 611 1104 q 534 1119 568 1104 q 457 1161 500 1133 q 393 1196 417 1185 q 342 1207 369 1207 q 285 1190 307 1207 q 232 1142 263 1174 l 160 1215 q 246 1317 192 1274 q 382 1361 300 1361 q 461 1347 428 1361 q 538 1303 494 1332 q 594 1270 574 1281 q 640 1260 615 1260 q 697 1274 676 1260 q 732 1303 718 1288 q 751 1325 746 1319 l 824 1251 q 736 1144 786 1185 q 611 1104 686 1104 m 47 119 l 344 1035 l 643 1035 l 940 118 l 1013 103 l 1013 0 l 540 0 l 540 103 l 631 118 l 592 265 l 296 265 l 258 115 l 361 103 l 361 0 l -29 0 l -31 103 l 47 119 m 561 383 l 456 782 l 440 868 l 425 782 l 325 383 l 561 383 z "},"Æ":{"ha":1332,"x_min":-108,"x_max":1343,"o":"m 554 118 l 554 278 l 258 278 l 203 118 l 304 101 l 304 0 l -108 0 l -108 101 l -11 118 l 306 901 l 132 922 l 132 1032 l 1235 1032 l 1254 772 l 1129 772 l 1078 914 l 835 932 l 835 585 l 975 590 l 1000 701 l 1106 701 l 1106 339 l 1001 339 l 976 460 l 835 464 l 835 106 l 1099 126 l 1189 308 l 1343 265 l 1299 0 l 451 0 l 451 101 l 554 118 m 554 400 l 554 919 l 479 919 l 413 719 l 301 400 l 554 400 z "},"Ǽ":{"ha":1332,"x_min":-108,"x_max":1343,"o":"m 554 118 l 554 278 l 258 278 l 203 118 l 304 101 l 304 0 l -108 0 l -108 101 l -11 118 l 306 901 l 132 922 l 132 1032 l 1235 1032 l 1254 772 l 1129 772 l 1078 914 l 835 932 l 835 585 l 975 590 l 1000 701 l 1106 701 l 1106 339 l 1001 339 l 976 460 l 835 464 l 835 106 l 1099 126 l 1189 308 l 1343 265 l 1299 0 l 451 0 l 451 101 l 554 118 m 554 400 l 554 919 l 479 919 l 413 719 l 301 400 l 554 400 m 554 1150 l 754 1365 l 919 1257 q 778 1144 861 1196 q 651 1081 694 1092 l 554 1150 z "},"B":{"ha":1018,"x_min":40,"x_max":983,"o":"m 142 901 l 42 922 l 42 1032 l 278 1032 q 349 1034 311 1032 q 404 1036 386 1036 q 506 1040 456 1040 q 756 1013 667 1040 q 880 933 846 985 q 914 804 914 882 q 846 631 914 697 q 676 551 778 564 q 901 490 818 550 q 983 314 983 429 q 879 76 983 161 q 522 -8 775 -8 q 383 -4 496 -8 q 283 0 336 0 l 40 0 l 40 103 l 142 119 l 142 901 m 419 590 q 511 588 439 588 q 607 638 578 588 q 636 782 636 689 q 603 901 636 864 q 499 939 569 939 q 462 938 486 939 q 419 933 438 936 l 419 590 m 419 110 q 458 101 431 104 q 513 97 485 97 q 635 150 597 97 q 674 303 674 203 q 636 434 674 396 q 519 472 599 472 q 419 468 478 472 l 419 110 z "},"Ḃ":{"ha":1018,"x_min":40,"x_max":983,"o":"m 142 901 l 42 922 l 42 1032 l 278 1032 q 349 1034 311 1032 q 404 1036 386 1036 q 506 1040 456 1040 q 756 1013 667 1040 q 880 933 846 985 q 914 804 914 882 q 846 631 914 697 q 676 551 778 564 q 901 490 818 550 q 983 314 983 429 q 879 76 983 161 q 522 -8 775 -8 q 383 -4 496 -8 q 283 0 336 0 l 40 0 l 40 103 l 142 119 l 142 901 m 419 590 q 511 588 439 588 q 607 638 578 588 q 636 782 636 689 q 603 901 636 864 q 499 939 569 939 q 462 938 486 939 q 419 933 438 936 l 419 590 m 419 110 q 458 101 431 104 q 513 97 485 97 q 635 150 597 97 q 674 303 674 203 q 636 434 674 396 q 519 472 599 472 q 419 468 478 472 l 419 110 m 497 1111 q 405 1144 442 1111 q 368 1225 368 1176 q 406 1322 368 1288 q 511 1357 443 1357 q 614 1326 576 1357 q 651 1244 651 1294 q 613 1146 651 1181 q 497 1111 575 1111 z "},"C":{"ha":925,"x_min":31,"x_max":889,"o":"m 528 -15 q 156 122 281 -15 q 31 501 31 260 q 97 793 31 671 q 283 979 164 915 q 553 1043 401 1043 q 789 1022 649 1043 q 889 1013 864 1013 l 869 672 l 694 672 l 642 904 q 542 933 615 933 q 399 831 450 933 q 347 524 347 729 q 398 210 347 325 q 546 96 449 96 q 619 106 594 96 q 661 136 643 117 l 726 292 l 886 278 l 864 38 q 760 17 826 33 q 650 -7 700 1 q 528 -15 600 -15 z "},"Ć":{"ha":925,"x_min":31,"x_max":889,"o":"m 528 -15 q 156 122 281 -15 q 31 501 31 260 q 97 793 31 671 q 283 979 164 915 q 553 1043 401 1043 q 789 1022 649 1043 q 889 1013 864 1013 l 869 672 l 694 672 l 642 904 q 542 933 615 933 q 399 831 450 933 q 347 524 347 729 q 398 210 347 325 q 546 96 449 96 q 619 106 594 96 q 661 136 643 117 l 726 292 l 886 278 l 864 38 q 760 17 826 33 q 650 -7 700 1 q 528 -15 600 -15 m 419 1150 l 619 1365 l 785 1257 q 643 1144 726 1196 q 517 1081 560 1092 l 419 1150 z "},"Č":{"ha":925,"x_min":31,"x_max":889,"o":"m 346 1365 l 538 1247 l 743 1365 l 828 1292 l 608 1096 l 467 1096 l 260 1293 l 346 1365 m 528 -15 q 156 122 281 -15 q 31 501 31 260 q 97 793 31 671 q 283 979 164 915 q 553 1043 401 1043 q 789 1022 649 1043 q 889 1013 864 1013 l 869 672 l 694 672 l 642 904 q 542 933 615 933 q 399 831 450 933 q 347 524 347 729 q 398 210 347 325 q 546 96 449 96 q 619 106 594 96 q 661 136 643 117 l 726 292 l 886 278 l 864 38 q 760 17 826 33 q 650 -7 700 1 q 528 -15 600 -15 z "},"Ç":{"ha":925,"x_min":31,"x_max":889,"o":"m 726 292 l 886 278 l 864 38 q 758 17 831 33 q 668 -3 707 4 q 575 -14 629 -11 q 633 -99 608 -50 q 654 -201 657 -149 q 595 -330 649 -293 q 433 -367 542 -367 q 381 -360 410 -367 q 335 -346 353 -354 l 335 -201 q 390 -210 364 -210 q 444 -203 425 -210 q 473 -177 463 -197 q 483 -115 483 -157 q 450 -11 483 -68 q 136 144 242 10 q 31 501 31 279 q 97 793 31 671 q 283 979 164 915 q 553 1043 401 1043 q 789 1022 649 1043 q 889 1013 864 1013 l 869 672 l 694 672 l 642 904 q 542 933 615 933 q 399 831 450 933 q 347 524 347 729 q 398 210 347 325 q 546 96 449 96 q 619 106 594 96 q 661 136 643 117 l 726 292 z "},"Ĉ":{"ha":925,"x_min":31,"x_max":889,"o":"m 468 1360 l 610 1360 l 828 1157 l 743 1082 l 538 1208 l 332 1082 l 247 1156 l 468 1360 m 528 -15 q 156 122 281 -15 q 31 501 31 260 q 97 793 31 671 q 283 979 164 915 q 553 1043 401 1043 q 789 1022 649 1043 q 889 1013 864 1013 l 869 672 l 694 672 l 642 904 q 542 933 615 933 q 399 831 450 933 q 347 524 347 729 q 398 210 347 325 q 546 96 449 96 q 619 106 594 96 q 661 136 643 117 l 726 292 l 886 278 l 864 38 q 760 17 826 33 q 650 -7 700 1 q 528 -15 600 -15 z "},"Ċ":{"ha":925,"x_min":31,"x_max":889,"o":"m 528 -15 q 156 122 281 -15 q 31 501 31 260 q 97 793 31 671 q 283 979 164 915 q 553 1043 401 1043 q 789 1022 649 1043 q 889 1013 864 1013 l 869 672 l 694 672 l 642 904 q 542 933 615 933 q 399 831 450 933 q 347 524 347 729 q 398 210 347 325 q 546 96 449 96 q 619 106 594 96 q 661 136 643 117 l 726 292 l 886 278 l 864 38 q 760 17 826 33 q 650 -7 700 1 q 528 -15 600 -15 m 519 1111 q 427 1144 464 1111 q 390 1225 390 1176 q 428 1322 390 1288 q 533 1357 465 1357 q 636 1326 599 1357 q 674 1244 674 1294 q 635 1146 674 1181 q 519 1111 597 1111 z "},"D":{"ha":1064,"x_min":40,"x_max":1031,"o":"m 142 901 l 43 922 l 43 1032 l 278 1032 q 347 1034 310 1032 q 401 1036 383 1036 q 521 1040 457 1040 q 902 916 774 1040 q 1031 554 1031 792 q 969 265 1031 393 q 791 63 908 136 q 513 -11 674 -11 q 371 -4 486 -11 q 324 -1 347 -3 q 281 0 300 0 l 40 0 l 40 103 l 142 119 l 142 901 m 419 115 q 504 101 447 101 q 667 201 611 103 q 722 517 722 300 q 493 933 722 933 q 442 928 461 933 q 419 922 422 922 l 419 115 z "},"Ð":{"ha":1064,"x_min":40,"x_max":1031,"o":"m 142 901 l 43 922 l 43 1032 l 278 1032 q 347 1034 310 1032 q 401 1036 383 1036 q 521 1040 457 1040 q 902 916 774 1040 q 1031 554 1031 792 q 969 265 1031 393 q 791 63 908 136 q 513 -11 674 -11 q 371 -4 486 -11 q 324 -1 347 -3 q 281 0 300 0 l 40 0 l 40 103 l 142 119 l 142 479 l 50 479 l 50 586 l 142 586 l 142 901 m 589 479 l 419 479 l 419 115 q 504 101 447 101 q 667 201 611 103 q 722 517 722 300 q 493 933 722 933 q 442 928 461 933 q 419 922 422 922 l 419 586 l 589 586 l 589 479 z "},"Ď":{"ha":1064,"x_min":40,"x_max":1031,"o":"m 342 1365 l 533 1247 l 739 1365 l 824 1292 l 604 1096 l 463 1096 l 256 1293 l 342 1365 m 142 901 l 43 922 l 43 1032 l 278 1032 q 347 1034 310 1032 q 401 1036 383 1036 q 521 1040 457 1040 q 902 916 774 1040 q 1031 554 1031 792 q 969 265 1031 393 q 791 63 908 136 q 513 -11 674 -11 q 371 -4 486 -11 q 324 -1 347 -3 q 281 0 300 0 l 40 0 l 40 103 l 142 119 l 142 901 m 419 115 q 504 101 447 101 q 667 201 611 103 q 722 517 722 300 q 493 933 722 933 q 442 928 461 933 q 419 922 422 922 l 419 115 z "},"Đ":{"ha":1064,"x_min":35,"x_max":1031,"o":"m 142 901 l 43 922 l 43 1032 l 278 1032 q 347 1034 310 1032 q 401 1036 383 1036 q 521 1040 457 1040 q 902 916 774 1040 q 1031 554 1031 792 q 969 265 1031 393 q 791 63 908 136 q 513 -11 674 -11 q 371 -4 486 -11 q 324 -1 347 -3 q 281 0 300 0 l 40 0 l 40 103 l 142 119 l 142 474 l 35 474 l 35 585 l 142 585 l 142 901 m 574 474 l 419 474 l 419 115 q 504 101 447 101 q 667 201 611 103 q 722 517 722 300 q 493 933 722 933 q 442 928 461 933 q 419 922 422 922 l 419 585 l 574 585 l 574 474 z "},"Ḋ":{"ha":1064,"x_min":40,"x_max":1031,"o":"m 142 901 l 43 922 l 43 1032 l 278 1032 q 347 1034 310 1032 q 401 1036 383 1036 q 521 1040 457 1040 q 902 916 774 1040 q 1031 554 1031 792 q 969 265 1031 393 q 791 63 908 136 q 513 -11 674 -11 q 371 -4 486 -11 q 324 -1 347 -3 q 281 0 300 0 l 40 0 l 40 103 l 142 119 l 142 901 m 419 115 q 504 101 447 101 q 667 201 611 103 q 722 517 722 300 q 493 933 722 933 q 442 928 461 933 q 419 922 422 922 l 419 115 m 519 1111 q 427 1144 464 1111 q 390 1225 390 1176 q 428 1322 390 1288 q 533 1357 465 1357 q 636 1326 599 1357 q 674 1244 674 1294 q 635 1146 674 1181 q 519 1111 597 1111 z "},"E":{"ha":917,"x_min":36,"x_max":910,"o":"m 142 118 l 142 901 l 36 922 l 36 1032 l 821 1032 l 839 772 l 714 772 l 663 914 l 424 931 l 424 585 l 563 589 l 589 701 l 694 701 l 694 339 l 589 339 l 564 461 l 424 464 l 424 106 l 685 126 l 774 308 l 910 271 l 881 0 l 40 0 l 40 103 l 142 118 z "},"É":{"ha":917,"x_min":36,"x_max":910,"o":"m 142 118 l 142 901 l 36 922 l 36 1032 l 821 1032 l 839 772 l 714 772 l 663 914 l 424 931 l 424 585 l 563 589 l 589 701 l 694 701 l 694 339 l 589 339 l 564 461 l 424 464 l 424 106 l 685 126 l 774 308 l 910 271 l 881 0 l 40 0 l 40 103 l 142 118 m 374 1150 l 574 1365 l 739 1257 q 597 1144 681 1196 q 471 1081 514 1092 l 374 1150 z "},"Ĕ":{"ha":917,"x_min":36,"x_max":910,"o":"m 478 1096 q 326 1128 388 1096 q 233 1213 264 1160 q 203 1331 203 1267 q 204 1363 203 1353 l 331 1363 q 332 1349 331 1354 q 372 1282 338 1311 q 479 1253 406 1253 q 584 1281 553 1253 q 619 1349 615 1310 q 621 1363 621 1354 l 750 1363 q 751 1332 751 1353 q 720 1215 751 1269 q 627 1128 689 1161 q 478 1096 565 1096 m 142 118 l 142 901 l 36 922 l 36 1032 l 821 1032 l 839 772 l 714 772 l 663 914 l 424 931 l 424 585 l 563 589 l 589 701 l 694 701 l 694 339 l 589 339 l 564 461 l 424 464 l 424 106 l 685 126 l 774 308 l 910 271 l 881 0 l 40 0 l 40 103 l 142 118 z "},"Ě":{"ha":917,"x_min":36,"x_max":910,"o":"m 282 1365 l 474 1247 l 679 1365 l 764 1292 l 544 1096 l 403 1096 l 196 1293 l 282 1365 m 142 118 l 142 901 l 36 922 l 36 1032 l 821 1032 l 839 772 l 714 772 l 663 914 l 424 931 l 424 585 l 563 589 l 589 701 l 694 701 l 694 339 l 589 339 l 564 461 l 424 464 l 424 106 l 685 126 l 774 308 l 910 271 l 881 0 l 40 0 l 40 103 l 142 118 z "},"Ê":{"ha":917,"x_min":36,"x_max":910,"o":"m 404 1360 l 546 1360 l 764 1157 l 679 1082 l 474 1208 l 268 1082 l 183 1156 l 404 1360 m 142 118 l 142 901 l 36 922 l 36 1032 l 821 1032 l 839 772 l 714 772 l 663 914 l 424 931 l 424 585 l 563 589 l 589 701 l 694 701 l 694 339 l 589 339 l 564 461 l 424 464 l 424 106 l 685 126 l 774 308 l 910 271 l 881 0 l 40 0 l 40 103 l 142 118 z "},"Ế":{"ha":917,"x_min":36,"x_max":1060,"o":"m 142 118 l 142 901 l 36 922 l 36 1032 l 821 1032 l 839 772 l 714 772 l 663 914 l 424 931 l 424 585 l 563 589 l 589 701 l 694 701 l 694 339 l 589 339 l 564 461 l 424 464 l 424 106 l 685 126 l 774 308 l 910 271 l 881 0 l 40 0 l 40 103 l 142 118 m 417 1360 l 558 1360 l 776 1157 l 692 1082 l 486 1208 l 281 1082 l 196 1156 l 417 1360 m 694 1325 l 894 1540 l 1060 1432 q 918 1319 1001 1371 q 792 1256 835 1267 l 694 1325 z "},"Ệ":{"ha":917,"x_min":36,"x_max":910,"o":"m 142 118 l 142 901 l 36 922 l 36 1032 l 821 1032 l 839 772 l 714 772 l 663 914 l 424 931 l 424 585 l 563 589 l 589 701 l 694 701 l 694 339 l 589 339 l 564 461 l 424 464 l 424 106 l 685 126 l 774 308 l 910 271 l 881 0 l 40 0 l 40 103 l 142 118 m 450 -278 q 376 -251 406 -278 q 347 -183 347 -224 q 378 -103 347 -135 q 463 -72 410 -72 q 542 -99 514 -72 q 569 -167 569 -125 q 539 -247 569 -215 q 451 -278 508 -278 l 450 -278 m 389 1369 l 531 1369 l 749 1167 l 664 1092 l 458 1218 l 253 1092 l 168 1165 l 389 1369 z "},"Ề":{"ha":917,"x_min":36,"x_max":910,"o":"m 142 118 l 142 901 l 36 922 l 36 1032 l 821 1032 l 839 772 l 714 772 l 663 914 l 424 931 l 424 585 l 563 589 l 589 701 l 694 701 l 694 339 l 589 339 l 564 461 l 424 464 l 424 106 l 685 126 l 774 308 l 910 271 l 881 0 l 40 0 l 40 103 l 142 118 m 417 1360 l 558 1360 l 776 1157 l 692 1082 l 486 1208 l 281 1082 l 196 1156 l 417 1360 m 768 1322 q 635 1389 722 1333 q 503 1499 549 1444 l 668 1607 l 868 1392 l 768 1322 z "},"Ể":{"ha":917,"x_min":36,"x_max":932,"o":"m 142 118 l 142 901 l 36 922 l 36 1032 l 821 1032 l 839 772 l 714 772 l 663 914 l 424 931 l 424 585 l 563 589 l 589 701 l 694 701 l 694 339 l 589 339 l 564 461 l 424 464 l 424 106 l 685 126 l 774 308 l 910 271 l 881 0 l 40 0 l 40 103 l 142 118 m 417 1360 l 558 1360 l 776 1157 l 692 1082 l 486 1208 l 281 1082 l 196 1156 l 417 1360 m 744 1264 q 721 1298 736 1272 q 706 1333 706 1324 q 713 1358 706 1349 q 736 1381 719 1368 q 767 1419 763 1399 l 767 1424 q 754 1460 767 1447 q 710 1474 742 1474 q 671 1471 676 1474 l 664 1617 q 684 1621 667 1618 q 715 1624 701 1624 q 810 1605 760 1624 q 897 1549 861 1586 q 932 1457 932 1511 q 914 1402 932 1425 q 875 1363 896 1379 q 846 1340 854 1347 q 826 1300 826 1324 q 831 1272 826 1289 l 744 1264 z "},"Ễ":{"ha":917,"x_min":36,"x_max":910,"o":"m 142 118 l 142 901 l 36 922 l 36 1032 l 821 1032 l 839 772 l 714 772 l 663 914 l 424 931 l 424 585 l 563 589 l 589 701 l 694 701 l 694 339 l 589 339 l 564 461 l 424 464 l 424 106 l 685 126 l 774 308 l 910 271 l 881 0 l 40 0 l 40 103 l 142 118 m 417 1360 l 558 1360 l 776 1157 l 692 1082 l 486 1208 l 281 1082 l 196 1156 l 417 1360 m 638 1411 q 560 1426 594 1411 q 483 1468 526 1440 q 419 1503 443 1492 q 368 1514 396 1514 q 311 1497 333 1514 q 258 1449 289 1481 l 186 1522 q 272 1624 218 1581 q 408 1668 326 1668 q 488 1653 454 1668 q 564 1610 521 1639 q 621 1577 600 1588 q 667 1567 642 1567 q 724 1581 703 1567 q 758 1610 744 1594 q 778 1632 772 1626 l 850 1558 q 763 1451 813 1492 q 638 1411 713 1411 z "},"Ë":{"ha":917,"x_min":36,"x_max":910,"o":"m 269 1103 q 191 1138 222 1103 q 160 1219 160 1172 q 194 1319 160 1281 q 293 1357 228 1357 l 294 1357 q 387 1324 356 1357 q 418 1242 418 1292 q 381 1141 418 1179 q 271 1103 344 1103 l 269 1103 m 643 1103 q 565 1140 596 1103 q 533 1219 533 1176 q 567 1319 533 1281 q 665 1357 600 1357 l 667 1357 q 760 1324 729 1357 q 790 1242 790 1292 q 754 1141 790 1179 q 643 1103 718 1103 m 142 118 l 142 901 l 36 922 l 36 1032 l 821 1032 l 839 772 l 714 772 l 663 914 l 424 931 l 424 585 l 563 589 l 589 701 l 694 701 l 694 339 l 589 339 l 564 461 l 424 464 l 424 106 l 685 126 l 774 308 l 910 271 l 881 0 l 40 0 l 40 103 l 142 118 z "},"Ė":{"ha":917,"x_min":36,"x_max":910,"o":"m 142 118 l 142 901 l 36 922 l 36 1032 l 821 1032 l 839 772 l 714 772 l 663 914 l 424 931 l 424 585 l 563 589 l 589 701 l 694 701 l 694 339 l 589 339 l 564 461 l 424 464 l 424 106 l 685 126 l 774 308 l 910 271 l 881 0 l 40 0 l 40 103 l 142 118 m 474 1111 q 381 1144 418 1111 q 344 1225 344 1176 q 382 1322 344 1288 q 488 1357 419 1357 q 590 1326 553 1357 q 628 1244 628 1294 q 590 1146 628 1181 q 474 1111 551 1111 z "},"Ẹ":{"ha":917,"x_min":36,"x_max":910,"o":"m 142 118 l 142 901 l 36 922 l 36 1032 l 821 1032 l 839 772 l 714 772 l 663 914 l 424 931 l 424 585 l 563 589 l 589 701 l 694 701 l 694 339 l 589 339 l 564 461 l 424 464 l 424 106 l 685 126 l 774 308 l 910 271 l 881 0 l 40 0 l 40 103 l 142 118 m 450 -278 q 376 -251 406 -278 q 347 -183 347 -224 q 378 -103 347 -135 q 463 -72 410 -72 q 542 -99 514 -72 q 569 -167 569 -125 q 539 -247 569 -215 q 451 -278 508 -278 l 450 -278 z "},"È":{"ha":917,"x_min":36,"x_max":910,"o":"m 142 118 l 142 901 l 36 922 l 36 1032 l 821 1032 l 839 772 l 714 772 l 663 914 l 424 931 l 424 585 l 563 589 l 589 701 l 694 701 l 694 339 l 589 339 l 564 461 l 424 464 l 424 106 l 685 126 l 774 308 l 910 271 l 881 0 l 40 0 l 40 103 l 142 118 m 493 1081 q 360 1147 447 1092 q 228 1257 274 1203 l 393 1365 l 593 1150 l 493 1081 z "},"Ẻ":{"ha":917,"x_min":36,"x_max":910,"o":"m 142 118 l 142 901 l 36 922 l 36 1032 l 821 1032 l 839 772 l 714 772 l 663 914 l 424 931 l 424 585 l 563 589 l 589 701 l 694 701 l 694 339 l 589 339 l 564 461 l 424 464 l 424 106 l 685 126 l 774 308 l 910 271 l 881 0 l 40 0 l 40 103 l 142 118 m 460 1097 q 436 1131 451 1106 q 421 1167 421 1157 q 428 1192 421 1182 q 451 1214 435 1201 q 482 1253 478 1232 l 482 1257 q 469 1294 482 1281 q 425 1307 457 1307 q 386 1304 392 1307 l 379 1450 q 399 1454 382 1451 q 431 1457 417 1457 q 526 1438 475 1457 q 612 1382 576 1419 q 647 1290 647 1344 q 629 1235 647 1258 q 590 1197 611 1213 q 561 1174 569 1181 q 542 1133 542 1157 q 546 1106 542 1122 l 460 1097 z "},"Ē":{"ha":917,"x_min":36,"x_max":910,"o":"m 711 1301 l 711 1151 l 239 1151 l 239 1301 l 711 1301 m 142 118 l 142 901 l 36 922 l 36 1032 l 821 1032 l 839 772 l 714 772 l 663 914 l 424 931 l 424 585 l 563 589 l 589 701 l 694 701 l 694 339 l 589 339 l 564 461 l 424 464 l 424 106 l 685 126 l 774 308 l 910 271 l 881 0 l 40 0 l 40 103 l 142 118 z "},"Ę":{"ha":917,"x_min":36,"x_max":910,"o":"m 142 901 l 36 922 l 36 1032 l 821 1032 l 839 772 l 714 772 l 663 914 l 424 931 l 424 585 l 563 589 l 589 701 l 694 701 l 694 339 l 589 339 l 564 461 l 424 464 l 424 106 l 685 126 l 774 308 l 910 271 l 881 0 l 871 0 q 790 -35 826 -11 q 731 -88 753 -60 q 710 -139 710 -117 q 731 -190 710 -171 q 793 -208 753 -208 q 831 -206 817 -208 q 868 -193 844 -203 l 868 -304 q 790 -337 840 -325 q 693 -349 739 -349 q 552 -310 603 -349 q 501 -207 501 -271 q 553 -88 501 -143 q 706 0 606 -33 l 40 0 l 40 103 l 142 118 l 142 901 z "},"Ẽ":{"ha":917,"x_min":36,"x_max":910,"o":"m 142 118 l 142 901 l 36 922 l 36 1032 l 821 1032 l 839 772 l 714 772 l 663 914 l 424 931 l 424 585 l 563 589 l 589 701 l 694 701 l 694 339 l 589 339 l 564 461 l 424 464 l 424 106 l 685 126 l 774 308 l 910 271 l 881 0 l 40 0 l 40 103 l 142 118 m 606 1104 q 528 1119 563 1104 q 451 1161 494 1133 q 388 1196 411 1185 q 336 1207 364 1207 q 279 1190 301 1207 q 226 1142 257 1174 l 154 1215 q 240 1317 186 1274 q 376 1361 294 1361 q 456 1347 422 1361 q 532 1303 489 1332 q 589 1270 568 1281 q 635 1260 610 1260 q 692 1274 671 1260 q 726 1303 713 1288 q 746 1325 740 1319 l 818 1251 q 731 1144 781 1185 q 606 1104 681 1104 z "},"F":{"ha":869,"x_min":35,"x_max":850,"o":"m 142 119 l 142 901 l 35 922 l 35 1032 l 835 1032 l 850 761 l 708 761 l 646 910 l 424 931 l 424 556 l 571 560 l 600 689 l 710 689 l 710 296 l 601 296 l 571 428 l 424 433 l 424 119 l 633 103 l 633 0 l 40 0 l 40 103 l 142 119 z "},"Ḟ":{"ha":869,"x_min":35,"x_max":850,"o":"m 142 119 l 142 901 l 35 922 l 35 1032 l 835 1032 l 850 761 l 708 761 l 646 910 l 424 931 l 424 556 l 571 560 l 600 689 l 710 689 l 710 296 l 601 296 l 571 428 l 424 433 l 424 119 l 633 103 l 633 0 l 40 0 l 40 103 l 142 119 m 450 1111 q 358 1144 394 1111 q 321 1225 321 1176 q 358 1322 321 1288 q 464 1357 396 1357 q 567 1326 529 1357 q 604 1244 604 1294 q 566 1146 604 1181 q 450 1111 528 1111 z "},"G":{"ha":1042,"x_min":32,"x_max":1015,"o":"m 529 -15 q 259 53 371 -15 q 90 240 147 121 q 32 510 32 360 q 174 908 32 769 q 579 1046 317 1046 q 777 1031 675 1046 q 943 1003 879 1017 l 925 721 l 724 721 l 682 913 q 647 934 672 925 q 576 943 621 943 q 414 837 468 943 q 360 524 360 731 q 406 203 360 314 q 556 92 451 92 q 628 103 596 92 q 676 132 661 114 l 676 413 l 569 428 l 569 538 l 1015 538 l 1015 428 l 951 417 l 951 56 q 839 33 928 54 q 679 -2 750 11 q 529 -15 608 -15 z "},"Ğ":{"ha":1043,"x_min":31,"x_max":1014,"o":"m 560 1096 q 408 1128 469 1096 q 315 1213 346 1160 q 285 1331 285 1267 q 286 1363 285 1353 l 413 1363 q 414 1349 413 1354 q 453 1282 419 1311 q 561 1253 488 1253 q 666 1281 635 1253 q 701 1349 697 1310 q 703 1363 703 1354 l 832 1363 q 833 1332 833 1353 q 802 1215 833 1269 q 709 1128 771 1161 q 560 1096 647 1096 m 528 -15 q 258 53 369 -15 q 88 240 146 121 q 31 510 31 360 q 173 908 31 769 q 578 1046 315 1046 q 776 1031 674 1046 q 942 1003 878 1017 l 924 721 l 722 721 l 681 913 q 645 934 671 925 q 575 943 619 943 q 413 837 467 943 q 358 524 358 731 q 404 203 358 314 q 554 92 450 92 q 627 103 594 92 q 675 132 660 114 l 675 413 l 568 428 l 568 538 l 1014 538 l 1014 428 l 950 417 l 950 56 q 838 33 926 54 q 678 -2 749 11 q 528 -15 607 -15 z "},"Ĝ":{"ha":1042,"x_min":32,"x_max":1015,"o":"m 518 1360 l 660 1360 l 878 1157 l 793 1082 l 588 1208 l 382 1082 l 297 1156 l 518 1360 m 529 -15 q 259 53 371 -15 q 90 240 147 121 q 32 510 32 360 q 174 908 32 769 q 579 1046 317 1046 q 777 1031 675 1046 q 943 1003 879 1017 l 925 721 l 724 721 l 682 913 q 647 934 672 925 q 576 943 621 943 q 414 837 468 943 q 360 524 360 731 q 406 203 360 314 q 556 92 451 92 q 628 103 596 92 q 676 132 661 114 l 676 413 l 569 428 l 569 538 l 1015 538 l 1015 428 l 951 417 l 951 56 q 839 33 928 54 q 679 -2 750 11 q 529 -15 608 -15 z "},"Ģ":{"ha":1043,"x_min":31,"x_max":1014,"o":"m 528 -15 q 258 53 369 -15 q 88 240 146 121 q 31 510 31 360 q 173 908 31 769 q 578 1046 315 1046 q 776 1031 674 1046 q 942 1003 878 1017 l 924 721 l 722 721 l 681 913 q 645 934 671 925 q 575 943 619 943 q 413 837 467 943 q 358 524 358 731 q 404 203 358 314 q 554 92 450 92 q 627 103 594 92 q 675 132 660 114 l 675 413 l 568 428 l 568 538 l 1014 538 l 1014 428 l 950 417 l 950 56 q 838 33 926 54 q 678 -2 749 11 q 528 -15 607 -15 m 665 -171 q 644 -262 665 -217 q 593 -340 622 -308 q 543 -379 564 -372 l 540 -379 l 457 -361 l 453 -350 q 474 -319 465 -344 q 482 -268 482 -293 q 457 -219 482 -235 q 424 -149 424 -196 q 461 -80 424 -101 q 544 -58 499 -58 l 549 -58 q 633 -87 601 -58 q 665 -171 665 -117 z "},"Ġ":{"ha":1042,"x_min":32,"x_max":1015,"o":"m 529 -15 q 259 53 371 -15 q 90 240 147 121 q 32 510 32 360 q 174 908 32 769 q 579 1046 317 1046 q 777 1031 675 1046 q 943 1003 879 1017 l 925 721 l 724 721 l 682 913 q 647 934 672 925 q 576 943 621 943 q 414 837 468 943 q 360 524 360 731 q 406 203 360 314 q 556 92 451 92 q 628 103 596 92 q 676 132 661 114 l 676 413 l 569 428 l 569 538 l 1015 538 l 1015 428 l 951 417 l 951 56 q 839 33 928 54 q 679 -2 750 11 q 529 -15 608 -15 m 550 1111 q 458 1144 494 1111 q 421 1225 421 1176 q 458 1322 421 1288 q 564 1357 496 1357 q 667 1326 629 1357 q 704 1244 704 1294 q 666 1146 704 1181 q 550 1111 628 1111 z "},"H":{"ha":1172,"x_min":46,"x_max":1129,"o":"m 142 118 l 142 903 l 47 922 l 47 1032 l 533 1032 l 533 922 l 422 903 l 422 590 l 750 590 l 750 901 l 649 922 l 649 1032 l 1129 1032 l 1129 922 l 1031 903 l 1031 118 l 1129 103 l 1129 0 l 649 0 l 649 103 l 750 119 l 750 457 l 422 457 l 422 118 l 533 103 l 533 0 l 46 0 l 46 103 l 142 118 z "},"Ħ":{"ha":1172,"x_min":38,"x_max":1156,"o":"m 142 769 l 142 901 l 38 922 l 38 1032 l 533 1032 l 533 922 l 424 901 l 424 769 l 749 769 l 749 901 l 647 922 l 647 1032 l 1136 1032 l 1136 922 l 1031 903 l 1031 769 l 1156 769 l 1156 671 l 1031 671 l 1031 118 l 1135 103 l 1135 0 l 647 0 l 647 103 l 749 119 l 749 388 l 424 388 l 424 119 l 533 103 l 533 0 l 39 0 l 39 103 l 142 118 l 142 671 l 38 671 l 38 769 l 142 769 m 749 671 l 424 671 l 424 521 l 749 521 l 749 671 z "},"Ĥ":{"ha":1172,"x_min":46,"x_max":1129,"o":"m 518 1360 l 660 1360 l 878 1157 l 793 1082 l 588 1208 l 382 1082 l 297 1156 l 518 1360 m 142 118 l 142 903 l 47 922 l 47 1032 l 533 1032 l 533 922 l 422 903 l 422 590 l 750 590 l 750 901 l 649 922 l 649 1032 l 1129 1032 l 1129 922 l 1031 903 l 1031 118 l 1129 103 l 1129 0 l 649 0 l 649 103 l 750 119 l 750 457 l 422 457 l 422 118 l 533 103 l 533 0 l 46 0 l 46 103 l 142 118 z "},"I":{"ha":590,"x_min":49,"x_max":546,"o":"m 154 119 l 154 901 l 49 922 l 49 1032 l 546 1032 l 546 922 l 436 901 l 436 118 l 546 101 l 546 0 l 50 0 l 50 103 l 154 119 z "},"Ĳ":{"ha":1153,"x_min":49,"x_max":1133,"o":"m 154 119 l 154 901 l 49 922 l 49 1032 l 546 1032 l 546 922 l 436 901 l 436 118 l 546 101 l 546 0 l 50 0 l 50 103 l 154 119 m 557 -187 q 653 -123 607 -168 q 722 -7 699 -78 q 751 235 751 76 l 751 901 l 640 922 l 640 1032 l 1133 1032 l 1133 922 l 1031 903 l 1031 382 q 1008 17 1031 93 q 876 -176 974 -97 q 618 -279 778 -254 l 557 -187 z "},"Í":{"ha":590,"x_min":49,"x_max":549,"o":"m 154 119 l 154 901 l 49 922 l 49 1032 l 546 1032 l 546 922 l 436 901 l 436 118 l 546 101 l 546 0 l 50 0 l 50 103 l 154 119 m 183 1150 l 383 1365 l 549 1257 q 407 1144 490 1196 q 281 1081 324 1092 l 183 1150 z "},"Ĭ":{"ha":590,"x_min":19,"x_max":568,"o":"m 294 1096 q 142 1128 204 1096 q 50 1213 81 1160 q 19 1331 19 1267 q 21 1363 19 1353 l 147 1363 q 149 1349 147 1354 q 188 1282 154 1311 q 296 1253 222 1253 q 401 1281 369 1253 q 436 1349 432 1310 q 438 1363 438 1354 l 567 1363 q 568 1332 568 1353 q 537 1215 568 1269 q 444 1128 506 1161 q 294 1096 382 1096 m 154 119 l 154 901 l 49 922 l 49 1032 l 546 1032 l 546 922 l 436 901 l 436 118 l 546 101 l 546 0 l 50 0 l 50 103 l 154 119 z "},"Î":{"ha":590,"x_min":0,"x_max":581,"o":"m 221 1360 l 363 1360 l 581 1157 l 496 1082 l 290 1208 l 85 1082 l 0 1156 l 221 1360 m 154 119 l 154 901 l 49 922 l 49 1032 l 546 1032 l 546 922 l 436 901 l 436 118 l 546 101 l 546 0 l 50 0 l 50 103 l 154 119 z "},"Ï":{"ha":590,"x_min":-24,"x_max":607,"o":"m 86 1103 q 8 1138 39 1103 q -24 1219 -24 1172 q 10 1319 -24 1281 q 110 1357 44 1357 l 111 1357 q 203 1324 172 1357 q 235 1242 235 1292 q 198 1141 235 1179 q 88 1103 161 1103 l 86 1103 m 460 1103 q 381 1140 413 1103 q 350 1219 350 1176 q 383 1319 350 1281 q 482 1357 417 1357 l 483 1357 q 576 1324 546 1357 q 607 1242 607 1292 q 571 1141 607 1179 q 460 1103 535 1103 m 154 119 l 154 901 l 49 922 l 49 1032 l 546 1032 l 546 922 l 436 901 l 436 118 l 546 101 l 546 0 l 50 0 l 50 103 l 154 119 z "},"İ":{"ha":590,"x_min":49,"x_max":546,"o":"m 154 119 l 154 901 l 49 922 l 49 1032 l 546 1032 l 546 922 l 436 901 l 436 118 l 546 101 l 546 0 l 50 0 l 50 103 l 154 119 m 283 1111 q 191 1144 228 1111 q 154 1225 154 1176 q 192 1322 154 1288 q 297 1357 229 1357 q 400 1326 363 1357 q 438 1244 438 1294 q 399 1146 438 1181 q 283 1111 361 1111 z "},"Ị":{"ha":590,"x_min":49,"x_max":546,"o":"m 154 119 l 154 901 l 49 922 l 49 1032 l 546 1032 l 546 922 l 436 901 l 436 118 l 546 101 l 546 0 l 50 0 l 50 103 l 154 119 m 288 -278 q 214 -251 243 -278 q 185 -183 185 -224 q 216 -103 185 -135 q 300 -72 247 -72 q 379 -99 351 -72 q 407 -167 407 -125 q 376 -247 407 -215 q 289 -278 346 -278 l 288 -278 z "},"Ì":{"ha":590,"x_min":38,"x_max":546,"o":"m 154 119 l 154 901 l 49 922 l 49 1032 l 546 1032 l 546 922 l 436 901 l 436 118 l 546 101 l 546 0 l 50 0 l 50 103 l 154 119 m 303 1081 q 170 1147 257 1092 q 38 1257 83 1203 l 203 1365 l 403 1150 l 303 1081 z "},"Ỉ":{"ha":590,"x_min":49,"x_max":546,"o":"m 154 119 l 154 901 l 49 922 l 49 1032 l 546 1032 l 546 922 l 436 901 l 436 118 l 546 101 l 546 0 l 50 0 l 50 103 l 154 119 m 269 1097 q 246 1131 261 1106 q 231 1167 231 1157 q 238 1192 231 1182 q 261 1214 244 1201 q 292 1253 288 1232 l 292 1257 q 279 1294 292 1281 q 235 1307 267 1307 q 196 1304 201 1307 l 189 1450 q 209 1454 192 1451 q 240 1457 226 1457 q 335 1438 285 1457 q 422 1382 386 1419 q 457 1290 457 1344 q 439 1235 457 1258 q 400 1197 421 1213 q 371 1174 379 1181 q 351 1133 351 1157 q 356 1106 351 1122 l 269 1097 z "},"Ī":{"ha":590,"x_min":49,"x_max":546,"o":"m 528 1301 l 528 1151 l 56 1151 l 56 1301 l 528 1301 m 154 119 l 154 901 l 49 922 l 49 1032 l 546 1032 l 546 922 l 436 901 l 436 118 l 546 101 l 546 0 l 50 0 l 50 103 l 154 119 z "},"Į":{"ha":590,"x_min":49,"x_max":546,"o":"m 154 901 l 49 922 l 49 1032 l 546 1032 l 546 922 l 436 901 l 436 118 l 546 101 l 546 0 l 436 0 q 335 -63 374 -22 q 296 -139 296 -104 q 321 -190 296 -171 q 394 -208 346 -208 q 431 -206 418 -208 q 468 -193 444 -203 l 468 -304 q 388 -337 440 -325 q 289 -349 336 -349 q 142 -309 197 -349 q 88 -207 88 -269 q 142 -90 88 -146 q 286 0 196 -35 l 50 0 l 50 103 l 154 119 l 154 901 z "},"Ĩ":{"ha":590,"x_min":-40,"x_max":624,"o":"m 411 1104 q 334 1119 368 1104 q 257 1161 300 1133 q 193 1196 217 1185 q 142 1207 169 1207 q 85 1190 107 1207 q 32 1142 63 1174 l -40 1215 q 46 1317 -8 1274 q 182 1361 100 1361 q 261 1346 228 1361 q 338 1303 294 1331 q 394 1270 374 1281 q 440 1260 415 1260 q 497 1274 476 1260 q 532 1303 518 1288 q 551 1325 546 1319 l 624 1251 q 536 1144 586 1185 q 411 1104 486 1104 m 154 119 l 154 901 l 49 922 l 49 1032 l 546 1032 l 546 922 l 436 901 l 436 118 l 546 101 l 546 0 l 50 0 l 50 103 l 154 119 z "},"J":{"ha":563,"x_min":-33,"x_max":543,"o":"m -33 -187 q 63 -123 17 -168 q 132 -7 108 -78 q 161 235 161 76 l 161 901 l 50 922 l 50 1032 l 543 1032 l 543 922 l 440 903 l 440 382 q 418 17 440 93 q 285 -176 383 -97 q 28 -279 188 -254 l -33 -187 z "},"Ĵ":{"ha":563,"x_min":-33,"x_max":589,"o":"m 229 1360 l 371 1360 l 589 1157 l 504 1082 l 299 1208 l 93 1082 l 8 1156 l 229 1360 m -33 -187 q 63 -123 17 -168 q 132 -7 108 -78 q 161 235 161 76 l 161 901 l 50 922 l 50 1032 l 543 1032 l 543 922 l 440 903 l 440 382 q 418 17 440 93 q 285 -176 383 -97 q 28 -279 188 -254 l -33 -187 z "},"K":{"ha":1075,"x_min":39,"x_max":1085,"o":"m 764 0 q 717 53 746 0 q 642 211 689 106 q 519 453 563 389 l 422 338 l 422 118 l 532 103 l 532 0 l 39 0 l 39 103 l 142 119 l 142 901 l 39 922 l 39 1032 l 518 1032 l 518 922 l 422 901 l 422 494 l 726 901 l 615 922 l 615 1032 l 1038 1032 l 1038 924 l 908 903 l 683 646 q 784 516 732 600 q 911 293 836 432 q 981 168 957 208 q 1018 118 1004 128 l 1085 103 l 1085 0 l 764 0 z "},"Ķ":{"ha":1075,"x_min":39,"x_max":1085,"o":"m 764 0 q 717 53 746 0 q 642 211 689 106 q 519 453 563 389 l 422 338 l 422 118 l 532 103 l 532 0 l 39 0 l 39 103 l 142 119 l 142 901 l 39 922 l 39 1032 l 518 1032 l 518 922 l 422 901 l 422 494 l 726 901 l 615 922 l 615 1032 l 1038 1032 l 1038 924 l 908 903 l 683 646 q 784 516 732 600 q 911 293 836 432 q 981 168 957 208 q 1018 118 1004 128 l 1085 103 l 1085 0 l 764 0 m 665 -171 q 644 -262 665 -217 q 593 -340 622 -308 q 543 -379 564 -372 l 540 -379 l 457 -361 l 453 -350 q 474 -319 465 -344 q 482 -268 482 -293 q 457 -219 482 -235 q 424 -149 424 -196 q 461 -80 424 -101 q 544 -58 499 -58 l 549 -58 q 633 -87 601 -58 q 665 -171 665 -117 z "},"L":{"ha":894,"x_min":40,"x_max":885,"o":"m 142 118 l 142 901 l 42 922 l 42 1032 l 553 1032 l 553 922 l 424 901 l 424 121 l 636 136 l 732 432 l 885 413 l 849 0 l 40 0 l 40 103 l 142 118 z "},"Ĺ":{"ha":894,"x_min":40,"x_max":885,"o":"m 142 118 l 142 901 l 42 922 l 42 1032 l 553 1032 l 553 922 l 424 901 l 424 121 l 636 136 l 732 432 l 885 413 l 849 0 l 40 0 l 40 103 l 142 118 m 154 1150 l 354 1365 l 519 1257 q 378 1144 461 1196 q 251 1081 294 1092 l 154 1150 z "},"Ľ":{"ha":894,"x_min":40,"x_max":885,"o":"m 629 690 q 642 765 638 722 q 646 904 646 808 q 633 1023 646 978 q 608 1086 621 1068 l 614 1115 l 790 1153 q 817 1085 806 1133 q 829 967 829 1036 q 814 819 829 888 q 778 706 799 751 q 744 646 758 660 l 635 672 l 629 690 m 142 118 l 142 901 l 42 922 l 42 1032 l 553 1032 l 553 922 l 424 901 l 424 121 l 636 136 l 732 432 l 885 413 l 849 0 l 40 0 l 40 103 l 142 118 z "},"Ļ":{"ha":889,"x_min":40,"x_max":885,"o":"m 142 118 l 142 901 l 42 922 l 42 1032 l 553 1032 l 553 922 l 424 901 l 424 121 l 636 136 l 732 432 l 885 413 l 849 0 l 40 0 l 40 103 l 142 118 m 600 -171 q 578 -262 600 -217 q 528 -340 557 -308 q 478 -379 499 -372 l 475 -379 l 392 -361 l 388 -350 q 408 -319 400 -344 q 417 -268 417 -293 q 392 -219 417 -235 q 358 -149 358 -196 q 396 -80 358 -101 q 479 -58 433 -58 l 483 -58 q 568 -87 536 -58 q 600 -171 600 -117 z "},"Ŀ":{"ha":951,"x_min":40,"x_max":911,"o":"m 142 118 l 142 901 l 42 922 l 42 1032 l 553 1032 l 553 922 l 424 901 l 424 121 l 636 136 l 732 432 l 885 413 l 849 0 l 40 0 l 40 103 l 142 118 m 749 496 q 656 533 696 496 q 615 625 615 571 q 660 725 615 686 q 772 764 706 764 q 873 725 835 764 q 911 633 911 686 q 867 532 911 568 q 749 496 824 496 z "},"Ł":{"ha":889,"x_min":29,"x_max":885,"o":"m 142 501 l 142 901 l 42 922 l 42 1032 l 553 1032 l 553 922 l 424 901 l 424 610 l 640 697 l 640 581 l 424 496 l 424 121 l 636 136 l 732 432 l 885 413 l 849 0 l 40 0 l 40 103 l 142 118 l 142 390 l 29 347 l 29 458 l 142 501 z "},"M":{"ha":1467,"x_min":-1,"x_max":1479,"o":"m 113 118 l 203 901 l 71 922 l 71 1032 l 579 1032 l 724 475 l 747 333 l 768 475 l 882 1032 l 1400 1032 l 1400 922 l 1251 901 l 1369 119 l 1479 103 l 1479 0 l 965 0 l 965 103 l 1079 119 l 1019 706 l 993 939 l 954 732 l 803 36 l 572 36 l 376 707 l 326 940 l 313 706 l 275 119 l 418 103 l 418 0 l -1 0 l -1 103 l 113 118 z "},"Ṁ":{"ha":1467,"x_min":-1,"x_max":1479,"o":"m 113 118 l 203 901 l 71 922 l 71 1032 l 579 1032 l 724 475 l 747 333 l 768 475 l 882 1032 l 1400 1032 l 1400 922 l 1251 901 l 1369 119 l 1479 103 l 1479 0 l 965 0 l 965 103 l 1079 119 l 1019 706 l 993 939 l 954 732 l 803 36 l 572 36 l 376 707 l 326 940 l 313 706 l 275 119 l 418 103 l 418 0 l -1 0 l -1 103 l 113 118 m 721 1111 q 628 1144 665 1111 q 592 1225 592 1176 q 629 1322 592 1288 q 735 1357 667 1357 q 838 1326 800 1357 q 875 1244 875 1294 q 837 1146 875 1181 q 721 1111 799 1111 z "},"N":{"ha":1122,"x_min":38,"x_max":1106,"o":"m 146 118 l 146 903 l 38 922 l 38 1032 l 431 1032 l 776 483 l 854 307 l 854 903 l 738 922 l 738 1032 l 1106 1032 l 1106 922 l 1004 903 l 1004 0 l 753 0 l 378 606 l 294 789 l 294 119 l 449 103 l 449 0 l 38 0 l 38 103 l 146 118 z "},"Ń":{"ha":1122,"x_min":38,"x_max":1106,"o":"m 146 118 l 146 903 l 38 922 l 38 1032 l 431 1032 l 776 483 l 854 307 l 854 903 l 738 922 l 738 1032 l 1106 1032 l 1106 922 l 1004 903 l 1004 0 l 753 0 l 378 606 l 294 789 l 294 119 l 449 103 l 449 0 l 38 0 l 38 103 l 146 118 m 476 1150 l 676 1365 l 842 1257 q 700 1144 783 1196 q 574 1081 617 1092 l 476 1150 z "},"Ň":{"ha":1126,"x_min":38,"x_max":1106,"o":"m 386 1365 l 578 1247 l 783 1365 l 868 1292 l 649 1096 l 507 1096 l 300 1293 l 386 1365 m 146 118 l 146 903 l 38 922 l 38 1032 l 431 1032 l 776 483 l 854 307 l 854 903 l 738 922 l 738 1032 l 1106 1032 l 1106 922 l 1004 903 l 1004 0 l 753 0 l 378 606 l 294 789 l 294 119 l 449 103 l 449 0 l 38 0 l 38 103 l 146 118 z "},"Ņ":{"ha":1126,"x_min":38,"x_max":1106,"o":"m 146 118 l 146 903 l 38 922 l 38 1032 l 431 1032 l 776 483 l 854 307 l 854 903 l 738 922 l 738 1032 l 1106 1032 l 1106 922 l 1004 903 l 1004 0 l 753 0 l 378 606 l 294 789 l 294 119 l 449 103 l 449 0 l 38 0 l 38 103 l 146 118 m 710 -171 q 688 -262 710 -217 q 638 -340 667 -308 q 588 -379 608 -372 l 585 -379 l 501 -361 l 497 -350 q 518 -319 510 -344 q 526 -268 526 -293 q 501 -219 526 -235 q 468 -149 468 -196 q 506 -80 468 -101 q 589 -58 543 -58 l 593 -58 q 678 -87 646 -58 q 710 -171 710 -117 z "},"Ŋ":{"ha":1115,"x_min":31,"x_max":1122,"o":"m 154 915 l 31 940 l 31 1032 l 425 1032 l 769 482 l 857 301 l 857 903 l 732 924 l 732 1032 l 1122 1032 l 1122 924 l 1006 903 l 1006 292 q 981 73 1006 158 q 934 -47 957 -12 q 857 -147 911 -81 q 735 -243 801 -208 q 601 -287 668 -278 l 550 -206 q 732 -61 667 -169 q 760 -7 746 -40 l 365 632 l 304 765 l 304 118 l 439 101 l 439 0 l 31 0 l 31 101 l 154 118 l 154 915 z "},"Ñ":{"ha":1126,"x_min":38,"x_max":1106,"o":"m 697 1104 q 620 1119 654 1104 q 543 1161 586 1133 q 479 1196 503 1185 q 428 1207 456 1207 q 371 1190 393 1207 q 318 1142 349 1174 l 246 1215 q 332 1317 278 1274 q 468 1361 386 1361 q 547 1346 514 1361 q 624 1303 581 1331 q 681 1270 660 1281 q 726 1260 701 1260 q 783 1274 763 1260 q 818 1303 804 1288 q 838 1325 832 1319 l 910 1251 q 822 1144 872 1185 q 697 1104 772 1104 m 146 118 l 146 903 l 38 922 l 38 1032 l 431 1032 l 776 483 l 854 307 l 854 903 l 738 922 l 738 1032 l 1106 1032 l 1106 922 l 1004 903 l 1004 0 l 753 0 l 378 606 l 294 789 l 294 119 l 449 103 l 449 0 l 38 0 l 38 103 l 146 118 z "},"O":{"ha":1021,"x_min":32,"x_max":989,"o":"m 503 -15 q 144 125 257 -15 q 32 517 32 265 q 90 796 32 676 q 257 981 149 915 q 514 1046 365 1046 q 876 915 763 1046 q 989 536 989 783 q 930 249 989 374 q 760 54 871 124 q 503 -15 650 -15 m 511 944 q 342 518 342 944 q 385 188 342 289 q 510 88 428 88 q 635 202 592 88 q 679 535 679 317 q 637 853 679 761 q 511 944 594 944 z "},"Ó":{"ha":1021,"x_min":32,"x_max":989,"o":"m 503 -15 q 144 125 257 -15 q 32 517 32 265 q 90 796 32 676 q 257 981 149 915 q 514 1046 365 1046 q 876 915 763 1046 q 989 536 989 783 q 930 249 989 374 q 760 54 871 124 q 503 -15 650 -15 m 511 944 q 342 518 342 944 q 385 188 342 289 q 510 88 428 88 q 635 202 592 88 q 679 535 679 317 q 637 853 679 761 q 511 944 594 944 m 399 1150 l 599 1365 l 764 1257 q 622 1144 706 1196 q 496 1081 539 1092 l 399 1150 z "},"Ŏ":{"ha":1028,"x_min":35,"x_max":992,"o":"m 518 1096 q 366 1128 428 1096 q 274 1213 304 1160 q 243 1331 243 1267 q 244 1363 243 1353 l 371 1363 q 372 1349 371 1354 q 412 1282 378 1311 q 519 1253 446 1253 q 624 1281 593 1253 q 660 1349 656 1310 q 661 1363 661 1354 l 790 1363 q 792 1332 792 1353 q 760 1215 792 1269 q 667 1128 729 1161 q 518 1096 606 1096 m 506 -15 q 147 125 260 -15 q 35 517 35 265 q 93 796 35 676 q 260 981 151 915 q 517 1046 368 1046 q 878 915 765 1046 q 992 536 992 783 q 933 249 992 374 q 763 54 874 124 q 506 -15 653 -15 m 514 944 q 344 518 344 944 q 388 188 344 289 q 513 88 431 88 q 638 202 594 88 q 682 535 682 317 q 640 853 682 761 q 514 944 597 944 z "},"Ô":{"ha":1021,"x_min":32,"x_max":989,"o":"m 442 1360 l 583 1360 l 801 1157 l 717 1082 l 511 1208 l 306 1082 l 221 1156 l 442 1360 m 503 -15 q 144 125 257 -15 q 32 517 32 265 q 90 796 32 676 q 257 981 149 915 q 514 1046 365 1046 q 876 915 763 1046 q 989 536 989 783 q 930 249 989 374 q 760 54 871 124 q 503 -15 650 -15 m 511 944 q 342 518 342 944 q 385 188 342 289 q 510 88 428 88 q 635 202 592 88 q 679 535 679 317 q 637 853 679 761 q 511 944 594 944 z "},"Ố":{"ha":1021,"x_min":32,"x_max":1085,"o":"m 503 -15 q 144 125 257 -15 q 32 517 32 265 q 90 796 32 676 q 257 981 149 915 q 514 1046 365 1046 q 876 915 763 1046 q 989 536 989 783 q 930 249 989 374 q 760 54 871 124 q 503 -15 650 -15 m 511 944 q 342 518 342 944 q 385 188 342 289 q 510 88 428 88 q 635 202 592 88 q 679 535 679 317 q 637 853 679 761 q 511 944 594 944 m 442 1360 l 583 1360 l 801 1157 l 717 1082 l 511 1208 l 306 1082 l 221 1156 l 442 1360 m 719 1325 l 919 1540 l 1085 1432 q 943 1319 1026 1371 q 817 1256 860 1267 l 719 1325 z "},"Ộ":{"ha":1021,"x_min":32,"x_max":989,"o":"m 503 -15 q 144 125 257 -15 q 32 517 32 265 q 90 796 32 676 q 257 981 149 915 q 514 1046 365 1046 q 876 915 763 1046 q 989 536 989 783 q 930 249 989 374 q 760 54 871 124 q 503 -15 650 -15 m 511 944 q 342 518 342 944 q 385 188 342 289 q 510 88 428 88 q 635 202 592 88 q 679 535 679 317 q 637 853 679 761 q 511 944 594 944 m 503 -278 q 429 -251 458 -278 q 400 -183 400 -224 q 431 -103 400 -135 q 515 -72 463 -72 q 594 -99 567 -72 q 622 -167 622 -125 q 592 -247 622 -215 q 504 -278 561 -278 l 503 -278 m 442 1369 l 583 1369 l 801 1167 l 717 1092 l 511 1218 l 306 1092 l 221 1165 l 442 1369 z "},"Ồ":{"ha":1021,"x_min":32,"x_max":989,"o":"m 503 -15 q 144 125 257 -15 q 32 517 32 265 q 90 796 32 676 q 257 981 149 915 q 514 1046 365 1046 q 876 915 763 1046 q 989 536 989 783 q 930 249 989 374 q 760 54 871 124 q 503 -15 650 -15 m 511 944 q 342 518 342 944 q 385 188 342 289 q 510 88 428 88 q 635 202 592 88 q 679 535 679 317 q 637 853 679 761 q 511 944 594 944 m 442 1360 l 583 1360 l 801 1157 l 717 1082 l 511 1208 l 306 1082 l 221 1156 l 442 1360 m 793 1322 q 660 1389 747 1333 q 528 1499 574 1444 l 693 1607 l 893 1392 l 793 1322 z "},"Ổ":{"ha":1021,"x_min":32,"x_max":989,"o":"m 503 -15 q 144 125 257 -15 q 32 517 32 265 q 90 796 32 676 q 257 981 149 915 q 514 1046 365 1046 q 876 915 763 1046 q 989 536 989 783 q 930 249 989 374 q 760 54 871 124 q 503 -15 650 -15 m 511 944 q 342 518 342 944 q 385 188 342 289 q 510 88 428 88 q 635 202 592 88 q 679 535 679 317 q 637 853 679 761 q 511 944 594 944 m 442 1360 l 583 1360 l 801 1157 l 717 1082 l 511 1208 l 306 1082 l 221 1156 l 442 1360 m 769 1264 q 746 1298 761 1272 q 731 1333 731 1324 q 738 1358 731 1349 q 761 1381 744 1368 q 792 1419 788 1399 l 792 1424 q 779 1460 792 1447 q 735 1474 767 1474 q 696 1471 701 1474 l 689 1617 q 709 1621 692 1618 q 740 1624 726 1624 q 835 1605 785 1624 q 922 1549 886 1586 q 957 1457 957 1511 q 939 1402 957 1425 q 900 1363 921 1379 q 871 1340 879 1347 q 851 1300 851 1324 q 856 1272 851 1289 l 769 1264 z "},"Ỗ":{"ha":1021,"x_min":32,"x_max":989,"o":"m 503 -15 q 144 125 257 -15 q 32 517 32 265 q 90 796 32 676 q 257 981 149 915 q 514 1046 365 1046 q 876 915 763 1046 q 989 536 989 783 q 930 249 989 374 q 760 54 871 124 q 503 -15 650 -15 m 511 944 q 342 518 342 944 q 385 188 342 289 q 510 88 428 88 q 635 202 592 88 q 679 535 679 317 q 637 853 679 761 q 511 944 594 944 m 442 1360 l 583 1360 l 801 1157 l 717 1082 l 511 1208 l 306 1082 l 221 1156 l 442 1360 m 663 1411 q 585 1426 619 1411 q 508 1468 551 1440 q 444 1503 468 1492 q 393 1514 421 1514 q 336 1497 358 1514 q 283 1449 314 1481 l 211 1522 q 297 1624 243 1581 q 433 1668 351 1668 q 513 1653 479 1668 q 589 1610 546 1639 q 646 1577 625 1588 q 692 1567 667 1567 q 749 1581 728 1567 q 783 1610 769 1594 q 803 1632 797 1626 l 875 1558 q 788 1451 838 1492 q 663 1411 738 1411 z "},"Ö":{"ha":1028,"x_min":35,"x_max":992,"o":"m 310 1103 q 231 1138 263 1103 q 200 1219 200 1172 q 234 1319 200 1281 q 333 1357 268 1357 l 335 1357 q 427 1324 396 1357 q 458 1242 458 1292 q 422 1141 458 1179 q 311 1103 385 1103 l 310 1103 m 683 1103 q 605 1140 636 1103 q 574 1219 574 1176 q 607 1319 574 1281 q 706 1357 640 1357 l 707 1357 q 800 1324 769 1357 q 831 1242 831 1292 q 794 1141 831 1179 q 683 1103 758 1103 m 506 -15 q 147 125 260 -15 q 35 517 35 265 q 93 796 35 676 q 260 981 151 915 q 517 1046 368 1046 q 878 915 765 1046 q 992 536 992 783 q 933 249 992 374 q 763 54 874 124 q 506 -15 653 -15 m 514 944 q 344 518 344 944 q 388 188 344 289 q 513 88 431 88 q 638 202 594 88 q 682 535 682 317 q 640 853 682 761 q 514 944 597 944 z "},"Ọ":{"ha":1021,"x_min":32,"x_max":989,"o":"m 503 -15 q 144 125 257 -15 q 32 517 32 265 q 90 796 32 676 q 257 981 149 915 q 514 1046 365 1046 q 876 915 763 1046 q 989 536 989 783 q 930 249 989 374 q 760 54 871 124 q 503 -15 650 -15 m 511 944 q 342 518 342 944 q 385 188 342 289 q 510 88 428 88 q 635 202 592 88 q 679 535 679 317 q 637 853 679 761 q 511 944 594 944 m 503 -278 q 429 -251 458 -278 q 400 -183 400 -224 q 431 -103 400 -135 q 515 -72 463 -72 q 594 -99 567 -72 q 622 -167 622 -125 q 592 -247 622 -215 q 504 -278 561 -278 l 503 -278 z "},"Ò":{"ha":1021,"x_min":32,"x_max":989,"o":"m 503 -15 q 144 125 257 -15 q 32 517 32 265 q 90 796 32 676 q 257 981 149 915 q 514 1046 365 1046 q 876 915 763 1046 q 989 536 989 783 q 930 249 989 374 q 760 54 871 124 q 503 -15 650 -15 m 511 944 q 342 518 342 944 q 385 188 342 289 q 510 88 428 88 q 635 202 592 88 q 679 535 679 317 q 637 853 679 761 q 511 944 594 944 m 518 1081 q 385 1147 472 1092 q 253 1257 299 1203 l 418 1365 l 618 1150 l 518 1081 z "},"Ỏ":{"ha":1021,"x_min":32,"x_max":989,"o":"m 503 -15 q 144 125 257 -15 q 32 517 32 265 q 90 796 32 676 q 257 981 149 915 q 514 1046 365 1046 q 876 915 763 1046 q 989 536 989 783 q 930 249 989 374 q 760 54 871 124 q 503 -15 650 -15 m 511 944 q 342 518 342 944 q 385 188 342 289 q 510 88 428 88 q 635 202 592 88 q 679 535 679 317 q 637 853 679 761 q 511 944 594 944 m 485 1097 q 461 1131 476 1106 q 446 1167 446 1157 q 453 1192 446 1182 q 476 1214 460 1201 q 507 1253 503 1232 l 507 1257 q 494 1294 507 1281 q 450 1307 482 1307 q 411 1304 417 1307 l 404 1450 q 424 1454 407 1451 q 456 1457 442 1457 q 551 1438 500 1457 q 637 1382 601 1419 q 672 1290 672 1344 q 654 1235 672 1258 q 615 1197 636 1213 q 586 1174 594 1181 q 567 1133 567 1157 q 571 1106 567 1122 l 485 1097 z "},"Ơ":{"ha":1021,"x_min":32,"x_max":989,"o":"m 851 939 q 989 536 989 813 q 930 249 989 374 q 760 54 871 124 q 503 -15 650 -15 q 144 125 257 -15 q 32 517 32 265 q 90 796 32 676 q 257 981 149 915 q 514 1046 365 1046 q 658 1032 585 1046 q 762 1076 729 1035 q 803 1174 794 1118 q 804 1197 806 1192 l 965 1197 q 968 1167 968 1175 q 937 1035 968 1093 q 851 939 906 978 m 510 88 q 635 202 592 88 q 679 535 679 317 q 637 853 679 761 q 511 944 594 944 q 342 518 342 944 q 385 188 342 289 q 510 88 428 88 z "},"Ớ":{"ha":1021,"x_min":32,"x_max":989,"o":"m 851 939 q 989 536 989 813 q 930 249 989 374 q 760 54 871 124 q 503 -15 650 -15 q 144 125 257 -15 q 32 517 32 265 q 90 796 32 676 q 257 981 149 915 q 514 1046 365 1046 q 658 1032 585 1046 q 762 1076 729 1035 q 803 1174 794 1118 q 804 1197 806 1192 l 965 1197 q 968 1167 968 1175 q 937 1035 968 1093 q 851 939 906 978 m 510 88 q 635 202 592 88 q 679 535 679 317 q 637 853 679 761 q 511 944 594 944 q 342 518 342 944 q 385 188 342 289 q 510 88 428 88 m 399 1150 l 599 1365 l 764 1257 q 622 1144 706 1196 q 496 1081 539 1092 l 399 1150 z "},"Ợ":{"ha":1021,"x_min":32,"x_max":989,"o":"m 851 939 q 989 536 989 813 q 930 249 989 374 q 760 54 871 124 q 503 -15 650 -15 q 144 125 257 -15 q 32 517 32 265 q 90 796 32 676 q 257 981 149 915 q 514 1046 365 1046 q 658 1032 585 1046 q 762 1076 729 1035 q 803 1174 794 1118 q 804 1197 806 1192 l 965 1197 q 968 1167 968 1175 q 937 1035 968 1093 q 851 939 906 978 m 510 88 q 635 202 592 88 q 679 535 679 317 q 637 853 679 761 q 511 944 594 944 q 342 518 342 944 q 385 188 342 289 q 510 88 428 88 m 503 -278 q 429 -251 458 -278 q 400 -183 400 -224 q 431 -103 400 -135 q 515 -72 463 -72 q 594 -99 567 -72 q 622 -167 622 -125 q 592 -247 622 -215 q 504 -278 561 -278 l 503 -278 z "},"Ờ":{"ha":1021,"x_min":32,"x_max":989,"o":"m 851 939 q 989 536 989 813 q 930 249 989 374 q 760 54 871 124 q 503 -15 650 -15 q 144 125 257 -15 q 32 517 32 265 q 90 796 32 676 q 257 981 149 915 q 514 1046 365 1046 q 658 1032 585 1046 q 762 1076 729 1035 q 803 1174 794 1118 q 804 1197 806 1192 l 965 1197 q 968 1167 968 1175 q 937 1035 968 1093 q 851 939 906 978 m 510 88 q 635 202 592 88 q 679 535 679 317 q 637 853 679 761 q 511 944 594 944 q 342 518 342 944 q 385 188 342 289 q 510 88 428 88 m 518 1081 q 385 1147 472 1092 q 253 1257 299 1203 l 418 1365 l 618 1150 l 518 1081 z "},"Ở":{"ha":1021,"x_min":32,"x_max":989,"o":"m 851 939 q 989 536 989 813 q 930 249 989 374 q 760 54 871 124 q 503 -15 650 -15 q 144 125 257 -15 q 32 517 32 265 q 90 796 32 676 q 257 981 149 915 q 514 1046 365 1046 q 658 1032 585 1046 q 762 1076 729 1035 q 803 1174 794 1118 q 804 1197 806 1192 l 965 1197 q 968 1167 968 1175 q 937 1035 968 1093 q 851 939 906 978 m 510 88 q 635 202 592 88 q 679 535 679 317 q 637 853 679 761 q 511 944 594 944 q 342 518 342 944 q 385 188 342 289 q 510 88 428 88 m 485 1097 q 461 1131 476 1106 q 446 1167 446 1157 q 453 1192 446 1182 q 476 1214 460 1201 q 507 1253 503 1232 l 507 1257 q 494 1294 507 1281 q 450 1307 482 1307 q 411 1304 417 1307 l 404 1450 q 424 1454 407 1451 q 456 1457 442 1457 q 551 1438 500 1457 q 637 1382 601 1419 q 672 1290 672 1344 q 654 1235 672 1258 q 615 1197 636 1213 q 586 1174 594 1181 q 567 1133 567 1157 q 571 1106 567 1122 l 485 1097 z "},"Ỡ":{"ha":1021,"x_min":32,"x_max":989,"o":"m 851 939 q 989 536 989 813 q 930 249 989 374 q 760 54 871 124 q 503 -15 650 -15 q 144 125 257 -15 q 32 517 32 265 q 90 796 32 676 q 257 981 149 915 q 514 1046 365 1046 q 658 1032 585 1046 q 762 1076 729 1035 q 803 1174 794 1118 q 804 1197 806 1192 l 965 1197 q 968 1167 968 1175 q 937 1035 968 1093 q 851 939 906 978 m 510 88 q 635 202 592 88 q 679 535 679 317 q 637 853 679 761 q 511 944 594 944 q 342 518 342 944 q 385 188 342 289 q 510 88 428 88 m 610 1142 q 533 1156 567 1142 q 456 1199 499 1171 q 392 1233 415 1222 q 340 1244 368 1244 q 283 1228 306 1244 q 231 1179 261 1211 l 158 1253 q 244 1355 190 1311 q 381 1399 299 1399 q 460 1384 426 1399 q 536 1340 493 1369 q 593 1308 572 1318 q 639 1297 614 1297 q 696 1311 675 1297 q 731 1341 717 1325 q 750 1363 744 1357 l 822 1289 q 735 1182 785 1222 q 610 1142 685 1142 z "},"Ő":{"ha":1021,"x_min":32,"x_max":989,"o":"m 556 1264 q 443 1156 514 1211 q 318 1075 372 1101 l 217 1160 l 417 1365 l 556 1264 m 949 1267 q 841 1159 915 1218 q 713 1075 767 1100 l 610 1160 l 814 1365 l 949 1267 m 503 -15 q 144 125 257 -15 q 32 517 32 265 q 90 796 32 676 q 257 981 149 915 q 514 1046 365 1046 q 876 915 763 1046 q 989 536 989 783 q 930 249 989 374 q 760 54 871 124 q 503 -15 650 -15 m 511 944 q 342 518 342 944 q 385 188 342 289 q 510 88 428 88 q 635 202 592 88 q 679 535 679 317 q 637 853 679 761 q 511 944 594 944 z "},"Ō":{"ha":1028,"x_min":35,"x_max":992,"o":"m 751 1301 l 751 1151 l 279 1151 l 279 1301 l 751 1301 m 506 -15 q 147 125 260 -15 q 35 517 35 265 q 93 796 35 676 q 260 981 151 915 q 517 1046 368 1046 q 878 915 765 1046 q 992 536 992 783 q 933 249 992 374 q 763 54 874 124 q 506 -15 653 -15 m 514 944 q 344 518 344 944 q 388 188 344 289 q 513 88 431 88 q 638 202 594 88 q 682 535 682 317 q 640 853 682 761 q 514 944 597 944 z "},"Ø":{"ha":1021,"x_min":32,"x_max":989,"o":"m 249 40 q 32 517 32 157 q 90 796 32 676 q 257 981 149 915 q 514 1046 365 1046 q 656 1033 589 1046 l 718 1194 l 833 1161 l 769 994 q 989 536 989 886 q 931 250 989 375 q 763 55 872 125 q 506 -15 653 -15 q 369 -3 431 -15 l 299 -169 l 174 -136 l 249 40 m 511 944 q 342 518 342 944 q 364 253 342 347 l 613 894 q 511 944 575 944 m 679 535 q 657 790 679 690 l 404 147 q 510 88 444 88 q 635 202 592 88 q 679 535 679 317 z "},"Õ":{"ha":1028,"x_min":35,"x_max":992,"o":"m 635 1104 q 558 1119 592 1104 q 481 1161 524 1133 q 417 1196 440 1185 q 365 1207 393 1207 q 308 1190 331 1207 q 256 1142 286 1174 l 183 1215 q 269 1317 215 1274 q 406 1361 324 1361 q 485 1347 451 1361 q 561 1303 518 1332 q 618 1270 597 1281 q 664 1260 639 1260 q 721 1274 700 1260 q 756 1303 742 1288 q 775 1325 769 1319 l 847 1251 q 760 1144 810 1185 q 635 1104 710 1104 m 506 -15 q 147 125 260 -15 q 35 517 35 265 q 93 796 35 676 q 260 981 151 915 q 517 1046 368 1046 q 878 915 765 1046 q 992 536 992 783 q 933 249 992 374 q 763 54 874 124 q 506 -15 653 -15 m 514 944 q 344 518 344 944 q 388 188 344 289 q 513 88 431 88 q 638 202 594 88 q 682 535 682 317 q 640 853 682 761 q 514 944 597 944 z "},"Œ":{"ha":1450,"x_min":32,"x_max":1446,"o":"m 653 25 q 507 -11 589 -11 q 149 131 265 -11 q 32 517 32 272 q 89 797 32 678 q 256 982 146 917 q 519 1047 365 1047 q 653 1025 592 1047 l 653 1032 l 1342 1032 l 1361 772 l 1235 772 l 1185 914 l 942 932 l 942 585 l 1082 590 l 1107 701 l 1219 701 l 1219 339 l 1107 339 l 1082 460 l 942 464 l 942 106 l 1214 126 l 1317 303 l 1446 265 l 1401 0 l 653 0 l 653 25 m 513 88 q 598 136 563 88 q 653 274 633 185 l 653 797 q 599 913 633 881 q 508 946 564 946 q 340 518 340 946 q 513 88 340 88 z "},"P":{"ha":942,"x_min":40,"x_max":925,"o":"m 142 901 l 43 922 l 43 1032 l 289 1032 q 361 1035 306 1032 q 518 1039 450 1040 q 763 1003 674 1039 q 888 899 851 967 q 925 724 925 831 q 818 442 925 542 q 501 342 711 342 q 424 346 457 342 l 424 118 l 603 103 l 603 0 l 40 0 l 40 103 l 142 118 l 142 901 m 422 451 q 493 444 443 444 q 601 507 563 444 q 640 717 640 569 q 492 938 640 938 q 438 934 451 938 q 422 929 425 931 l 422 451 z "},"Ṗ":{"ha":942,"x_min":40,"x_max":925,"o":"m 142 901 l 43 922 l 43 1032 l 289 1032 q 361 1035 306 1032 q 518 1039 450 1040 q 763 1003 674 1039 q 888 899 851 967 q 925 724 925 831 q 818 442 925 542 q 501 342 711 342 q 424 346 457 342 l 424 118 l 603 103 l 603 0 l 40 0 l 40 103 l 142 118 l 142 901 m 422 451 q 493 444 443 444 q 601 507 563 444 q 640 717 640 569 q 492 938 640 938 q 438 934 451 938 q 422 929 425 931 l 422 451 m 514 1111 q 422 1144 458 1111 q 385 1225 385 1176 q 422 1322 385 1288 q 528 1357 460 1357 q 631 1326 593 1357 q 668 1244 668 1294 q 630 1146 668 1181 q 514 1111 592 1111 z "},"Þ":{"ha":947,"x_min":35,"x_max":924,"o":"m 142 901 l 35 924 l 35 1032 l 535 1032 l 536 924 l 424 901 l 424 801 l 481 807 q 618 815 561 815 q 848 747 772 815 q 924 538 924 679 q 834 294 924 375 q 581 214 744 214 q 424 224 521 214 l 424 118 l 563 101 l 563 0 l 36 0 l 36 101 l 142 118 l 142 901 m 519 317 q 599 376 568 317 q 629 528 629 435 q 599 655 629 603 q 503 707 568 707 q 424 697 453 707 l 424 322 q 484 317 454 317 q 519 317 514 317 z "},"Q":{"ha":1021,"x_min":32,"x_max":1297,"o":"m 1099 -253 q 981 -233 1038 -253 q 879 -183 925 -212 q 765 -106 833 -154 q 674 -42 707 -64 q 606 -6 640 -21 q 503 -15 547 -15 q 144 125 257 -15 q 32 517 32 265 q 90 796 32 676 q 257 981 149 915 q 514 1046 365 1046 q 876 915 763 1046 q 989 536 989 783 q 928 244 989 371 q 756 50 867 118 q 940 -19 817 35 q 1082 -78 1026 -58 q 1186 -97 1138 -97 q 1274 -87 1250 -97 l 1297 -156 q 1214 -231 1257 -210 q 1099 -253 1171 -253 m 510 88 q 635 202 592 88 q 679 535 679 317 q 637 853 679 761 q 511 944 594 944 q 342 518 342 944 q 385 188 342 289 q 510 88 428 88 z "},"R":{"ha":1035,"x_min":40,"x_max":1046,"o":"m 40 103 l 142 118 l 142 901 l 43 922 l 43 1032 l 274 1032 q 379 1036 328 1032 q 517 1040 496 1040 q 760 1013 669 1040 q 891 924 850 985 q 932 763 932 864 q 884 589 932 671 q 739 476 836 507 q 856 390 813 454 q 943 224 900 325 q 981 144 967 169 q 1013 115 996 119 l 1046 103 l 1046 0 l 746 0 q 705 44 725 0 q 656 179 685 88 q 590 355 619 290 q 522 432 560 419 l 424 432 l 424 118 l 540 103 l 540 0 l 40 0 l 40 103 m 501 531 q 636 754 636 531 q 602 896 636 853 q 493 939 568 939 q 424 933 443 939 l 424 535 q 465 531 433 531 q 501 531 497 531 z "},"Ŕ":{"ha":1035,"x_min":40,"x_max":1046,"o":"m 40 103 l 142 118 l 142 901 l 43 922 l 43 1032 l 274 1032 q 379 1036 328 1032 q 517 1040 496 1040 q 760 1013 669 1040 q 891 924 850 985 q 932 763 932 864 q 884 589 932 671 q 739 476 836 507 q 856 390 813 454 q 943 224 900 325 q 981 144 967 169 q 1013 115 996 119 l 1046 103 l 1046 0 l 746 0 q 705 44 725 0 q 656 179 685 88 q 590 355 619 290 q 522 432 560 419 l 424 432 l 424 118 l 540 103 l 540 0 l 40 0 l 40 103 m 501 531 q 636 754 636 531 q 602 896 636 853 q 493 939 568 939 q 424 933 443 939 l 424 535 q 465 531 433 531 q 501 531 497 531 m 406 1150 l 606 1365 l 771 1257 q 629 1144 713 1196 q 503 1081 546 1092 l 406 1150 z "},"Ř":{"ha":1035,"x_min":40,"x_max":1046,"o":"m 40 103 l 142 118 l 142 901 l 43 922 l 43 1032 l 274 1032 q 379 1036 328 1032 q 517 1040 496 1040 q 760 1013 669 1040 q 891 924 850 985 q 932 763 932 864 q 884 589 932 671 q 739 476 836 507 q 856 390 813 454 q 943 224 900 325 q 981 144 967 169 q 1013 115 996 119 l 1046 103 l 1046 0 l 746 0 q 705 44 725 0 q 656 179 685 88 q 590 355 619 290 q 522 432 560 419 l 424 432 l 424 118 l 540 103 l 540 0 l 40 0 l 40 103 m 501 531 q 636 754 636 531 q 602 896 636 853 q 493 939 568 939 q 424 933 443 939 l 424 535 q 465 531 433 531 q 501 531 497 531 m 319 1365 l 511 1247 l 717 1365 l 801 1292 l 582 1096 l 440 1096 l 233 1293 l 319 1365 z "},"Ŗ":{"ha":1035,"x_min":40,"x_max":1046,"o":"m 40 103 l 142 118 l 142 901 l 43 922 l 43 1032 l 274 1032 q 379 1036 328 1032 q 517 1040 496 1040 q 760 1013 669 1040 q 891 924 850 985 q 932 763 932 864 q 884 589 932 671 q 739 476 836 507 q 856 390 813 454 q 943 224 900 325 q 981 144 967 169 q 1013 115 996 119 l 1046 103 l 1046 0 l 746 0 q 705 44 725 0 q 656 179 685 88 q 590 355 619 290 q 522 432 560 419 l 424 432 l 424 118 l 540 103 l 540 0 l 40 0 l 40 103 m 501 531 q 636 754 636 531 q 602 896 636 853 q 493 939 568 939 q 424 933 443 939 l 424 535 q 465 531 433 531 q 501 531 497 531 m 703 -171 q 681 -262 703 -217 q 631 -340 660 -308 q 581 -379 601 -372 l 578 -379 l 494 -361 l 490 -350 q 511 -319 503 -344 q 519 -268 519 -293 q 494 -219 519 -235 q 461 -149 461 -196 q 499 -80 461 -101 q 582 -58 536 -58 l 586 -58 q 671 -87 639 -58 q 703 -171 703 -117 z "},"S":{"ha":856,"x_min":69,"x_max":833,"o":"m 425 -15 q 278 -3 346 -15 q 138 29 210 10 q 69 44 90 43 l 82 308 l 232 308 l 271 133 q 319 104 283 117 q 407 92 354 92 q 518 124 482 92 q 554 214 554 157 q 502 314 554 272 q 326 414 450 356 q 147 544 221 464 q 72 754 72 624 q 112 898 72 832 q 236 1005 151 964 q 453 1046 321 1046 q 592 1035 532 1046 q 708 1008 653 1025 q 735 1002 717 1007 q 763 997 753 997 l 754 743 l 607 743 l 574 913 q 538 933 567 924 q 469 943 508 943 q 369 909 401 943 q 338 828 338 875 q 367 748 338 783 q 441 685 397 713 q 561 621 485 658 l 586 608 q 763 488 692 558 q 833 304 833 418 q 743 81 833 176 q 425 -15 653 -15 z "},"Ś":{"ha":856,"x_min":69,"x_max":833,"o":"m 425 -15 q 278 -3 346 -15 q 138 29 210 10 q 69 44 90 43 l 82 308 l 232 308 l 271 133 q 319 104 283 117 q 407 92 354 92 q 518 124 482 92 q 554 214 554 157 q 502 314 554 272 q 326 414 450 356 q 147 544 221 464 q 72 754 72 624 q 112 898 72 832 q 236 1005 151 964 q 453 1046 321 1046 q 592 1035 532 1046 q 708 1008 653 1025 q 735 1002 717 1007 q 763 997 753 997 l 754 743 l 607 743 l 574 913 q 538 933 567 924 q 469 943 508 943 q 369 909 401 943 q 338 828 338 875 q 367 748 338 783 q 441 685 397 713 q 561 621 485 658 l 586 608 q 763 488 692 558 q 833 304 833 418 q 743 81 833 176 q 425 -15 653 -15 m 357 1150 l 557 1365 l 722 1257 q 581 1144 664 1196 q 454 1081 497 1092 l 357 1150 z "},"Š":{"ha":856,"x_min":69,"x_max":833,"o":"m 261 1365 l 453 1247 l 658 1365 l 743 1292 l 524 1096 l 382 1096 l 175 1293 l 261 1365 m 425 -15 q 278 -3 346 -15 q 138 29 210 10 q 69 44 90 43 l 82 308 l 232 308 l 271 133 q 319 104 283 117 q 407 92 354 92 q 518 124 482 92 q 554 214 554 157 q 502 314 554 272 q 326 414 450 356 q 147 544 221 464 q 72 754 72 624 q 112 898 72 832 q 236 1005 151 964 q 453 1046 321 1046 q 592 1035 532 1046 q 708 1008 653 1025 q 735 1002 717 1007 q 763 997 753 997 l 754 743 l 607 743 l 574 913 q 538 933 567 924 q 469 943 508 943 q 369 909 401 943 q 338 828 338 875 q 367 748 338 783 q 441 685 397 713 q 561 621 485 658 l 586 608 q 763 488 692 558 q 833 304 833 418 q 743 81 833 176 q 425 -15 653 -15 z "},"Ŝ":{"ha":856,"x_min":69,"x_max":833,"o":"m 383 1360 l 525 1360 l 743 1157 l 658 1082 l 453 1208 l 247 1082 l 163 1156 l 383 1360 m 425 -15 q 278 -3 346 -15 q 138 29 210 10 q 69 44 90 43 l 82 308 l 232 308 l 271 133 q 319 104 283 117 q 407 92 354 92 q 518 124 482 92 q 554 214 554 157 q 502 314 554 272 q 326 414 450 356 q 147 544 221 464 q 72 754 72 624 q 112 898 72 832 q 236 1005 151 964 q 453 1046 321 1046 q 592 1035 532 1046 q 708 1008 653 1025 q 735 1002 717 1007 q 763 997 753 997 l 754 743 l 607 743 l 574 913 q 538 933 567 924 q 469 943 508 943 q 369 909 401 943 q 338 828 338 875 q 367 748 338 783 q 441 685 397 713 q 561 621 485 658 l 586 608 q 763 488 692 558 q 833 304 833 418 q 743 81 833 176 q 425 -15 653 -15 z "},"Ș":{"ha":856,"x_min":69,"x_max":833,"o":"m 425 -15 q 278 -3 346 -15 q 138 29 210 10 q 69 44 90 43 l 82 308 l 232 308 l 271 133 q 319 104 283 117 q 407 92 354 92 q 518 124 482 92 q 554 214 554 157 q 502 314 554 272 q 326 414 450 356 q 147 544 221 464 q 72 754 72 624 q 112 898 72 832 q 236 1005 151 964 q 453 1046 321 1046 q 592 1035 532 1046 q 708 1008 653 1025 q 735 1002 717 1007 q 763 997 753 997 l 754 743 l 607 743 l 574 913 q 538 933 567 924 q 469 943 508 943 q 369 909 401 943 q 338 828 338 875 q 367 748 338 783 q 441 685 397 713 q 561 621 485 658 l 586 608 q 763 488 692 558 q 833 304 833 418 q 743 81 833 176 q 425 -15 653 -15 m 563 -171 q 541 -262 563 -217 q 490 -340 519 -308 q 440 -379 461 -372 l 438 -379 l 354 -361 l 350 -350 q 371 -319 363 -344 q 379 -268 379 -293 q 354 -219 379 -235 q 321 -149 321 -196 q 358 -80 321 -101 q 442 -58 396 -58 l 446 -58 q 531 -87 499 -58 q 563 -171 563 -117 z "},"Ṡ":{"ha":856,"x_min":69,"x_max":833,"o":"m 425 -15 q 278 -3 346 -15 q 138 29 210 10 q 69 44 90 43 l 82 308 l 232 308 l 271 133 q 319 104 283 117 q 407 92 354 92 q 518 124 482 92 q 554 214 554 157 q 502 314 554 272 q 326 414 450 356 q 147 544 221 464 q 72 754 72 624 q 112 898 72 832 q 236 1005 151 964 q 453 1046 321 1046 q 592 1035 532 1046 q 708 1008 653 1025 q 735 1002 717 1007 q 763 997 753 997 l 754 743 l 607 743 l 574 913 q 538 933 567 924 q 469 943 508 943 q 369 909 401 943 q 338 828 338 875 q 367 748 338 783 q 441 685 397 713 q 561 621 485 658 l 586 608 q 763 488 692 558 q 833 304 833 418 q 743 81 833 176 q 425 -15 653 -15 m 457 1111 q 365 1144 401 1111 q 328 1225 328 1176 q 365 1322 328 1288 q 471 1357 403 1357 q 574 1326 536 1357 q 611 1244 611 1294 q 573 1146 611 1181 q 457 1111 535 1111 z "},"ẞ":{"ha":1051,"x_min":8,"x_max":1057,"o":"m 79 118 l 79 615 q 215 934 79 822 q 596 1046 351 1046 q 746 1034 685 1046 q 871 1003 807 1022 q 897 994 879 1000 q 929 986 915 989 l 928 874 l 699 646 q 953 549 849 629 q 1057 318 1057 469 q 967 65 1057 147 q 697 -17 876 -17 q 594 -6 636 -17 q 503 22 551 4 q 477 31 499 24 q 440 39 456 39 l 446 290 l 575 290 l 613 117 q 640 95 622 103 q 681 88 658 88 q 747 133 721 88 q 774 283 774 179 q 742 406 774 342 q 650 517 710 471 q 511 571 590 564 l 511 635 l 697 910 q 572 944 647 944 q 406 864 461 944 q 351 633 351 783 l 351 0 l 8 0 l 8 103 l 79 118 z "},"Ə":{"ha":975,"x_min":42,"x_max":946,"o":"m 454 -15 q 253 26 344 -15 q 103 158 161 68 q 42 386 46 249 q 47 491 42 433 q 57 575 51 549 l 656 574 q 597 840 647 742 q 453 939 546 939 q 376 925 403 939 q 340 895 350 911 q 310 835 331 879 l 285 744 l 92 753 l 90 989 q 189 1007 124 990 q 330 1033 267 1024 q 475 1043 393 1043 q 719 984 613 1043 q 886 809 826 925 q 946 526 946 693 q 883 232 946 354 q 710 47 821 110 q 454 -15 599 -15 m 486 111 q 617 194 575 111 q 658 447 658 276 l 324 449 q 322 376 322 424 q 359 190 322 269 q 486 111 396 111 z "},"T":{"ha":1029,"x_min":21,"x_max":1001,"o":"m 376 119 l 376 915 l 235 908 l 171 589 l 21 589 l 43 1032 l 983 1032 l 1001 589 l 860 589 l 792 908 l 658 915 l 658 119 l 850 103 l 850 0 l 201 0 l 201 103 l 376 119 z "},"Ŧ":{"ha":1038,"x_min":25,"x_max":1006,"o":"m 379 489 l 379 915 l 239 908 l 175 589 l 25 589 l 47 1032 l 986 1032 l 1006 589 l 864 589 l 796 908 l 663 915 l 663 489 l 799 489 l 799 372 l 663 372 l 663 119 l 854 103 l 854 0 l 206 0 l 206 103 l 379 119 l 379 372 l 239 372 l 239 489 l 379 489 z "},"Ť":{"ha":1029,"x_min":21,"x_max":1001,"o":"m 329 1365 l 521 1247 l 726 1365 l 811 1292 l 592 1096 l 450 1096 l 243 1293 l 329 1365 m 376 119 l 376 915 l 235 908 l 171 589 l 21 589 l 43 1032 l 983 1032 l 1001 589 l 860 589 l 792 908 l 658 915 l 658 119 l 850 103 l 850 0 l 201 0 l 201 103 l 376 119 z "},"Ţ":{"ha":1029,"x_min":21,"x_max":1001,"o":"m 658 915 l 658 119 l 850 103 l 850 0 l 571 0 q 638 -87 607 -33 q 665 -201 669 -142 q 606 -330 660 -293 q 444 -367 553 -367 q 392 -360 421 -367 q 346 -346 364 -354 l 346 -201 q 401 -210 375 -210 q 455 -203 436 -210 q 484 -177 474 -197 q 494 -115 494 -157 q 481 -53 494 -86 q 454 0 468 -21 l 201 0 l 201 103 l 376 119 l 376 915 l 235 908 l 171 589 l 21 589 l 43 1032 l 983 1032 l 1001 589 l 860 589 l 792 908 l 658 915 z "},"Ț":{"ha":1029,"x_min":21,"x_max":1001,"o":"m 376 119 l 376 915 l 235 908 l 171 589 l 21 589 l 43 1032 l 983 1032 l 1001 589 l 860 589 l 792 908 l 658 915 l 658 119 l 850 103 l 850 0 l 201 0 l 201 103 l 376 119 m 638 -171 q 616 -262 638 -217 q 565 -340 594 -308 q 515 -379 536 -372 l 513 -379 l 429 -361 l 425 -350 q 446 -319 438 -344 q 454 -268 454 -293 q 429 -219 454 -235 q 396 -149 396 -196 q 433 -80 396 -101 q 517 -58 471 -58 l 521 -58 q 606 -87 574 -58 q 638 -171 638 -117 z "},"Ṫ":{"ha":1029,"x_min":21,"x_max":1001,"o":"m 376 119 l 376 915 l 235 908 l 171 589 l 21 589 l 43 1032 l 983 1032 l 1001 589 l 860 589 l 792 908 l 658 915 l 658 119 l 850 103 l 850 0 l 201 0 l 201 103 l 376 119 m 503 1111 q 410 1144 447 1111 q 374 1225 374 1176 q 411 1322 374 1288 q 517 1357 449 1357 q 619 1326 582 1357 q 657 1244 657 1294 q 619 1146 657 1181 q 503 1111 581 1111 z "},"U":{"ha":1038,"x_min":17,"x_max":1032,"o":"m 542 -11 q 208 90 319 -11 q 97 413 97 192 l 97 901 l 17 922 l 17 1032 l 504 1032 l 504 922 l 389 899 l 389 390 q 585 96 389 96 q 729 176 685 96 q 774 390 774 256 l 774 901 l 651 922 l 651 1032 l 1032 1032 l 1032 922 l 946 901 l 946 406 q 838 90 946 190 q 542 -11 729 -11 z "},"Ú":{"ha":1038,"x_min":17,"x_max":1032,"o":"m 542 -11 q 208 90 319 -11 q 97 413 97 192 l 97 901 l 17 922 l 17 1032 l 504 1032 l 504 922 l 389 899 l 389 390 q 585 96 389 96 q 729 176 685 96 q 774 390 774 256 l 774 901 l 651 922 l 651 1032 l 1032 1032 l 1032 922 l 946 901 l 946 406 q 838 90 946 190 q 542 -11 729 -11 m 463 1150 l 663 1365 l 828 1257 q 686 1144 769 1196 q 560 1081 603 1092 l 463 1150 z "},"Ŭ":{"ha":1038,"x_min":17,"x_max":1032,"o":"m 550 1096 q 398 1128 460 1096 q 306 1213 336 1160 q 275 1331 275 1267 q 276 1363 275 1353 l 403 1363 q 404 1349 403 1354 q 444 1282 410 1311 q 551 1253 478 1253 q 656 1281 625 1253 q 692 1349 688 1310 q 693 1363 693 1354 l 822 1363 q 824 1332 824 1353 q 792 1215 824 1269 q 699 1128 761 1161 q 550 1096 638 1096 m 542 -11 q 208 90 319 -11 q 97 413 97 192 l 97 901 l 17 922 l 17 1032 l 504 1032 l 504 922 l 389 899 l 389 390 q 585 96 389 96 q 729 176 685 96 q 774 390 774 256 l 774 901 l 651 922 l 651 1032 l 1032 1032 l 1032 922 l 946 901 l 946 406 q 838 90 946 190 q 542 -11 729 -11 z "},"Û":{"ha":1038,"x_min":17,"x_max":1032,"o":"m 476 1360 l 618 1360 l 836 1157 l 751 1082 l 546 1208 l 340 1082 l 256 1156 l 476 1360 m 542 -11 q 208 90 319 -11 q 97 413 97 192 l 97 901 l 17 922 l 17 1032 l 504 1032 l 504 922 l 389 899 l 389 390 q 585 96 389 96 q 729 176 685 96 q 774 390 774 256 l 774 901 l 651 922 l 651 1032 l 1032 1032 l 1032 922 l 946 901 l 946 406 q 838 90 946 190 q 542 -11 729 -11 z "},"Ü":{"ha":1038,"x_min":17,"x_max":1032,"o":"m 342 1103 q 263 1138 294 1103 q 232 1219 232 1172 q 266 1319 232 1281 q 365 1357 300 1357 l 367 1357 q 459 1324 428 1357 q 490 1242 490 1292 q 453 1141 490 1179 q 343 1103 417 1103 l 342 1103 m 715 1103 q 637 1140 668 1103 q 606 1219 606 1176 q 639 1319 606 1281 q 738 1357 672 1357 l 739 1357 q 832 1324 801 1357 q 863 1242 863 1292 q 826 1141 863 1179 q 715 1103 790 1103 m 542 -11 q 208 90 319 -11 q 97 413 97 192 l 97 901 l 17 922 l 17 1032 l 504 1032 l 504 922 l 389 899 l 389 390 q 585 96 389 96 q 729 176 685 96 q 774 390 774 256 l 774 901 l 651 922 l 651 1032 l 1032 1032 l 1032 922 l 946 901 l 946 406 q 838 90 946 190 q 542 -11 729 -11 z "},"Ụ":{"ha":1038,"x_min":17,"x_max":1032,"o":"m 542 -11 q 208 90 319 -11 q 97 413 97 192 l 97 901 l 17 922 l 17 1032 l 504 1032 l 504 922 l 389 899 l 389 390 q 585 96 389 96 q 729 176 685 96 q 774 390 774 256 l 774 901 l 651 922 l 651 1032 l 1032 1032 l 1032 922 l 946 901 l 946 406 q 838 90 946 190 q 542 -11 729 -11 m 511 -278 q 438 -251 467 -278 q 408 -183 408 -224 q 440 -103 408 -135 q 524 -72 471 -72 q 603 -99 575 -72 q 631 -167 631 -125 q 600 -247 631 -215 q 513 -278 569 -278 l 511 -278 z "},"Ù":{"ha":1038,"x_min":17,"x_max":1032,"o":"m 542 -11 q 208 90 319 -11 q 97 413 97 192 l 97 901 l 17 922 l 17 1032 l 504 1032 l 504 922 l 389 899 l 389 390 q 585 96 389 96 q 729 176 685 96 q 774 390 774 256 l 774 901 l 651 922 l 651 1032 l 1032 1032 l 1032 922 l 946 901 l 946 406 q 838 90 946 190 q 542 -11 729 -11 m 582 1081 q 449 1147 536 1092 q 317 1257 363 1203 l 482 1365 l 682 1150 l 582 1081 z "},"Ủ":{"ha":1038,"x_min":17,"x_max":1032,"o":"m 542 -11 q 208 90 319 -11 q 97 413 97 192 l 97 901 l 17 922 l 17 1032 l 504 1032 l 504 922 l 389 899 l 389 390 q 585 96 389 96 q 729 176 685 96 q 774 390 774 256 l 774 901 l 651 922 l 651 1032 l 1032 1032 l 1032 922 l 946 901 l 946 406 q 838 90 946 190 q 542 -11 729 -11 m 549 1097 q 525 1131 540 1106 q 510 1167 510 1157 q 517 1192 510 1182 q 540 1214 524 1201 q 571 1253 567 1232 l 571 1257 q 558 1294 571 1281 q 514 1307 546 1307 q 475 1304 481 1307 l 468 1450 q 488 1454 471 1451 q 519 1457 506 1457 q 615 1438 564 1457 q 701 1382 665 1419 q 736 1290 736 1344 q 718 1235 736 1258 q 679 1197 700 1213 q 650 1174 658 1181 q 631 1133 631 1157 q 635 1106 631 1122 l 549 1097 z "},"Ư":{"ha":1038,"x_min":17,"x_max":1151,"o":"m 1151 1167 q 1092 994 1151 1064 q 946 893 1033 925 l 946 406 q 838 90 946 190 q 542 -11 729 -11 q 208 90 319 -11 q 97 413 97 192 l 97 901 l 17 922 l 17 1032 l 504 1032 l 504 922 l 389 899 l 389 390 q 585 96 389 96 q 729 176 685 96 q 774 390 774 256 l 774 901 l 651 922 l 651 1032 l 832 1032 q 943 1074 908 1032 q 986 1174 978 1117 q 988 1197 989 1192 l 1149 1197 q 1151 1167 1151 1175 z "},"Ứ":{"ha":1038,"x_min":17,"x_max":1151,"o":"m 1151 1167 q 1092 994 1151 1064 q 946 893 1033 925 l 946 406 q 838 90 946 190 q 542 -11 729 -11 q 208 90 319 -11 q 97 413 97 192 l 97 901 l 17 922 l 17 1032 l 504 1032 l 504 922 l 389 899 l 389 390 q 585 96 389 96 q 729 176 685 96 q 774 390 774 256 l 774 901 l 651 922 l 651 1032 l 832 1032 q 943 1074 908 1032 q 986 1174 978 1117 q 988 1197 989 1192 l 1149 1197 q 1151 1167 1151 1175 m 407 1150 l 607 1365 l 772 1257 q 631 1144 714 1196 q 504 1081 547 1092 l 407 1150 z "},"Ự":{"ha":1038,"x_min":17,"x_max":1151,"o":"m 1151 1167 q 1092 994 1151 1064 q 946 893 1033 925 l 946 406 q 838 90 946 190 q 542 -11 729 -11 q 208 90 319 -11 q 97 413 97 192 l 97 901 l 17 922 l 17 1032 l 504 1032 l 504 922 l 389 899 l 389 390 q 585 96 389 96 q 729 176 685 96 q 774 390 774 256 l 774 901 l 651 922 l 651 1032 l 832 1032 q 943 1074 908 1032 q 986 1174 978 1117 q 988 1197 989 1192 l 1149 1197 q 1151 1167 1151 1175 m 511 -278 q 438 -251 467 -278 q 408 -183 408 -224 q 440 -103 408 -135 q 524 -72 471 -72 q 603 -99 575 -72 q 631 -167 631 -125 q 600 -247 631 -215 q 513 -278 569 -278 l 511 -278 z "},"Ừ":{"ha":1038,"x_min":17,"x_max":1151,"o":"m 1151 1167 q 1092 994 1151 1064 q 946 893 1033 925 l 946 406 q 838 90 946 190 q 542 -11 729 -11 q 208 90 319 -11 q 97 413 97 192 l 97 901 l 17 922 l 17 1032 l 504 1032 l 504 922 l 389 899 l 389 390 q 585 96 389 96 q 729 176 685 96 q 774 390 774 256 l 774 901 l 651 922 l 651 1032 l 832 1032 q 943 1074 908 1032 q 986 1174 978 1117 q 988 1197 989 1192 l 1149 1197 q 1151 1167 1151 1175 m 526 1081 q 394 1147 481 1092 q 261 1257 307 1203 l 426 1365 l 626 1150 l 526 1081 z "},"Ử":{"ha":1038,"x_min":17,"x_max":1151,"o":"m 1151 1167 q 1092 994 1151 1064 q 946 893 1033 925 l 946 406 q 838 90 946 190 q 542 -11 729 -11 q 208 90 319 -11 q 97 413 97 192 l 97 901 l 17 922 l 17 1032 l 504 1032 l 504 922 l 389 899 l 389 390 q 585 96 389 96 q 729 176 685 96 q 774 390 774 256 l 774 901 l 651 922 l 651 1032 l 832 1032 q 943 1074 908 1032 q 986 1174 978 1117 q 988 1197 989 1192 l 1149 1197 q 1151 1167 1151 1175 m 493 1097 q 469 1131 485 1106 q 454 1167 454 1157 q 461 1192 454 1182 q 485 1214 468 1201 q 515 1253 511 1232 l 515 1257 q 503 1294 515 1281 q 458 1307 490 1307 q 419 1304 425 1307 l 413 1450 q 433 1454 415 1451 q 464 1457 450 1457 q 559 1438 508 1457 q 645 1382 610 1419 q 681 1290 681 1344 q 663 1235 681 1258 q 624 1197 644 1213 q 594 1174 603 1181 q 575 1133 575 1157 q 579 1106 575 1122 l 493 1097 z "},"Ữ":{"ha":1038,"x_min":17,"x_max":1151,"o":"m 1151 1167 q 1092 994 1151 1064 q 946 893 1033 925 l 946 406 q 838 90 946 190 q 542 -11 729 -11 q 208 90 319 -11 q 97 413 97 192 l 97 901 l 17 922 l 17 1032 l 504 1032 l 504 922 l 389 899 l 389 390 q 585 96 389 96 q 729 176 685 96 q 774 390 774 256 l 774 901 l 651 922 l 651 1032 l 832 1032 q 943 1074 908 1032 q 986 1174 978 1117 q 988 1197 989 1192 l 1149 1197 q 1151 1167 1151 1175 m 639 1104 q 562 1119 596 1104 q 485 1161 528 1133 q 421 1196 444 1185 q 369 1207 397 1207 q 313 1190 335 1207 q 260 1142 290 1174 l 188 1215 q 274 1317 219 1274 q 410 1361 328 1361 q 489 1347 456 1361 q 565 1303 522 1332 q 622 1270 601 1281 q 668 1260 643 1260 q 725 1274 704 1260 q 760 1303 746 1288 q 779 1325 774 1319 l 851 1251 q 764 1144 814 1185 q 639 1104 714 1104 z "},"Ű":{"ha":1038,"x_min":17,"x_max":1032,"o":"m 590 1264 q 478 1156 549 1211 q 353 1075 407 1101 l 251 1160 l 451 1365 l 590 1264 m 983 1267 q 876 1159 950 1218 q 747 1075 801 1100 l 644 1160 l 849 1365 l 983 1267 m 542 -11 q 208 90 319 -11 q 97 413 97 192 l 97 901 l 17 922 l 17 1032 l 504 1032 l 504 922 l 389 899 l 389 390 q 585 96 389 96 q 729 176 685 96 q 774 390 774 256 l 774 901 l 651 922 l 651 1032 l 1032 1032 l 1032 922 l 946 901 l 946 406 q 838 90 946 190 q 542 -11 729 -11 z "},"Ū":{"ha":1038,"x_min":17,"x_max":1032,"o":"m 783 1301 l 783 1151 l 311 1151 l 311 1301 l 783 1301 m 542 -11 q 208 90 319 -11 q 97 413 97 192 l 97 901 l 17 922 l 17 1032 l 504 1032 l 504 922 l 389 899 l 389 390 q 585 96 389 96 q 729 176 685 96 q 774 390 774 256 l 774 901 l 651 922 l 651 1032 l 1032 1032 l 1032 922 l 946 901 l 946 406 q 838 90 946 190 q 542 -11 729 -11 z "},"Ų":{"ha":1038,"x_min":17,"x_max":1032,"o":"m 542 -11 q 208 90 319 -11 q 97 413 97 192 l 97 901 l 17 922 l 17 1032 l 504 1032 l 504 922 l 389 899 l 389 390 q 585 96 389 96 q 729 176 685 96 q 774 390 774 256 l 774 901 l 651 922 l 651 1032 l 1032 1032 l 1032 922 l 946 901 l 946 406 q 892 161 946 256 q 738 25 838 67 q 657 -56 685 -19 q 629 -129 629 -93 q 651 -185 629 -161 q 710 -208 672 -208 q 748 -206 735 -208 q 786 -193 761 -203 l 786 -303 q 707 -336 758 -324 q 608 -349 656 -349 q 474 -312 528 -349 q 421 -207 421 -276 q 473 -95 421 -149 q 592 -8 525 -42 q 542 -11 558 -11 z "},"Ů":{"ha":1038,"x_min":17,"x_max":1032,"o":"m 1032 1032 l 1032 922 l 946 901 l 946 406 q 838 90 946 190 q 542 -11 729 -11 q 208 90 319 -11 q 97 413 97 192 l 97 901 l 17 922 l 17 1032 l 399 1032 q 321 1176 321 1076 q 392 1315 321 1264 q 582 1365 463 1365 q 772 1315 714 1365 q 829 1179 829 1264 q 738 1032 826 1081 l 1032 1032 m 575 1276 q 495 1252 518 1276 q 472 1182 472 1228 q 497 1113 472 1142 q 574 1083 521 1083 q 653 1107 631 1083 q 676 1174 676 1131 q 575 1276 676 1276 m 774 901 l 651 922 l 651 1003 q 571 996 610 996 q 504 1000 535 996 l 504 922 l 389 899 l 389 390 q 585 96 389 96 q 729 176 685 96 q 774 390 774 256 l 774 901 z "},"Ũ":{"ha":1038,"x_min":17,"x_max":1032,"o":"m 667 1104 q 590 1119 624 1104 q 513 1161 556 1133 q 449 1196 472 1185 q 397 1207 425 1207 q 340 1190 363 1207 q 288 1142 318 1174 l 215 1215 q 301 1317 247 1274 q 438 1361 356 1361 q 517 1347 483 1361 q 593 1303 550 1332 q 650 1270 629 1281 q 696 1260 671 1260 q 753 1274 732 1260 q 788 1303 774 1288 q 807 1325 801 1319 l 879 1251 q 792 1144 842 1185 q 667 1104 742 1104 m 542 -11 q 208 90 319 -11 q 97 413 97 192 l 97 901 l 17 922 l 17 1032 l 504 1032 l 504 922 l 389 899 l 389 390 q 585 96 389 96 q 729 176 685 96 q 774 390 774 256 l 774 901 l 651 922 l 651 1032 l 1032 1032 l 1032 922 l 946 901 l 946 406 q 838 90 946 190 q 542 -11 729 -11 z "},"V":{"ha":986,"x_min":-29,"x_max":1019,"o":"m -29 922 l -29 1032 l 467 1032 l 467 922 l 358 903 l 535 322 l 560 224 l 579 322 l 753 901 l 644 922 l 644 1032 l 1019 1032 l 1019 922 l 929 901 l 622 -10 l 393 -10 l 51 901 l -29 922 z "},"W":{"ha":1447,"x_min":-24,"x_max":1469,"o":"m -24 922 l -24 1032 l 453 1032 l 453 922 l 344 901 l 497 306 l 517 208 l 529 306 l 661 782 l 621 901 l 539 922 l 539 1032 l 1039 1032 l 1039 922 l 908 901 l 1064 306 l 1086 199 l 1101 306 l 1238 901 l 1129 922 l 1129 1032 l 1469 1032 l 1469 922 l 1385 901 l 1139 -7 l 889 -7 l 725 574 l 575 -7 l 326 -7 l 51 901 l -24 922 z "},"Ẃ":{"ha":1447,"x_min":-24,"x_max":1469,"o":"m -24 922 l -24 1032 l 453 1032 l 453 922 l 344 901 l 497 306 l 517 208 l 529 306 l 661 782 l 621 901 l 539 922 l 539 1032 l 1039 1032 l 1039 922 l 908 901 l 1064 306 l 1086 199 l 1101 306 l 1238 901 l 1129 922 l 1129 1032 l 1469 1032 l 1469 922 l 1385 901 l 1139 -7 l 889 -7 l 725 574 l 575 -7 l 326 -7 l 51 901 l -24 922 m 611 1150 l 811 1365 l 976 1257 q 835 1144 918 1196 q 708 1081 751 1092 l 611 1150 z "},"Ŵ":{"ha":1447,"x_min":-24,"x_max":1469,"o":"m 679 1360 l 821 1360 l 1039 1157 l 954 1082 l 749 1208 l 543 1082 l 458 1156 l 679 1360 m -24 922 l -24 1032 l 453 1032 l 453 922 l 344 901 l 497 306 l 517 208 l 529 306 l 661 782 l 621 901 l 539 922 l 539 1032 l 1039 1032 l 1039 922 l 908 901 l 1064 306 l 1086 199 l 1101 306 l 1238 901 l 1129 922 l 1129 1032 l 1469 1032 l 1469 922 l 1385 901 l 1139 -7 l 889 -7 l 725 574 l 575 -7 l 326 -7 l 51 901 l -24 922 z "},"Ẅ":{"ha":1443,"x_min":-26,"x_max":1467,"o":"m 542 1103 q 463 1138 494 1103 q 432 1219 432 1172 q 466 1319 432 1281 q 565 1357 500 1357 l 567 1357 q 659 1324 628 1357 q 690 1242 690 1292 q 653 1141 690 1179 q 543 1103 617 1103 l 542 1103 m 915 1103 q 837 1140 868 1103 q 806 1219 806 1176 q 839 1319 806 1281 q 938 1357 872 1357 l 939 1357 q 1032 1324 1001 1357 q 1063 1242 1063 1292 q 1026 1141 1063 1179 q 915 1103 990 1103 m -26 922 l -26 1032 l 450 1032 l 450 922 l 342 901 l 494 306 l 514 208 l 526 306 l 658 782 l 618 901 l 536 922 l 536 1032 l 1036 1032 l 1036 922 l 906 901 l 1061 306 l 1083 199 l 1099 306 l 1235 901 l 1126 922 l 1126 1032 l 1467 1032 l 1467 922 l 1382 901 l 1136 -7 l 886 -7 l 722 574 l 572 -7 l 324 -7 l 49 901 l -26 922 z "},"Ẁ":{"ha":1447,"x_min":-24,"x_max":1469,"o":"m -24 922 l -24 1032 l 453 1032 l 453 922 l 344 901 l 497 306 l 517 208 l 529 306 l 661 782 l 621 901 l 539 922 l 539 1032 l 1039 1032 l 1039 922 l 908 901 l 1064 306 l 1086 199 l 1101 306 l 1238 901 l 1129 922 l 1129 1032 l 1469 1032 l 1469 922 l 1385 901 l 1139 -7 l 889 -7 l 725 574 l 575 -7 l 326 -7 l 51 901 l -24 922 m 731 1081 q 598 1147 685 1092 q 465 1257 511 1203 l 631 1365 l 831 1150 l 731 1081 z "},"X":{"ha":1011,"x_min":7,"x_max":1015,"o":"m 119 118 l 371 488 l 96 901 l 10 922 l 10 1032 l 519 1032 l 519 922 l 422 900 l 575 638 l 740 901 l 626 922 l 626 1032 l 1004 1032 l 1004 922 l 890 901 l 638 560 l 931 119 l 1015 103 l 1015 0 l 507 0 l 507 103 l 606 119 l 436 406 l 274 118 l 397 103 l 397 0 l 7 0 l 7 103 l 119 118 z "},"Y":{"ha":918,"x_min":-32,"x_max":956,"o":"m 318 119 l 318 419 l 42 903 l -32 922 l -32 1032 l 444 1032 l 444 922 l 363 901 l 503 608 l 532 526 l 561 608 l 685 901 l 582 922 l 582 1032 l 956 1032 l 956 922 l 874 906 l 618 421 l 618 118 l 763 103 l 763 0 l 179 0 l 179 103 l 318 119 z "},"Ý":{"ha":918,"x_min":-32,"x_max":956,"o":"m 318 119 l 318 419 l 42 903 l -32 922 l -32 1032 l 444 1032 l 444 922 l 363 901 l 503 608 l 532 526 l 561 608 l 685 901 l 582 922 l 582 1032 l 956 1032 l 956 922 l 874 906 l 618 421 l 618 118 l 763 103 l 763 0 l 179 0 l 179 103 l 318 119 m 389 1150 l 589 1365 l 754 1257 q 613 1144 696 1196 q 486 1081 529 1092 l 389 1150 z "},"Ŷ":{"ha":918,"x_min":-32,"x_max":956,"o":"m 407 1360 l 549 1360 l 767 1157 l 682 1082 l 476 1208 l 271 1082 l 186 1156 l 407 1360 m 318 119 l 318 419 l 42 903 l -32 922 l -32 1032 l 444 1032 l 444 922 l 363 901 l 503 608 l 532 526 l 561 608 l 685 901 l 582 922 l 582 1032 l 956 1032 l 956 922 l 874 906 l 618 421 l 618 118 l 763 103 l 763 0 l 179 0 l 179 103 l 318 119 z "},"Ÿ":{"ha":918,"x_min":-32,"x_max":956,"o":"m 272 1103 q 194 1138 225 1103 q 163 1219 163 1172 q 197 1319 163 1281 q 296 1357 231 1357 l 297 1357 q 390 1324 358 1357 q 421 1242 421 1292 q 384 1141 421 1179 q 274 1103 347 1103 l 272 1103 m 646 1103 q 567 1140 599 1103 q 536 1219 536 1176 q 569 1319 536 1281 q 668 1357 603 1357 l 669 1357 q 763 1324 732 1357 q 793 1242 793 1292 q 757 1141 793 1179 q 646 1103 721 1103 m 318 119 l 318 419 l 42 903 l -32 922 l -32 1032 l 444 1032 l 444 922 l 363 901 l 503 608 l 532 526 l 561 608 l 685 901 l 582 922 l 582 1032 l 956 1032 l 956 922 l 874 906 l 618 421 l 618 118 l 763 103 l 763 0 l 179 0 l 179 103 l 318 119 z "},"Ỵ":{"ha":918,"x_min":-32,"x_max":956,"o":"m 318 119 l 318 419 l 42 903 l -32 922 l -32 1032 l 444 1032 l 444 922 l 363 901 l 503 608 l 532 526 l 561 608 l 685 901 l 582 922 l 582 1032 l 956 1032 l 956 922 l 874 906 l 618 421 l 618 118 l 763 103 l 763 0 l 179 0 l 179 103 l 318 119 m 451 -278 q 378 -251 407 -278 q 349 -183 349 -224 q 380 -103 349 -135 q 464 -72 411 -72 q 543 -99 515 -72 q 571 -167 571 -125 q 540 -247 571 -215 q 453 -278 510 -278 l 451 -278 z "},"Ỳ":{"ha":918,"x_min":-32,"x_max":956,"o":"m 318 119 l 318 419 l 42 903 l -32 922 l -32 1032 l 444 1032 l 444 922 l 363 901 l 503 608 l 532 526 l 561 608 l 685 901 l 582 922 l 582 1032 l 956 1032 l 956 922 l 874 906 l 618 421 l 618 118 l 763 103 l 763 0 l 179 0 l 179 103 l 318 119 m 508 1081 q 376 1147 463 1092 q 243 1257 289 1203 l 408 1365 l 608 1150 l 508 1081 z "},"Ỷ":{"ha":918,"x_min":-32,"x_max":956,"o":"m 318 119 l 318 419 l 42 903 l -32 922 l -32 1032 l 444 1032 l 444 922 l 363 901 l 503 608 l 532 526 l 561 608 l 685 901 l 582 922 l 582 1032 l 956 1032 l 956 922 l 874 906 l 618 421 l 618 118 l 763 103 l 763 0 l 179 0 l 179 103 l 318 119 m 475 1097 q 451 1131 467 1106 q 436 1167 436 1157 q 443 1192 436 1182 q 467 1214 450 1201 q 497 1253 493 1232 l 497 1257 q 485 1294 497 1281 q 440 1307 472 1307 q 401 1304 407 1307 l 394 1450 q 415 1454 397 1451 q 446 1457 432 1457 q 541 1438 490 1457 q 627 1382 592 1419 q 663 1290 663 1344 q 644 1235 663 1258 q 606 1197 626 1213 q 576 1174 585 1181 q 557 1133 557 1157 q 561 1106 557 1122 l 475 1097 z "},"Ỹ":{"ha":918,"x_min":-32,"x_max":956,"o":"m 318 119 l 318 419 l 42 903 l -32 922 l -32 1032 l 444 1032 l 444 922 l 363 901 l 503 608 l 532 526 l 561 608 l 685 901 l 582 922 l 582 1032 l 956 1032 l 956 922 l 874 906 l 618 421 l 618 118 l 763 103 l 763 0 l 179 0 l 179 103 l 318 119 m 621 1104 q 544 1119 578 1104 q 467 1161 510 1133 q 403 1196 426 1185 q 351 1207 379 1207 q 294 1190 317 1207 q 242 1142 272 1174 l 169 1215 q 256 1317 201 1274 q 392 1361 310 1361 q 471 1347 438 1361 q 547 1303 504 1332 q 604 1270 583 1281 q 650 1260 625 1260 q 707 1274 686 1260 q 742 1303 728 1288 q 761 1325 756 1319 l 833 1251 q 746 1144 796 1185 q 621 1104 696 1104 z "},"Z":{"ha":911,"x_min":7,"x_max":889,"o":"m 486 846 l 571 938 l 279 915 l 199 721 l 60 742 l 96 1035 l 843 1035 l 879 942 l 413 188 l 311 103 l 665 133 l 750 346 l 889 318 l 858 0 l 58 0 l 7 90 l 486 846 z "},"Ź":{"ha":911,"x_min":7,"x_max":889,"o":"m 486 846 l 571 938 l 279 915 l 199 721 l 60 742 l 96 1035 l 843 1035 l 879 942 l 413 188 l 311 103 l 665 133 l 750 346 l 889 318 l 858 0 l 58 0 l 7 90 l 486 846 m 399 1150 l 599 1365 l 764 1257 q 622 1144 706 1196 q 496 1081 539 1092 l 399 1150 z "},"Ž":{"ha":911,"x_min":7,"x_max":889,"o":"m 294 1365 l 486 1247 l 692 1365 l 776 1292 l 557 1096 l 415 1096 l 208 1293 l 294 1365 m 486 846 l 571 938 l 279 915 l 199 721 l 60 742 l 96 1035 l 843 1035 l 879 942 l 413 188 l 311 103 l 665 133 l 750 346 l 889 318 l 858 0 l 58 0 l 7 90 l 486 846 z "},"Ż":{"ha":911,"x_min":7,"x_max":889,"o":"m 486 846 l 571 938 l 279 915 l 199 721 l 60 742 l 96 1035 l 843 1035 l 879 942 l 413 188 l 311 103 l 665 133 l 750 346 l 889 318 l 858 0 l 58 0 l 7 90 l 486 846 m 499 1111 q 406 1144 443 1111 q 369 1225 369 1176 q 407 1322 369 1288 q 513 1357 444 1357 q 615 1326 578 1357 q 653 1244 653 1294 q 615 1146 653 1181 q 499 1111 576 1111 z "},"a":{"ha":797,"x_min":28,"x_max":789,"o":"m 28 224 q 140 413 28 346 q 474 482 251 481 l 474 503 q 465 572 474 547 q 428 610 456 597 q 347 622 401 622 q 223 608 276 622 q 113 569 169 593 l 58 683 q 201 755 103 718 q 417 792 299 792 q 600 762 533 792 q 694 669 667 732 q 722 500 722 607 l 722 103 l 789 103 l 789 3 q 694 -11 758 -4 q 583 -18 629 -18 q 505 -1 524 -18 q 486 65 486 17 l 486 90 q 398 15 454 46 q 264 -15 342 -15 q 144 13 199 -15 q 59 96 90 42 q 28 224 28 150 m 394 128 q 436 139 414 128 q 474 167 458 150 l 474 379 q 347 343 386 379 q 307 254 307 307 q 331 163 307 197 q 394 128 354 128 z "},"á":{"ha":797,"x_min":28,"x_max":789,"o":"m 28 224 q 140 413 28 346 q 474 482 251 481 l 474 503 q 465 572 474 547 q 428 610 456 597 q 347 622 401 622 q 223 608 276 622 q 113 569 169 593 l 58 683 q 201 755 103 718 q 417 792 299 792 q 600 762 533 792 q 694 669 667 732 q 722 500 722 607 l 722 103 l 789 103 l 789 3 q 694 -11 758 -4 q 583 -18 629 -18 q 505 -1 524 -18 q 486 65 486 17 l 486 90 q 398 15 454 46 q 264 -15 342 -15 q 144 13 199 -15 q 59 96 90 42 q 28 224 28 150 m 394 128 q 436 139 414 128 q 474 167 458 150 l 474 379 q 347 343 386 379 q 307 254 307 307 q 331 163 307 197 q 394 128 354 128 m 321 951 l 579 1258 l 726 1124 q 590 976 688 1056 q 422 872 492 897 l 321 951 z "},"ă":{"ha":797,"x_min":28,"x_max":789,"o":"m 394 892 q 255 922 315 892 q 161 1006 194 953 q 128 1125 128 1060 q 131 1203 128 1188 l 249 1203 q 250 1171 249 1182 q 394 1064 268 1064 q 536 1169 518 1064 q 539 1203 539 1194 l 654 1203 l 656 1126 q 622 1006 656 1060 q 529 922 589 953 q 394 892 469 892 m 28 224 q 140 413 28 346 q 474 482 251 481 l 474 503 q 465 572 474 547 q 428 610 456 597 q 347 622 401 622 q 223 608 276 622 q 113 569 169 593 l 58 683 q 201 755 103 718 q 417 792 299 792 q 600 762 533 792 q 694 669 667 732 q 722 500 722 607 l 722 103 l 789 103 l 789 3 q 694 -11 758 -4 q 583 -18 629 -18 q 505 -1 524 -18 q 486 65 486 17 l 486 90 q 398 15 454 46 q 264 -15 342 -15 q 144 13 199 -15 q 59 96 90 42 q 28 224 28 150 m 394 128 q 436 139 414 128 q 474 167 458 150 l 474 379 q 347 343 386 379 q 307 254 307 307 q 331 163 307 197 q 394 128 354 128 z "},"ắ":{"ha":797,"x_min":28,"x_max":789,"o":"m 338 1207 l 551 1461 l 674 1350 q 560 1228 640 1293 q 422 1142 479 1163 l 338 1207 m 429 872 q 269 927 331 872 q 208 1064 208 982 q 211 1129 208 1117 l 308 1129 q 310 1103 308 1111 q 344 1039 315 1064 q 429 1014 372 1014 q 546 1101 531 1014 q 549 1129 549 1121 l 643 1129 l 644 1065 q 584 927 644 982 q 429 872 524 872 m 28 224 q 140 413 28 346 q 474 482 251 481 l 474 503 q 465 572 474 547 q 428 610 456 597 q 347 622 401 622 q 223 608 276 622 q 113 569 169 593 l 58 683 q 201 755 103 718 q 417 792 299 792 q 600 762 533 792 q 694 669 667 732 q 722 500 722 607 l 722 103 l 789 103 l 789 3 q 694 -11 758 -4 q 583 -18 629 -18 q 505 -1 524 -18 q 486 65 486 17 l 486 90 q 398 15 454 46 q 264 -15 342 -15 q 144 13 199 -15 q 59 96 90 42 q 28 224 28 150 m 394 128 q 436 139 414 128 q 474 167 458 150 l 474 379 q 347 343 386 379 q 307 254 307 307 q 331 163 307 197 q 394 128 354 128 z "},"ặ":{"ha":797,"x_min":28,"x_max":789,"o":"m 28 224 q 140 413 28 346 q 474 482 251 481 l 474 503 q 465 572 474 547 q 428 610 456 597 q 347 622 401 622 q 223 608 276 622 q 113 569 169 593 l 58 683 q 201 755 103 718 q 417 792 299 792 q 600 762 533 792 q 694 669 667 732 q 722 500 722 607 l 722 103 l 789 103 l 789 3 q 694 -11 758 -4 q 583 -18 629 -18 q 505 -1 524 -18 q 486 65 486 17 l 486 90 q 398 15 454 46 q 264 -15 342 -15 q 144 13 199 -15 q 59 96 90 42 q 28 224 28 150 m 394 128 q 436 139 414 128 q 474 167 458 150 l 474 379 q 347 343 386 379 q 307 254 307 307 q 331 163 307 197 q 394 128 354 128 m 390 -278 q 317 -251 346 -278 q 288 -183 288 -224 q 319 -103 288 -135 q 403 -72 350 -72 q 482 -99 454 -72 q 510 -167 510 -125 q 479 -247 510 -215 q 392 -278 449 -278 l 390 -278 m 401 885 q 262 915 322 885 q 168 999 201 946 q 135 1118 135 1053 q 138 1196 135 1181 l 256 1196 q 257 1164 256 1175 q 401 1057 275 1057 q 543 1163 525 1057 q 546 1196 546 1188 l 661 1196 l 663 1119 q 629 999 663 1053 q 536 915 596 946 q 401 885 476 885 z "},"ằ":{"ha":797,"x_min":28,"x_max":789,"o":"m 428 1142 q 290 1228 371 1163 q 178 1350 210 1294 l 300 1461 l 514 1207 l 429 1142 l 428 1142 m 429 872 q 269 927 331 872 q 208 1064 208 982 q 211 1129 208 1117 l 308 1129 q 310 1103 308 1111 q 344 1039 315 1064 q 429 1014 372 1014 q 546 1101 531 1014 q 549 1129 549 1121 l 643 1129 l 644 1065 q 584 927 644 982 q 429 872 524 872 m 28 224 q 140 413 28 346 q 474 482 251 481 l 474 503 q 465 572 474 547 q 428 610 456 597 q 347 622 401 622 q 223 608 276 622 q 113 569 169 593 l 58 683 q 201 755 103 718 q 417 792 299 792 q 600 762 533 792 q 694 669 667 732 q 722 500 722 607 l 722 103 l 789 103 l 789 3 q 694 -11 758 -4 q 583 -18 629 -18 q 505 -1 524 -18 q 486 65 486 17 l 486 90 q 398 15 454 46 q 264 -15 342 -15 q 144 13 199 -15 q 59 96 90 42 q 28 224 28 150 m 394 128 q 436 139 414 128 q 474 167 458 150 l 474 379 q 347 343 386 379 q 307 254 307 307 q 331 163 307 197 q 394 128 354 128 z "},"ẳ":{"ha":797,"x_min":28,"x_max":789,"o":"m 404 1131 q 385 1159 397 1138 q 372 1189 372 1181 q 378 1208 372 1201 q 397 1228 383 1215 q 415 1243 408 1236 q 422 1260 421 1250 l 422 1263 q 375 1304 422 1304 q 343 1301 347 1304 l 338 1422 q 353 1426 339 1424 q 379 1428 368 1428 q 458 1413 417 1428 q 529 1366 500 1397 q 558 1290 558 1335 q 543 1244 558 1263 q 510 1213 528 1225 q 488 1194 493 1200 q 472 1160 472 1179 q 475 1138 472 1146 l 404 1131 m 429 872 q 269 927 331 872 q 208 1064 208 982 q 211 1129 208 1117 l 308 1129 q 310 1103 308 1111 q 344 1039 315 1064 q 429 1014 372 1014 q 546 1101 531 1014 q 549 1129 549 1121 l 643 1129 l 644 1065 q 584 927 644 982 q 429 872 524 872 m 28 224 q 140 413 28 346 q 474 482 251 481 l 474 503 q 465 572 474 547 q 428 610 456 597 q 347 622 401 622 q 223 608 276 622 q 113 569 169 593 l 58 683 q 201 755 103 718 q 417 792 299 792 q 600 762 533 792 q 694 669 667 732 q 722 500 722 607 l 722 103 l 789 103 l 789 3 q 694 -11 758 -4 q 583 -18 629 -18 q 505 -1 524 -18 q 486 65 486 17 l 486 90 q 398 15 454 46 q 264 -15 342 -15 q 144 13 199 -15 q 59 96 90 42 q 28 224 28 150 m 394 128 q 436 139 414 128 q 474 167 458 150 l 474 379 q 347 343 386 379 q 307 254 307 307 q 331 163 307 197 q 394 128 354 128 z "},"ẵ":{"ha":797,"x_min":28,"x_max":789,"o":"m 158 1242 q 231 1333 189 1296 q 340 1371 272 1371 q 405 1358 378 1371 q 464 1319 432 1344 q 510 1290 493 1299 q 547 1282 526 1282 q 596 1294 576 1282 q 636 1328 615 1307 l 696 1275 q 623 1183 663 1218 q 518 1147 583 1147 q 456 1160 483 1147 q 396 1196 429 1172 q 349 1225 367 1215 q 307 1235 331 1235 q 258 1222 278 1235 q 217 1189 238 1210 l 158 1242 m 429 872 q 269 927 331 872 q 208 1064 208 982 q 211 1129 208 1117 l 308 1129 q 310 1103 308 1111 q 344 1039 315 1064 q 429 1014 372 1014 q 546 1101 531 1014 q 549 1129 549 1121 l 643 1129 l 644 1065 q 584 927 644 982 q 429 872 524 872 m 28 224 q 140 413 28 346 q 474 482 251 481 l 474 503 q 465 572 474 547 q 428 610 456 597 q 347 622 401 622 q 223 608 276 622 q 113 569 169 593 l 58 683 q 201 755 103 718 q 417 792 299 792 q 600 762 533 792 q 694 669 667 732 q 722 500 722 607 l 722 103 l 789 103 l 789 3 q 694 -11 758 -4 q 583 -18 629 -18 q 505 -1 524 -18 q 486 65 486 17 l 486 90 q 398 15 454 46 q 264 -15 342 -15 q 144 13 199 -15 q 59 96 90 42 q 28 224 28 150 m 394 128 q 436 139 414 128 q 474 167 458 150 l 474 379 q 347 343 386 379 q 307 254 307 307 q 331 163 307 197 q 394 128 354 128 z "},"â":{"ha":797,"x_min":28,"x_max":789,"o":"m 325 1221 l 460 1221 l 683 949 l 597 875 l 394 1036 l 189 874 l 106 949 l 325 1221 m 28 224 q 140 413 28 346 q 474 482 251 481 l 474 503 q 465 572 474 547 q 428 610 456 597 q 347 622 401 622 q 223 608 276 622 q 113 569 169 593 l 58 683 q 201 755 103 718 q 417 792 299 792 q 600 762 533 792 q 694 669 667 732 q 722 500 722 607 l 722 103 l 789 103 l 789 3 q 694 -11 758 -4 q 583 -18 629 -18 q 505 -1 524 -18 q 486 65 486 17 l 486 90 q 398 15 454 46 q 264 -15 342 -15 q 144 13 199 -15 q 59 96 90 42 q 28 224 28 150 m 394 128 q 436 139 414 128 q 474 167 458 150 l 474 379 q 347 343 386 379 q 307 254 307 307 q 331 163 307 197 q 394 128 354 128 z "},"ấ":{"ha":797,"x_min":28,"x_max":936,"o":"m 600 1078 l 814 1332 l 936 1221 q 822 1099 903 1164 q 685 1013 742 1033 l 600 1078 m 368 1143 l 479 1143 l 664 918 l 593 858 l 426 990 l 256 857 l 188 918 l 368 1143 m 28 224 q 140 413 28 346 q 474 482 251 481 l 474 503 q 465 572 474 547 q 428 610 456 597 q 347 622 401 622 q 223 608 276 622 q 113 569 169 593 l 58 683 q 201 755 103 718 q 417 792 299 792 q 600 762 533 792 q 694 669 667 732 q 722 500 722 607 l 722 103 l 789 103 l 789 3 q 694 -11 758 -4 q 583 -18 629 -18 q 505 -1 524 -18 q 486 65 486 17 l 486 90 q 398 15 454 46 q 264 -15 342 -15 q 144 13 199 -15 q 59 96 90 42 q 28 224 28 150 m 394 128 q 436 139 414 128 q 474 167 458 150 l 474 379 q 347 343 386 379 q 307 254 307 307 q 331 163 307 197 q 394 128 354 128 z "},"ậ":{"ha":797,"x_min":28,"x_max":789,"o":"m 28 224 q 140 413 28 346 q 474 482 251 481 l 474 503 q 465 572 474 547 q 428 610 456 597 q 347 622 401 622 q 223 608 276 622 q 113 569 169 593 l 58 683 q 201 755 103 718 q 417 792 299 792 q 600 762 533 792 q 694 669 667 732 q 722 500 722 607 l 722 103 l 789 103 l 789 3 q 694 -11 758 -4 q 583 -18 629 -18 q 505 -1 524 -18 q 486 65 486 17 l 486 90 q 398 15 454 46 q 264 -15 342 -15 q 144 13 199 -15 q 59 96 90 42 q 28 224 28 150 m 394 128 q 436 139 414 128 q 474 167 458 150 l 474 379 q 347 343 386 379 q 307 254 307 307 q 331 163 307 197 q 394 128 354 128 m 390 -278 q 317 -251 346 -278 q 288 -183 288 -224 q 319 -103 288 -135 q 403 -72 350 -72 q 482 -99 454 -72 q 510 -167 510 -125 q 479 -247 510 -215 q 392 -278 449 -278 l 390 -278 m 329 1218 l 464 1218 l 688 946 l 601 872 l 399 1033 l 193 871 l 110 946 l 329 1218 z "},"ầ":{"ha":797,"x_min":28,"x_max":789,"o":"m 608 1138 q 471 1224 551 1158 q 358 1346 390 1290 l 481 1457 l 694 1203 l 610 1138 l 608 1138 m 368 1143 l 479 1143 l 664 918 l 593 858 l 426 990 l 256 857 l 188 918 l 368 1143 m 28 224 q 140 413 28 346 q 474 482 251 481 l 474 503 q 465 572 474 547 q 428 610 456 597 q 347 622 401 622 q 223 608 276 622 q 113 569 169 593 l 58 683 q 201 755 103 718 q 417 792 299 792 q 600 762 533 792 q 694 669 667 732 q 722 500 722 607 l 722 103 l 789 103 l 789 3 q 694 -11 758 -4 q 583 -18 629 -18 q 505 -1 524 -18 q 486 65 486 17 l 486 90 q 398 15 454 46 q 264 -15 342 -15 q 144 13 199 -15 q 59 96 90 42 q 28 224 28 150 m 394 128 q 436 139 414 128 q 474 167 458 150 l 474 379 q 347 343 386 379 q 307 254 307 307 q 331 163 307 197 q 394 128 354 128 z "},"ẩ":{"ha":797,"x_min":28,"x_max":789,"o":"m 635 1043 q 615 1072 628 1050 q 603 1101 603 1093 q 608 1121 603 1114 q 628 1140 614 1128 q 645 1156 639 1149 q 653 1172 651 1163 l 653 1175 q 606 1217 653 1217 q 574 1214 578 1217 l 568 1335 q 584 1338 569 1336 q 610 1340 599 1340 q 689 1325 647 1340 q 760 1278 731 1310 q 789 1203 789 1247 q 774 1156 789 1175 q 741 1125 758 1138 q 718 1107 724 1113 q 703 1072 703 1092 q 706 1050 703 1058 l 635 1043 m 368 1143 l 479 1143 l 664 918 l 593 858 l 426 990 l 256 857 l 188 918 l 368 1143 m 28 224 q 140 413 28 346 q 474 482 251 481 l 474 503 q 465 572 474 547 q 428 610 456 597 q 347 622 401 622 q 223 608 276 622 q 113 569 169 593 l 58 683 q 201 755 103 718 q 417 792 299 792 q 600 762 533 792 q 694 669 667 732 q 722 500 722 607 l 722 103 l 789 103 l 789 3 q 694 -11 758 -4 q 583 -18 629 -18 q 505 -1 524 -18 q 486 65 486 17 l 486 90 q 398 15 454 46 q 264 -15 342 -15 q 144 13 199 -15 q 59 96 90 42 q 28 224 28 150 m 394 128 q 436 139 414 128 q 474 167 458 150 l 474 379 q 347 343 386 379 q 307 254 307 307 q 331 163 307 197 q 394 128 354 128 z "},"ẫ":{"ha":797,"x_min":28,"x_max":789,"o":"m 175 1265 q 247 1357 206 1319 q 357 1394 289 1394 q 422 1381 394 1394 q 481 1343 449 1368 q 526 1314 510 1322 q 564 1306 543 1306 q 613 1318 593 1306 q 653 1351 632 1331 l 713 1299 q 640 1206 679 1242 q 535 1171 600 1171 q 473 1183 500 1171 q 413 1219 446 1196 q 365 1249 383 1239 q 324 1258 347 1258 q 274 1246 294 1258 q 233 1213 254 1233 l 175 1265 m 368 1143 l 479 1143 l 664 918 l 593 858 l 426 990 l 256 857 l 188 918 l 368 1143 m 28 224 q 140 413 28 346 q 474 482 251 481 l 474 503 q 465 572 474 547 q 428 610 456 597 q 347 622 401 622 q 223 608 276 622 q 113 569 169 593 l 58 683 q 201 755 103 718 q 417 792 299 792 q 600 762 533 792 q 694 669 667 732 q 722 500 722 607 l 722 103 l 789 103 l 789 3 q 694 -11 758 -4 q 583 -18 629 -18 q 505 -1 524 -18 q 486 65 486 17 l 486 90 q 398 15 454 46 q 264 -15 342 -15 q 144 13 199 -15 q 59 96 90 42 q 28 224 28 150 m 394 128 q 436 139 414 128 q 474 167 458 150 l 474 379 q 347 343 386 379 q 307 254 307 307 q 331 163 307 197 q 394 128 354 128 z "},"ä":{"ha":797,"x_min":28,"x_max":789,"o":"m 28 224 q 140 413 28 346 q 474 482 251 481 l 474 503 q 465 572 474 547 q 428 610 456 597 q 347 622 401 622 q 223 608 276 622 q 113 569 169 593 l 58 683 q 201 755 103 718 q 417 792 299 792 q 600 762 533 792 q 694 669 667 732 q 722 500 722 607 l 722 103 l 789 103 l 789 3 q 694 -11 758 -4 q 583 -18 629 -18 q 505 -1 524 -18 q 486 65 486 17 l 486 90 q 398 15 454 46 q 264 -15 342 -15 q 144 13 199 -15 q 59 96 90 42 q 28 224 28 150 m 394 128 q 436 139 414 128 q 474 167 458 150 l 474 379 q 347 343 386 379 q 307 254 307 307 q 331 163 307 197 q 394 128 354 128 m 228 897 q 149 933 181 897 q 118 1018 118 969 q 151 1122 118 1083 q 251 1161 185 1161 q 344 1127 314 1161 q 375 1042 375 1093 q 339 937 375 976 q 228 897 303 897 m 586 897 q 508 935 539 897 q 476 1018 476 974 q 510 1122 476 1083 q 610 1161 543 1161 q 703 1127 672 1161 q 733 1042 733 1093 q 697 937 733 976 q 586 897 661 897 z "},"ạ":{"ha":797,"x_min":28,"x_max":789,"o":"m 28 224 q 140 413 28 346 q 474 482 251 481 l 474 503 q 465 572 474 547 q 428 610 456 597 q 347 622 401 622 q 223 608 276 622 q 113 569 169 593 l 58 683 q 201 755 103 718 q 417 792 299 792 q 600 762 533 792 q 694 669 667 732 q 722 500 722 607 l 722 103 l 789 103 l 789 3 q 694 -11 758 -4 q 583 -18 629 -18 q 505 -1 524 -18 q 486 65 486 17 l 486 90 q 398 15 454 46 q 264 -15 342 -15 q 144 13 199 -15 q 59 96 90 42 q 28 224 28 150 m 394 128 q 436 139 414 128 q 474 167 458 150 l 474 379 q 347 343 386 379 q 307 254 307 307 q 331 163 307 197 q 394 128 354 128 m 390 -278 q 317 -251 346 -278 q 288 -183 288 -224 q 319 -103 288 -135 q 403 -72 350 -72 q 482 -99 454 -72 q 510 -167 510 -125 q 479 -247 510 -215 q 392 -278 449 -278 l 390 -278 z "},"à":{"ha":797,"x_min":28,"x_max":789,"o":"m 418 872 q 313 931 375 888 q 195 1026 250 974 q 115 1124 140 1079 l 263 1258 l 521 951 l 419 872 l 418 872 m 28 224 q 140 413 28 346 q 474 482 251 481 l 474 503 q 465 572 474 547 q 428 610 456 597 q 347 622 401 622 q 223 608 276 622 q 113 569 169 593 l 58 683 q 201 755 103 718 q 417 792 299 792 q 600 762 533 792 q 694 669 667 732 q 722 500 722 607 l 722 103 l 789 103 l 789 3 q 694 -11 758 -4 q 583 -18 629 -18 q 505 -1 524 -18 q 486 65 486 17 l 486 90 q 398 15 454 46 q 264 -15 342 -15 q 144 13 199 -15 q 59 96 90 42 q 28 224 28 150 m 394 128 q 436 139 414 128 q 474 167 458 150 l 474 379 q 347 343 386 379 q 307 254 307 307 q 331 163 307 197 q 394 128 354 128 z "},"ả":{"ha":797,"x_min":28,"x_max":789,"o":"m 28 224 q 140 413 28 346 q 474 482 251 481 l 474 503 q 465 572 474 547 q 428 610 456 597 q 347 622 401 622 q 223 608 276 622 q 113 569 169 593 l 58 683 q 201 755 103 718 q 417 792 299 792 q 600 762 533 792 q 694 669 667 732 q 722 500 722 607 l 722 103 l 789 103 l 789 3 q 694 -11 758 -4 q 583 -18 629 -18 q 505 -1 524 -18 q 486 65 486 17 l 486 90 q 398 15 454 46 q 264 -15 342 -15 q 144 13 199 -15 q 59 96 90 42 q 28 224 28 150 m 394 128 q 436 139 414 128 q 474 167 458 150 l 474 379 q 347 343 386 379 q 307 254 307 307 q 331 163 307 197 q 394 128 354 128 m 400 838 q 376 872 392 846 q 361 907 361 897 q 368 932 361 922 q 392 954 375 942 q 422 993 418 972 l 422 997 q 410 1034 422 1021 q 365 1047 397 1047 q 326 1044 332 1047 l 319 1190 q 340 1194 322 1192 q 371 1197 357 1197 q 466 1178 415 1197 q 552 1122 517 1160 q 588 1031 588 1085 q 569 976 588 999 q 531 937 551 953 q 501 914 510 921 q 482 874 482 897 q 486 846 482 863 l 400 838 z "},"ā":{"ha":797,"x_min":28,"x_max":789,"o":"m 621 1108 l 621 958 l 165 958 l 165 1108 l 621 1108 m 28 224 q 140 413 28 346 q 474 482 251 481 l 474 503 q 465 572 474 547 q 428 610 456 597 q 347 622 401 622 q 223 608 276 622 q 113 569 169 593 l 58 683 q 201 755 103 718 q 417 792 299 792 q 600 762 533 792 q 694 669 667 732 q 722 500 722 607 l 722 103 l 789 103 l 789 3 q 694 -11 758 -4 q 583 -18 629 -18 q 505 -1 524 -18 q 486 65 486 17 l 486 90 q 398 15 454 46 q 264 -15 342 -15 q 144 13 199 -15 q 59 96 90 42 q 28 224 28 150 m 394 128 q 436 139 414 128 q 474 167 458 150 l 474 379 q 347 343 386 379 q 307 254 307 307 q 331 163 307 197 q 394 128 354 128 z "},"ą":{"ha":797,"x_min":28,"x_max":804,"o":"m 731 -194 q 763 -191 749 -194 q 787 -184 776 -187 q 804 -178 797 -181 l 803 -287 q 724 -322 775 -308 q 629 -335 674 -335 q 496 -299 554 -335 q 438 -193 438 -262 q 469 -99 438 -146 q 563 -18 500 -53 q 501 3 517 -15 q 486 65 486 21 l 486 90 q 398 15 454 46 q 264 -15 342 -15 q 144 13 199 -15 q 59 96 90 42 q 28 224 28 150 q 140 413 28 346 q 474 482 251 481 l 474 503 q 465 572 474 547 q 428 610 456 597 q 347 622 401 622 q 223 608 276 622 q 113 569 169 593 l 58 683 q 201 755 103 718 q 417 792 299 792 q 600 762 533 792 q 694 669 667 732 q 722 500 722 607 l 722 103 l 789 103 l 789 3 q 732 -6 775 -1 q 666 -63 686 -32 q 646 -126 646 -94 q 668 -176 646 -157 q 731 -194 690 -194 m 474 379 q 347 343 386 379 q 307 254 307 307 q 331 163 307 197 q 394 128 354 128 q 436 139 414 128 q 474 167 458 150 l 474 379 z "},"å":{"ha":797,"x_min":28,"x_max":789,"o":"m 28 224 q 140 413 28 346 q 474 482 251 481 l 474 503 q 465 572 474 547 q 428 610 456 597 q 347 622 401 622 q 223 608 276 622 q 113 569 169 593 l 58 683 q 201 755 103 718 q 417 792 299 792 q 600 762 533 792 q 694 669 667 732 q 722 500 722 607 l 722 103 l 789 103 l 789 3 q 694 -11 758 -4 q 583 -18 629 -18 q 505 -1 524 -18 q 486 65 486 17 l 486 90 q 398 15 454 46 q 264 -15 342 -15 q 144 13 199 -15 q 59 96 90 42 q 28 224 28 150 m 394 128 q 436 139 414 128 q 474 167 458 150 l 474 379 q 347 343 386 379 q 307 254 307 307 q 331 163 307 197 q 394 128 354 128 m 424 869 q 233 926 293 869 q 172 1075 172 983 q 249 1230 172 1175 q 436 1285 325 1285 q 621 1228 560 1285 q 682 1075 682 1171 q 608 924 681 979 q 424 869 536 869 m 428 975 q 513 998 488 975 q 538 1071 538 1021 q 511 1148 538 1119 q 429 1176 485 1176 q 343 1152 369 1176 q 317 1079 317 1128 q 344 1004 317 1033 q 428 975 372 975 z "},"ã":{"ha":797,"x_min":28,"x_max":789,"o":"m 71 1007 q 159 1117 108 1072 q 290 1163 210 1163 q 368 1147 336 1163 q 440 1101 400 1131 q 495 1066 475 1076 q 542 1056 515 1056 q 599 1070 576 1056 q 649 1111 622 1085 l 721 1047 q 633 935 682 979 q 506 892 585 892 q 431 907 463 892 q 358 951 399 922 q 301 987 325 975 q 250 999 278 999 q 192 984 215 999 q 142 943 168 969 l 71 1007 m 28 224 q 140 413 28 346 q 474 482 251 481 l 474 503 q 465 572 474 547 q 428 610 456 597 q 347 622 401 622 q 223 608 276 622 q 113 569 169 593 l 58 683 q 201 755 103 718 q 417 792 299 792 q 600 762 533 792 q 694 669 667 732 q 722 500 722 607 l 722 103 l 789 103 l 789 3 q 694 -11 758 -4 q 583 -18 629 -18 q 505 -1 524 -18 q 486 65 486 17 l 486 90 q 398 15 454 46 q 264 -15 342 -15 q 144 13 199 -15 q 59 96 90 42 q 28 224 28 150 m 394 128 q 436 139 414 128 q 474 167 458 150 l 474 379 q 347 343 386 379 q 307 254 307 307 q 331 163 307 197 q 394 128 354 128 z "},"æ":{"ha":1206,"x_min":28,"x_max":1171,"o":"m 263 -15 q 94 45 161 -15 q 28 215 28 106 q 142 411 28 342 q 478 482 256 481 q 467 565 478 536 q 426 605 456 593 q 342 617 397 617 q 219 604 271 617 q 104 568 167 592 l 50 683 q 127 728 74 703 q 256 773 181 754 q 414 792 331 792 q 549 776 497 792 q 628 729 600 761 q 856 792 719 792 q 1090 717 1010 792 q 1171 507 1169 642 q 1160 357 1171 417 l 739 357 q 793 197 749 249 q 921 146 838 146 q 1028 162 971 146 q 1122 197 1085 178 l 1164 103 q 1095 51 1143 79 q 983 4 1047 24 q 854 -15 919 -15 q 542 118 636 -15 q 426 21 503 57 q 263 -15 349 -15 m 911 458 q 913 515 913 471 q 896 643 913 600 q 835 686 879 686 q 782 669 803 686 q 749 601 761 651 q 736 458 736 551 l 911 458 m 397 128 q 456 146 426 128 q 503 190 486 164 q 472 383 472 274 q 353 344 388 382 q 318 253 318 307 q 397 128 318 128 z "},"ǽ":{"ha":1206,"x_min":28,"x_max":1171,"o":"m 263 -15 q 94 45 161 -15 q 28 215 28 106 q 142 411 28 342 q 478 482 256 481 q 467 565 478 536 q 426 605 456 593 q 342 617 397 617 q 219 604 271 617 q 104 568 167 592 l 50 683 q 127 728 74 703 q 256 773 181 754 q 414 792 331 792 q 549 776 497 792 q 628 729 600 761 q 856 792 719 792 q 1090 717 1010 792 q 1171 507 1169 642 q 1160 357 1171 417 l 739 357 q 793 197 749 249 q 921 146 838 146 q 1028 162 971 146 q 1122 197 1085 178 l 1164 103 q 1095 51 1143 79 q 983 4 1047 24 q 854 -15 919 -15 q 542 118 636 -15 q 426 21 503 57 q 263 -15 349 -15 m 911 458 q 913 515 913 471 q 896 643 913 600 q 835 686 879 686 q 782 669 803 686 q 749 601 761 651 q 736 458 736 551 l 911 458 m 397 128 q 456 146 426 128 q 503 190 486 164 q 472 383 472 274 q 353 344 388 382 q 318 253 318 307 q 397 128 318 128 m 525 951 l 783 1258 l 931 1124 q 794 976 892 1056 q 626 872 696 897 l 525 951 z "},"b":{"ha":881,"x_min":3,"x_max":842,"o":"m 3 1103 l 301 1139 l 304 1139 l 356 1108 l 356 710 q 439 768 389 744 q 544 792 489 792 q 761 699 681 792 q 842 410 842 606 q 790 192 842 289 q 642 40 739 96 q 417 -15 546 -15 q 204 3 286 -15 q 94 38 122 21 l 94 992 l 3 1013 l 3 1103 m 444 638 q 394 626 418 638 q 356 599 369 615 l 356 100 q 379 83 361 90 q 422 76 397 76 q 522 156 486 76 q 558 393 558 236 q 444 638 558 638 z "},"ḃ":{"ha":881,"x_min":3,"x_max":842,"o":"m 567 882 q 469 918 507 882 q 431 1008 431 954 q 472 1115 431 1072 q 583 1157 514 1157 q 689 1122 651 1157 q 726 1031 726 1086 q 685 924 726 965 q 568 882 644 882 l 567 882 m 417 -15 q 204 3 286 -15 q 94 38 122 21 l 94 992 l 3 1013 l 3 1103 l 301 1139 l 304 1139 l 356 1108 l 356 710 q 439 768 389 744 q 544 792 489 792 q 761 699 681 792 q 842 410 842 606 q 790 192 842 289 q 642 40 739 96 q 417 -15 546 -15 m 422 76 q 522 156 486 76 q 558 393 558 236 q 444 638 558 638 q 394 626 418 638 q 356 599 369 615 l 356 100 q 379 83 361 90 q 422 76 397 76 z "},"c":{"ha":733,"x_min":42,"x_max":699,"o":"m 42 382 q 94 601 42 508 q 237 743 146 694 q 444 792 328 792 q 552 784 508 792 q 642 763 596 776 q 697 750 674 751 l 686 479 l 521 479 l 482 649 q 464 672 478 664 q 432 679 450 679 q 356 624 383 679 q 328 422 329 568 q 365 214 328 286 q 472 142 403 142 q 574 155 531 142 q 657 190 617 168 l 699 96 q 642 49 682 75 q 541 4 601 24 q 411 -15 481 -15 q 131 92 221 -15 q 42 382 42 199 z "},"ć":{"ha":733,"x_min":42,"x_max":708,"o":"m 42 382 q 94 601 42 508 q 237 743 146 694 q 444 792 328 792 q 552 784 508 792 q 642 763 596 776 q 697 750 674 751 l 686 479 l 521 479 l 482 649 q 464 672 478 664 q 432 679 450 679 q 356 624 383 679 q 328 422 329 568 q 365 214 328 286 q 472 142 403 142 q 574 155 531 142 q 657 190 617 168 l 699 96 q 642 49 682 75 q 541 4 601 24 q 411 -15 481 -15 q 131 92 221 -15 q 42 382 42 199 m 303 951 l 561 1258 l 708 1124 q 572 976 669 1056 q 404 872 474 897 l 303 951 z "},"č":{"ha":731,"x_min":39,"x_max":711,"o":"m 217 1221 l 421 1054 l 626 1222 l 711 1149 l 488 875 l 353 875 l 133 1149 l 217 1221 m 39 382 q 91 601 39 508 q 234 743 143 694 q 442 792 325 792 q 549 784 506 792 q 639 763 593 776 q 694 750 671 751 l 683 479 l 518 479 l 479 649 q 461 672 475 664 q 429 679 447 679 q 353 624 381 679 q 325 422 326 568 q 363 214 325 286 q 469 142 400 142 q 571 155 528 142 q 654 190 614 168 l 696 96 q 639 49 679 75 q 538 4 599 24 q 408 -15 478 -15 q 128 92 218 -15 q 39 382 39 199 z "},"ç":{"ha":733,"x_min":42,"x_max":699,"o":"m 699 96 q 614 35 675 68 q 475 -11 553 1 q 535 -97 510 -47 q 558 -201 561 -147 q 499 -330 553 -293 q 338 -367 446 -367 q 285 -360 314 -367 q 239 -346 257 -354 l 239 -201 q 294 -210 268 -210 q 348 -203 329 -210 q 377 -177 367 -197 q 388 -115 388 -157 q 356 -12 388 -69 q 118 108 194 3 q 42 382 42 213 q 94 601 42 508 q 237 743 146 694 q 444 792 328 792 q 552 784 508 792 q 642 763 596 776 q 697 750 674 751 l 686 479 l 521 479 l 482 649 q 464 672 478 664 q 432 679 450 679 q 356 624 383 679 q 328 422 329 568 q 365 214 328 286 q 472 142 403 142 q 574 155 531 142 q 657 190 617 168 l 699 96 z "},"ĉ":{"ha":731,"x_min":39,"x_max":713,"o":"m 354 1219 l 489 1219 l 713 947 l 626 874 l 424 1035 l 218 872 l 135 947 l 354 1219 m 39 382 q 91 601 39 508 q 234 743 143 694 q 442 792 325 792 q 549 784 506 792 q 639 763 593 776 q 694 750 671 751 l 683 479 l 518 479 l 479 649 q 461 672 475 664 q 429 679 447 679 q 353 624 381 679 q 325 422 326 568 q 363 214 325 286 q 469 142 400 142 q 571 155 528 142 q 654 190 614 168 l 696 96 q 639 49 679 75 q 538 4 599 24 q 408 -15 478 -15 q 128 92 218 -15 q 39 382 39 199 z "},"ċ":{"ha":733,"x_min":42,"x_max":699,"o":"m 404 881 q 306 917 344 881 q 268 1007 268 953 q 310 1113 268 1071 q 421 1156 351 1156 q 526 1120 489 1156 q 564 1029 564 1085 q 523 922 564 964 q 406 881 482 881 l 404 881 m 42 382 q 94 601 42 508 q 237 743 146 694 q 444 792 328 792 q 552 784 508 792 q 642 763 596 776 q 697 750 674 751 l 686 479 l 521 479 l 482 649 q 464 672 478 664 q 432 679 450 679 q 356 624 383 679 q 328 422 329 568 q 365 214 328 286 q 472 142 403 142 q 574 155 531 142 q 657 190 617 168 l 699 96 q 642 49 682 75 q 541 4 601 24 q 411 -15 481 -15 q 131 92 221 -15 q 42 382 42 199 z "},"d":{"ha":879,"x_min":39,"x_max":853,"o":"m 339 -15 q 121 79 203 -15 q 39 368 39 174 q 86 578 39 482 q 229 733 133 675 q 464 792 325 792 q 524 785 493 792 l 524 986 l 394 1008 l 394 1110 l 731 1139 l 738 1139 l 786 1101 l 786 104 l 853 104 l 853 3 q 756 -12 811 -6 q 660 -18 701 -18 q 581 -1 604 -18 q 557 65 557 17 l 557 96 q 463 15 525 46 q 339 -15 401 -15 m 435 124 q 524 164 492 124 l 524 664 q 497 680 515 674 q 458 686 479 686 q 321 385 321 686 q 351 188 321 251 q 435 124 382 124 z "},"ð":{"ha":854,"x_min":40,"x_max":819,"o":"m 419 -15 q 215 33 300 -15 q 85 170 129 82 q 40 376 40 258 q 91 606 40 513 q 224 746 142 700 q 397 792 306 792 q 517 772 468 792 q 360 992 488 901 l 275 874 l 171 944 l 263 1061 q 124 1128 174 1117 l 168 1235 q 260 1212 219 1224 q 353 1176 301 1200 l 439 1292 l 539 1215 l 460 1115 q 718 844 617 1008 q 819 464 819 679 q 782 232 819 340 q 655 54 744 124 q 419 -15 565 -15 m 433 94 q 514 169 486 94 q 542 424 542 243 q 533 559 542 493 q 517 657 525 625 q 432 688 481 688 q 356 623 381 688 q 331 406 331 558 q 356 184 331 274 q 433 94 381 94 z "},"ď":{"ha":1086,"x_min":39,"x_max":1100,"o":"m 339 -15 q 121 79 203 -15 q 39 368 39 174 q 86 578 39 482 q 229 733 133 675 q 464 792 325 792 q 524 785 493 792 l 524 986 l 394 1008 l 394 1110 l 731 1139 l 738 1139 l 786 1101 l 786 104 l 853 104 l 853 3 q 756 -12 811 -6 q 660 -18 701 -18 q 581 -1 604 -18 q 557 65 557 17 l 557 96 q 463 15 525 46 q 339 -15 401 -15 m 435 124 q 524 164 492 124 l 524 664 q 497 680 515 674 q 458 686 479 686 q 321 385 321 686 q 351 188 321 251 q 435 124 382 124 m 906 672 l 900 690 q 913 765 908 722 q 917 904 917 808 q 904 1023 917 978 q 879 1086 892 1068 l 885 1115 l 1061 1153 q 1088 1085 1076 1133 q 1100 967 1100 1036 q 1085 819 1100 888 q 1049 706 1069 751 q 1015 646 1029 660 l 906 672 z "},"đ":{"ha":881,"x_min":40,"x_max":883,"o":"m 524 986 l 394 1008 l 394 1110 l 731 1139 l 738 1139 l 786 1101 l 786 943 l 883 943 l 883 846 l 786 846 l 786 104 l 854 104 l 854 3 q 661 -18 740 -18 q 581 -1 606 -18 q 557 65 557 17 l 557 96 q 464 15 525 46 q 340 -15 403 -15 q 122 79 204 -15 q 40 368 40 174 q 88 578 40 482 q 231 733 135 675 q 465 792 326 792 q 524 785 493 792 l 524 846 l 340 846 l 340 943 l 524 943 l 524 986 m 436 124 q 524 164 494 124 l 524 664 q 499 680 517 674 q 458 686 481 686 q 322 385 322 686 q 353 188 322 251 q 436 124 383 124 z "},"ḋ":{"ha":879,"x_min":0,"x_max":853,"o":"m 339 -15 q 121 79 203 -15 q 39 368 39 174 q 86 578 39 482 q 229 733 133 675 q 464 792 325 792 q 524 785 493 792 l 524 986 l 394 1008 l 394 1110 l 731 1139 l 738 1139 l 786 1101 l 786 104 l 853 104 l 853 3 q 756 -12 811 -6 q 660 -18 701 -18 q 581 -1 604 -18 q 557 65 557 17 l 557 96 q 463 15 525 46 q 339 -15 401 -15 m 435 124 q 524 164 492 124 l 524 664 q 497 680 515 674 q 458 686 479 686 q 321 385 321 686 q 351 188 321 251 q 435 124 382 124 m 136 826 q 38 863 76 826 q 0 953 0 899 q 42 1059 0 1017 q 153 1101 83 1101 q 258 1066 221 1101 q 296 975 296 1031 q 255 868 296 910 q 138 826 214 826 l 136 826 z "},"ǳ":{"ha":1664,"x_min":17,"x_max":1638,"o":"m 1124 -15 q 906 79 988 -15 q 824 368 824 174 q 871 578 824 482 q 1014 733 918 675 q 1249 792 1110 792 q 1308 785 1278 792 l 1308 986 l 1179 1008 l 1179 1110 l 1515 1139 l 1522 1139 l 1571 1101 l 1571 104 l 1638 104 l 1638 3 q 1541 -12 1596 -6 q 1444 -18 1486 -18 q 1365 -1 1389 -18 q 1342 65 1342 17 l 1342 96 q 1248 15 1310 46 q 1124 -15 1186 -15 m 457 668 l 233 657 l 190 517 l 69 517 l 69 772 l 713 772 l 753 682 l 438 219 l 336 103 l 563 119 l 639 286 l 754 272 l 735 0 l 61 0 l 17 96 l 346 543 l 457 668 m 1219 124 q 1308 164 1276 124 l 1308 664 q 1282 680 1300 674 q 1243 686 1264 686 q 1106 385 1106 686 q 1136 188 1106 251 q 1219 124 1167 124 z "},"ǆ":{"ha":1665,"x_min":39,"x_max":1635,"o":"m 1114 1222 l 1318 1056 l 1524 1224 l 1608 1150 l 1385 876 l 1250 876 l 1031 1150 l 1114 1222 m 339 -15 q 121 79 203 -15 q 39 368 39 174 q 86 578 39 482 q 229 733 133 675 q 464 792 325 792 q 524 785 493 792 l 524 986 l 394 1008 l 394 1110 l 731 1139 l 738 1139 l 786 1101 l 786 104 l 853 104 l 853 3 q 756 -12 811 -6 q 660 -18 701 -18 q 581 -1 604 -18 q 557 65 557 17 l 557 96 q 463 15 525 46 q 339 -15 401 -15 m 1338 668 l 1114 657 l 1071 517 l 950 517 l 950 772 l 1593 772 l 1633 682 l 1318 219 l 1217 103 l 1443 119 l 1519 286 l 1635 272 l 1615 0 l 942 0 l 897 96 l 1226 543 l 1338 668 m 435 124 q 524 164 492 124 l 524 664 q 497 680 515 674 q 458 686 479 686 q 321 385 321 686 q 351 188 321 251 q 435 124 382 124 z "},"e":{"ha":776,"x_min":36,"x_max":740,"o":"m 422 -15 q 128 91 221 -15 q 36 385 36 197 q 140 686 36 581 q 425 792 243 792 q 658 717 578 792 q 740 507 738 642 q 726 357 740 419 l 313 357 q 367 197 322 249 q 494 146 411 146 q 597 162 543 146 q 688 199 650 178 l 732 103 q 663 51 711 79 q 551 4 615 24 q 422 -15 488 -15 m 485 458 l 486 515 q 469 644 486 601 q 407 686 451 686 q 355 669 375 686 q 322 601 335 651 q 310 458 310 551 l 485 458 z "},"é":{"ha":776,"x_min":36,"x_max":740,"o":"m 422 -15 q 128 91 221 -15 q 36 385 36 197 q 140 686 36 581 q 425 792 243 792 q 658 717 578 792 q 740 507 738 642 q 726 357 740 419 l 313 357 q 367 197 322 249 q 494 146 411 146 q 597 162 543 146 q 688 199 650 178 l 732 103 q 663 51 711 79 q 551 4 615 24 q 422 -15 488 -15 m 485 458 l 486 515 q 469 644 486 601 q 407 686 451 686 q 355 669 375 686 q 322 601 335 651 q 310 458 310 551 l 485 458 m 293 951 l 551 1258 l 699 1124 q 562 976 660 1056 q 394 872 464 897 l 293 951 z "},"ĕ":{"ha":776,"x_min":36,"x_max":740,"o":"m 422 -15 q 128 91 221 -15 q 36 385 36 197 q 140 686 36 581 q 425 792 243 792 q 658 717 578 792 q 740 507 738 642 q 726 357 740 419 l 313 357 q 367 197 322 249 q 494 146 411 146 q 597 162 543 146 q 688 199 650 178 l 732 103 q 663 51 711 79 q 551 4 615 24 q 422 -15 488 -15 m 485 458 l 486 515 q 469 644 486 601 q 407 686 451 686 q 355 669 375 686 q 322 601 335 651 q 310 458 310 551 l 485 458 m 401 892 q 262 922 322 892 q 168 1006 201 953 q 135 1125 135 1060 q 138 1203 135 1188 l 256 1203 q 257 1171 256 1182 q 401 1064 275 1064 q 543 1169 525 1064 q 546 1203 546 1194 l 661 1203 l 663 1126 q 629 1006 663 1060 q 536 922 596 953 q 401 892 476 892 z "},"ě":{"ha":776,"x_min":36,"x_max":740,"o":"m 422 -15 q 128 91 221 -15 q 36 385 36 197 q 140 686 36 581 q 425 792 243 792 q 658 717 578 792 q 740 507 738 642 q 726 357 740 419 l 313 357 q 367 197 322 249 q 494 146 411 146 q 597 162 543 146 q 688 199 650 178 l 732 103 q 663 51 711 79 q 551 4 615 24 q 422 -15 488 -15 m 485 458 l 486 515 q 469 644 486 601 q 407 686 451 686 q 355 669 375 686 q 322 601 335 651 q 310 458 310 551 l 485 458 m 193 1222 l 397 1056 l 603 1224 l 688 1150 l 464 876 l 329 876 l 110 1150 l 193 1222 z "},"ê":{"ha":776,"x_min":36,"x_max":740,"o":"m 422 -15 q 128 91 221 -15 q 36 385 36 197 q 140 686 36 581 q 425 792 243 792 q 658 717 578 792 q 740 507 738 642 q 726 357 740 419 l 313 357 q 367 197 322 249 q 494 146 411 146 q 597 162 543 146 q 688 199 650 178 l 732 103 q 663 51 711 79 q 551 4 615 24 q 422 -15 488 -15 m 485 458 l 486 515 q 469 644 486 601 q 407 686 451 686 q 355 669 375 686 q 322 601 335 651 q 310 458 310 551 l 485 458 m 329 1221 l 464 1221 l 688 949 l 601 875 l 399 1036 l 193 874 l 110 949 l 329 1221 z "},"ế":{"ha":776,"x_min":36,"x_max":908,"o":"m 572 1078 l 786 1332 l 908 1221 q 794 1099 875 1164 q 657 1013 714 1033 l 572 1078 m 340 1143 l 451 1143 l 636 918 l 565 858 l 399 990 l 228 857 l 160 918 l 340 1143 m 422 -15 q 128 91 221 -15 q 36 385 36 197 q 140 686 36 581 q 425 792 243 792 q 658 717 578 792 q 740 507 738 642 q 726 357 740 419 l 313 357 q 367 197 322 249 q 494 146 411 146 q 597 162 543 146 q 688 199 650 178 l 732 103 q 663 51 711 79 q 551 4 615 24 q 422 -15 488 -15 m 485 458 l 486 515 q 469 644 486 601 q 407 686 451 686 q 355 669 375 686 q 322 601 335 651 q 310 458 310 551 l 485 458 z "},"ệ":{"ha":776,"x_min":36,"x_max":740,"o":"m 422 -15 q 128 91 221 -15 q 36 385 36 197 q 140 686 36 581 q 425 792 243 792 q 658 717 578 792 q 740 507 738 642 q 726 357 740 419 l 313 357 q 367 197 322 249 q 494 146 411 146 q 597 162 543 146 q 688 199 650 178 l 732 103 q 663 51 711 79 q 551 4 615 24 q 422 -15 488 -15 m 485 458 l 486 515 q 469 644 486 601 q 407 686 451 686 q 355 669 375 686 q 322 601 335 651 q 310 458 310 551 l 485 458 m 381 -278 q 307 -251 336 -278 q 278 -183 278 -224 q 309 -103 278 -135 q 393 -72 340 -72 q 472 -99 444 -72 q 500 -167 500 -125 q 469 -247 500 -215 q 382 -278 439 -278 l 381 -278 m 319 1224 l 454 1224 l 678 951 l 592 878 l 389 1039 l 183 876 l 100 951 l 319 1224 z "},"ề":{"ha":776,"x_min":36,"x_max":740,"o":"m 581 1138 q 443 1224 524 1158 q 331 1346 363 1290 l 453 1457 l 667 1203 l 582 1138 l 581 1138 m 340 1143 l 451 1143 l 636 918 l 565 858 l 399 990 l 228 857 l 160 918 l 340 1143 m 422 -15 q 128 91 221 -15 q 36 385 36 197 q 140 686 36 581 q 425 792 243 792 q 658 717 578 792 q 740 507 738 642 q 726 357 740 419 l 313 357 q 367 197 322 249 q 494 146 411 146 q 597 162 543 146 q 688 199 650 178 l 732 103 q 663 51 711 79 q 551 4 615 24 q 422 -15 488 -15 m 485 458 l 486 515 q 469 644 486 601 q 407 686 451 686 q 355 669 375 686 q 322 601 335 651 q 310 458 310 551 l 485 458 z "},"ể":{"ha":776,"x_min":36,"x_max":761,"o":"m 607 1043 q 588 1072 600 1050 q 575 1101 575 1093 q 581 1121 575 1114 q 600 1140 586 1128 q 617 1156 611 1149 q 625 1172 624 1163 l 625 1175 q 578 1217 625 1217 q 546 1214 550 1217 l 540 1335 q 556 1338 542 1336 q 582 1340 571 1340 q 661 1325 619 1340 q 732 1278 703 1310 q 761 1203 761 1247 q 746 1156 761 1175 q 713 1125 731 1138 q 690 1107 696 1113 q 675 1072 675 1092 q 678 1050 675 1058 l 607 1043 m 340 1143 l 451 1143 l 636 918 l 565 858 l 399 990 l 228 857 l 160 918 l 340 1143 m 422 -15 q 128 91 221 -15 q 36 385 36 197 q 140 686 36 581 q 425 792 243 792 q 658 717 578 792 q 740 507 738 642 q 726 357 740 419 l 313 357 q 367 197 322 249 q 494 146 411 146 q 597 162 543 146 q 688 199 650 178 l 732 103 q 663 51 711 79 q 551 4 615 24 q 422 -15 488 -15 m 485 458 l 486 515 q 469 644 486 601 q 407 686 451 686 q 355 669 375 686 q 322 601 335 651 q 310 458 310 551 l 485 458 z "},"ễ":{"ha":776,"x_min":36,"x_max":740,"o":"m 147 1265 q 219 1357 178 1319 q 329 1394 261 1394 q 394 1381 367 1394 q 453 1343 421 1368 q 499 1314 482 1322 q 536 1306 515 1306 q 585 1318 565 1306 q 625 1351 604 1331 l 685 1299 q 612 1206 651 1242 q 507 1171 572 1171 q 445 1183 472 1171 q 385 1219 418 1196 q 338 1249 356 1239 q 296 1258 319 1258 q 247 1246 267 1258 q 206 1213 226 1233 l 147 1265 m 340 1143 l 451 1143 l 636 918 l 565 858 l 399 990 l 228 857 l 160 918 l 340 1143 m 422 -15 q 128 91 221 -15 q 36 385 36 197 q 140 686 36 581 q 425 792 243 792 q 658 717 578 792 q 740 507 738 642 q 726 357 740 419 l 313 357 q 367 197 322 249 q 494 146 411 146 q 597 162 543 146 q 688 199 650 178 l 732 103 q 663 51 711 79 q 551 4 615 24 q 422 -15 488 -15 m 485 458 l 486 515 q 469 644 486 601 q 407 686 451 686 q 355 669 375 686 q 322 601 335 651 q 310 458 310 551 l 485 458 z "},"ë":{"ha":776,"x_min":36,"x_max":740,"o":"m 422 -15 q 128 91 221 -15 q 36 385 36 197 q 140 686 36 581 q 425 792 243 792 q 658 717 578 792 q 740 507 738 642 q 726 357 740 419 l 313 357 q 367 197 322 249 q 494 146 411 146 q 597 162 543 146 q 688 199 650 178 l 732 103 q 663 51 711 79 q 551 4 615 24 q 422 -15 488 -15 m 485 458 l 486 515 q 469 644 486 601 q 407 686 451 686 q 355 669 375 686 q 322 601 335 651 q 310 458 310 551 l 485 458 m 200 897 q 122 933 153 897 q 90 1018 90 969 q 124 1122 90 1083 q 224 1161 157 1161 q 317 1127 286 1161 q 347 1042 347 1093 q 311 937 347 976 q 200 897 275 897 m 558 897 q 480 935 511 897 q 449 1018 449 974 q 482 1122 449 1083 q 582 1161 515 1161 q 675 1127 644 1161 q 706 1042 706 1093 q 669 937 706 976 q 558 897 633 897 z "},"ė":{"ha":776,"x_min":36,"x_max":740,"o":"m 422 -15 q 128 91 221 -15 q 36 385 36 197 q 140 686 36 581 q 425 792 243 792 q 658 717 578 792 q 740 507 738 642 q 726 357 740 419 l 313 357 q 367 197 322 249 q 494 146 411 146 q 597 162 543 146 q 688 199 650 178 l 732 103 q 663 51 711 79 q 551 4 615 24 q 422 -15 488 -15 m 485 458 l 486 515 q 469 644 486 601 q 407 686 451 686 q 355 669 375 686 q 322 601 335 651 q 310 458 310 551 l 485 458 m 386 882 q 288 918 326 882 q 250 1008 250 954 q 292 1115 250 1072 q 403 1157 333 1157 q 508 1122 471 1157 q 546 1031 546 1086 q 505 924 546 965 q 388 882 464 882 l 386 882 z "},"ẹ":{"ha":776,"x_min":36,"x_max":740,"o":"m 422 -15 q 128 91 221 -15 q 36 385 36 197 q 140 686 36 581 q 425 792 243 792 q 658 717 578 792 q 740 507 738 642 q 726 357 740 419 l 313 357 q 367 197 322 249 q 494 146 411 146 q 597 162 543 146 q 688 199 650 178 l 732 103 q 663 51 711 79 q 551 4 615 24 q 422 -15 488 -15 m 485 458 l 486 515 q 469 644 486 601 q 407 686 451 686 q 355 669 375 686 q 322 601 335 651 q 310 458 310 551 l 485 458 m 381 -278 q 307 -251 336 -278 q 278 -183 278 -224 q 309 -103 278 -135 q 393 -72 340 -72 q 472 -99 444 -72 q 500 -167 500 -125 q 469 -247 500 -215 q 382 -278 439 -278 l 381 -278 z "},"è":{"ha":776,"x_min":36,"x_max":740,"o":"m 422 -15 q 128 91 221 -15 q 36 385 36 197 q 140 686 36 581 q 425 792 243 792 q 658 717 578 792 q 740 507 738 642 q 726 357 740 419 l 313 357 q 367 197 322 249 q 494 146 411 146 q 597 162 543 146 q 688 199 650 178 l 732 103 q 663 51 711 79 q 551 4 615 24 q 422 -15 488 -15 m 485 458 l 486 515 q 469 644 486 601 q 407 686 451 686 q 355 669 375 686 q 322 601 335 651 q 310 458 310 551 l 485 458 m 415 872 q 310 931 372 888 q 192 1026 247 974 q 113 1124 138 1079 l 260 1258 l 518 951 l 417 872 l 415 872 z "},"ẻ":{"ha":776,"x_min":36,"x_max":740,"o":"m 422 -15 q 128 91 221 -15 q 36 385 36 197 q 140 686 36 581 q 425 792 243 792 q 658 717 578 792 q 740 507 738 642 q 726 357 740 419 l 313 357 q 367 197 322 249 q 494 146 411 146 q 597 162 543 146 q 688 199 650 178 l 732 103 q 663 51 711 79 q 551 4 615 24 q 422 -15 488 -15 m 485 458 l 486 515 q 469 644 486 601 q 407 686 451 686 q 355 669 375 686 q 322 601 335 651 q 310 458 310 551 l 485 458 m 372 838 q 349 872 364 846 q 333 907 333 897 q 340 932 333 922 q 364 954 347 942 q 394 993 390 972 l 394 997 q 382 1034 394 1021 q 338 1047 369 1047 q 299 1044 304 1047 l 292 1190 q 312 1194 294 1192 q 343 1197 329 1197 q 438 1178 388 1197 q 524 1122 489 1160 q 560 1031 560 1085 q 542 976 560 999 q 503 937 524 953 q 474 914 482 921 q 454 874 454 897 q 458 846 454 863 l 372 838 z "},"ē":{"ha":776,"x_min":36,"x_max":740,"o":"m 422 -15 q 128 91 221 -15 q 36 385 36 197 q 140 686 36 581 q 425 792 243 792 q 658 717 578 792 q 740 507 738 642 q 726 357 740 419 l 313 357 q 367 197 322 249 q 494 146 411 146 q 597 162 543 146 q 688 199 650 178 l 732 103 q 663 51 711 79 q 551 4 615 24 q 422 -15 488 -15 m 485 458 l 486 515 q 469 644 486 601 q 407 686 451 686 q 355 669 375 686 q 322 601 335 651 q 310 458 310 551 l 485 458 m 626 1108 l 626 958 l 171 958 l 171 1108 l 626 1108 z "},"ę":{"ha":776,"x_min":36,"x_max":740,"o":"m 494 146 q 597 162 543 146 q 688 199 650 178 l 732 103 q 658 49 710 78 q 544 3 607 21 q 466 -58 490 -24 q 442 -126 442 -92 q 464 -176 442 -157 q 526 -194 486 -194 q 558 -191 544 -194 q 583 -184 572 -187 q 600 -178 593 -181 l 599 -287 q 520 -322 571 -308 q 425 -335 469 -335 q 292 -299 350 -335 q 233 -193 233 -262 q 267 -97 233 -144 q 367 -12 300 -49 q 115 107 194 3 q 36 385 36 211 q 140 686 36 581 q 425 792 243 792 q 658 717 578 792 q 740 507 738 642 q 726 357 740 419 l 313 357 q 367 197 322 249 q 494 146 411 146 m 407 686 q 355 669 375 686 q 322 601 335 651 q 310 458 310 551 l 485 458 l 486 515 q 469 644 486 601 q 407 686 451 686 z "},"ẽ":{"ha":776,"x_min":36,"x_max":740,"o":"m 422 -15 q 128 91 221 -15 q 36 385 36 197 q 140 686 36 581 q 425 792 243 792 q 658 717 578 792 q 740 507 738 642 q 726 357 740 419 l 313 357 q 367 197 322 249 q 494 146 411 146 q 597 162 543 146 q 688 199 650 178 l 732 103 q 663 51 711 79 q 551 4 615 24 q 422 -15 488 -15 m 485 458 l 486 515 q 469 644 486 601 q 407 686 451 686 q 355 669 375 686 q 322 601 335 651 q 310 458 310 551 l 485 458 m 74 1007 q 162 1117 111 1072 q 293 1163 213 1163 q 371 1147 339 1163 q 443 1101 403 1131 q 498 1066 478 1076 q 544 1056 518 1056 q 602 1070 579 1056 q 651 1111 625 1085 l 724 1047 q 636 935 685 979 q 508 892 588 892 q 433 907 465 892 q 361 951 401 922 q 304 987 328 975 q 253 999 281 999 q 194 984 218 999 q 144 943 169 969 l 74 1007 z "},"f":{"ha":582,"x_min":38,"x_max":625,"o":"m 138 644 l 40 644 l 40 740 l 138 769 l 138 825 q 190 1000 138 921 q 331 1124 242 1079 q 526 1169 421 1169 q 600 1162 576 1169 q 625 1154 624 1154 l 625 921 q 562 959 610 940 q 471 978 514 978 q 419 960 433 978 q 404 901 404 942 l 404 771 l 560 771 l 560 644 l 404 644 l 404 117 l 539 103 l 539 0 l 38 0 l 38 103 l 138 117 l 138 644 z "},"ḟ":{"ha":582,"x_min":4,"x_max":625,"o":"m 140 1090 q 42 1126 81 1090 q 4 1217 4 1163 q 46 1323 4 1281 q 157 1365 88 1365 q 263 1330 225 1365 q 300 1239 300 1294 q 259 1132 300 1174 q 142 1090 218 1090 l 140 1090 m 138 644 l 40 644 l 40 740 l 138 769 l 138 825 q 190 1000 138 921 q 331 1124 242 1079 q 526 1169 421 1169 q 600 1162 576 1169 q 625 1154 624 1154 l 625 921 q 562 959 610 940 q 471 978 514 978 q 419 960 433 978 q 404 901 404 942 l 404 771 l 560 771 l 560 644 l 404 644 l 404 117 l 539 103 l 539 0 l 38 0 l 38 103 l 138 117 l 138 644 z "},"g":{"ha":893,"x_min":31,"x_max":888,"o":"m 406 -375 q 119 -313 207 -375 q 31 -151 31 -251 q 67 -49 31 -99 q 163 24 104 1 q 99 144 99 63 q 130 228 99 188 q 214 292 161 269 q 90 383 126 321 q 53 533 53 444 q 101 671 53 613 q 234 760 150 729 q 421 792 318 792 q 692 725 610 792 q 752 774 711 751 q 836 796 793 796 l 888 796 l 888 603 l 757 603 q 761 543 761 574 q 672 340 763 414 q 400 265 581 265 q 286 274 335 265 q 279 221 279 239 q 310 168 279 182 q 426 154 342 154 l 563 154 q 793 101 715 154 q 871 -64 871 49 q 803 -232 871 -161 q 629 -339 736 -303 q 406 -375 522 -375 m 414 368 q 482 410 463 368 q 501 529 501 451 q 481 656 501 617 q 415 694 461 694 q 343 653 365 694 q 321 536 321 613 q 343 409 321 450 q 414 368 365 368 m 438 -258 q 541 -222 499 -258 q 583 -114 583 -185 q 556 -36 583 -58 q 468 -14 529 -14 l 336 -14 l 304 -12 q 293 -103 293 -46 q 328 -217 293 -176 q 438 -258 364 -258 z "},"ğ":{"ha":893,"x_min":31,"x_max":888,"o":"m 406 -375 q 119 -313 207 -375 q 31 -151 31 -251 q 67 -49 31 -99 q 163 24 104 1 q 99 144 99 63 q 130 228 99 188 q 214 292 161 269 q 90 383 126 321 q 53 533 53 444 q 101 671 53 613 q 234 760 150 729 q 421 792 318 792 q 692 725 610 792 q 752 774 711 751 q 836 796 793 796 l 888 796 l 888 603 l 757 603 q 761 543 761 574 q 672 340 763 414 q 400 265 581 265 q 286 274 335 265 q 279 221 279 239 q 310 168 279 182 q 426 154 342 154 l 563 154 q 793 101 715 154 q 871 -64 871 49 q 803 -232 871 -161 q 629 -339 736 -303 q 406 -375 522 -375 m 414 368 q 482 410 463 368 q 501 529 501 451 q 481 656 501 617 q 415 694 461 694 q 343 653 365 694 q 321 536 321 613 q 343 409 321 450 q 414 368 365 368 m 438 -258 q 541 -222 499 -258 q 583 -114 583 -185 q 556 -36 583 -58 q 468 -14 529 -14 l 336 -14 l 304 -12 q 293 -103 293 -46 q 328 -217 293 -176 q 438 -258 364 -258 m 422 892 q 283 922 343 892 q 189 1006 222 953 q 156 1125 156 1060 q 158 1203 156 1188 l 276 1203 q 278 1171 276 1182 q 422 1064 296 1064 q 564 1169 546 1064 q 567 1203 567 1194 l 682 1203 l 683 1126 q 650 1006 683 1060 q 557 922 617 953 q 422 892 497 892 z "},"ĝ":{"ha":893,"x_min":31,"x_max":888,"o":"m 406 -375 q 119 -313 207 -375 q 31 -151 31 -251 q 67 -49 31 -99 q 163 24 104 1 q 99 144 99 63 q 130 228 99 188 q 214 292 161 269 q 90 383 126 321 q 53 533 53 444 q 101 671 53 613 q 234 760 150 729 q 421 792 318 792 q 692 725 610 792 q 752 774 711 751 q 836 796 793 796 l 888 796 l 888 603 l 757 603 q 761 543 761 574 q 672 340 763 414 q 400 265 581 265 q 286 274 335 265 q 279 221 279 239 q 310 168 279 182 q 426 154 342 154 l 563 154 q 793 101 715 154 q 871 -64 871 49 q 803 -232 871 -161 q 629 -339 736 -303 q 406 -375 522 -375 m 414 368 q 482 410 463 368 q 501 529 501 451 q 481 656 501 617 q 415 694 461 694 q 343 653 365 694 q 321 536 321 613 q 343 409 321 450 q 414 368 365 368 m 438 -258 q 541 -222 499 -258 q 583 -114 583 -185 q 556 -36 583 -58 q 468 -14 529 -14 l 336 -14 l 304 -12 q 293 -103 293 -46 q 328 -217 293 -176 q 438 -258 364 -258 m 350 1221 l 485 1221 l 708 949 l 622 875 l 419 1036 l 214 874 l 131 949 l 350 1221 z "},"ģ":{"ha":893,"x_min":31,"x_max":888,"o":"m 406 -375 q 119 -313 207 -375 q 31 -151 31 -251 q 67 -49 31 -99 q 163 24 104 1 q 99 144 99 63 q 130 228 99 188 q 214 292 161 269 q 90 383 126 321 q 53 533 53 444 q 101 671 53 613 q 234 760 150 729 q 421 792 318 792 q 692 725 610 792 q 752 774 711 751 q 836 796 793 796 l 888 796 l 888 603 l 757 603 q 761 543 761 574 q 672 340 763 414 q 400 265 581 265 q 286 274 335 265 q 279 221 279 239 q 310 168 279 182 q 426 154 342 154 l 563 154 q 793 101 715 154 q 871 -64 871 49 q 803 -232 871 -161 q 629 -339 736 -303 q 406 -375 522 -375 m 414 368 q 482 410 463 368 q 501 529 501 451 q 481 656 501 617 q 415 694 461 694 q 343 653 365 694 q 321 536 321 613 q 343 409 321 450 q 414 368 365 368 m 438 -258 q 541 -222 499 -258 q 583 -114 583 -185 q 556 -36 583 -58 q 468 -14 529 -14 l 336 -14 l 304 -12 q 293 -103 293 -46 q 328 -217 293 -176 q 438 -258 364 -258 m 415 881 q 331 910 363 881 q 299 993 299 939 q 320 1085 299 1039 q 371 1163 342 1131 q 421 1201 400 1194 l 424 1201 l 507 1183 l 511 1172 q 490 1141 499 1167 q 482 1090 482 1115 q 507 1042 482 1057 q 540 971 540 1018 q 503 902 540 924 q 419 881 465 881 l 415 881 z "},"ġ":{"ha":893,"x_min":31,"x_max":888,"o":"m 406 -375 q 119 -313 207 -375 q 31 -151 31 -251 q 67 -49 31 -99 q 163 24 104 1 q 99 144 99 63 q 130 228 99 188 q 214 292 161 269 q 90 383 126 321 q 53 533 53 444 q 101 671 53 613 q 234 760 150 729 q 421 792 318 792 q 692 725 610 792 q 752 774 711 751 q 836 796 793 796 l 888 796 l 888 603 l 757 603 q 761 543 761 574 q 672 340 763 414 q 400 265 581 265 q 286 274 335 265 q 279 221 279 239 q 310 168 279 182 q 426 154 342 154 l 563 154 q 793 101 715 154 q 871 -64 871 49 q 803 -232 871 -161 q 629 -339 736 -303 q 406 -375 522 -375 m 414 368 q 482 410 463 368 q 501 529 501 451 q 481 656 501 617 q 415 694 461 694 q 343 653 365 694 q 321 536 321 613 q 343 409 321 450 q 414 368 365 368 m 438 -258 q 541 -222 499 -258 q 583 -114 583 -185 q 556 -36 583 -58 q 468 -14 529 -14 l 336 -14 l 304 -12 q 293 -103 293 -46 q 328 -217 293 -176 q 438 -258 364 -258 m 407 882 q 309 918 347 882 q 271 1008 271 954 q 313 1115 271 1072 q 424 1157 354 1157 q 529 1122 492 1157 q 567 1031 567 1086 q 526 924 567 965 q 408 882 485 882 l 407 882 z "},"h":{"ha":953,"x_min":24,"x_max":933,"o":"m 114 986 l 24 1007 l 24 1103 l 329 1139 l 333 1139 l 379 1106 l 381 815 l 367 689 q 477 758 411 729 q 631 788 543 788 q 767 756 718 788 q 835 660 815 724 q 854 492 854 597 l 854 117 l 933 103 l 933 0 l 521 0 l 521 103 l 586 117 l 586 490 q 569 608 586 575 q 500 640 551 640 q 437 626 467 640 q 388 593 407 613 l 388 117 l 456 103 l 456 0 l 46 0 l 46 103 l 114 117 l 114 986 z "},"ħ":{"ha":956,"x_min":14,"x_max":936,"o":"m 117 986 l 26 1007 l 26 1103 l 333 1139 l 338 1139 l 383 1106 l 383 936 l 551 936 l 551 835 l 383 835 l 383 815 l 369 689 q 481 758 415 729 q 633 788 547 788 q 770 756 721 788 q 839 660 819 724 q 858 492 858 596 l 858 117 l 936 103 l 936 0 l 525 0 l 525 103 l 589 117 l 589 490 q 572 608 589 575 q 504 640 554 640 q 440 626 471 640 q 390 593 410 613 l 390 117 l 460 103 l 460 0 l 50 0 l 50 103 l 117 117 l 117 835 l 14 835 l 14 936 l 117 936 l 117 986 z "},"ĥ":{"ha":953,"x_min":-58,"x_max":933,"o":"m 114 986 l 24 1007 l 24 1103 l 329 1139 l 333 1139 l 379 1106 l 381 815 l 367 689 q 477 758 411 729 q 631 788 543 788 q 767 756 718 788 q 835 660 815 724 q 854 492 854 597 l 854 117 l 933 103 l 933 0 l 521 0 l 521 103 l 586 117 l 586 490 q 569 608 586 575 q 500 640 551 640 q 437 626 467 640 q 388 593 407 613 l 388 117 l 456 103 l 456 0 l 46 0 l 46 103 l 114 117 l 114 986 m 163 1435 l 304 1435 l 522 1232 l 438 1157 l 232 1283 l 26 1157 l -58 1231 l 163 1435 z "},"i":{"ha":510,"x_min":42,"x_max":472,"o":"m 229 882 q 131 918 169 882 q 93 1008 93 954 q 135 1115 93 1072 q 246 1157 176 1157 q 351 1122 314 1157 q 389 1031 389 1086 q 348 924 389 965 q 231 882 307 882 l 229 882 m 131 117 l 131 607 l 42 635 l 42 754 l 351 792 l 354 792 l 401 760 l 401 117 l 472 103 l 472 0 l 56 0 l 56 103 l 131 117 z "},"ı":{"ha":510,"x_min":42,"x_max":472,"o":"m 131 117 l 131 607 l 42 635 l 42 754 l 351 792 l 354 792 l 401 760 l 401 117 l 472 103 l 472 0 l 56 0 l 56 103 l 131 117 z "},"í":{"ha":510,"x_min":42,"x_max":556,"o":"m 131 117 l 131 607 l 42 635 l 42 754 l 351 792 l 354 792 l 401 760 l 401 117 l 472 103 l 472 0 l 56 0 l 56 103 l 131 117 m 150 951 l 408 1258 l 556 1124 q 419 976 517 1056 q 251 872 321 897 l 150 951 z "},"ĭ":{"ha":510,"x_min":-17,"x_max":511,"o":"m 250 892 q 110 922 171 892 q 17 1006 50 953 q -17 1125 -17 1060 q -14 1203 -17 1188 l 104 1203 q 106 1171 104 1182 q 250 1064 124 1064 q 392 1169 374 1064 q 394 1203 394 1194 l 510 1203 l 511 1126 q 478 1006 511 1060 q 385 922 444 953 q 250 892 325 892 m 131 117 l 131 607 l 42 635 l 42 754 l 351 792 l 354 792 l 401 760 l 401 117 l 472 103 l 472 0 l 56 0 l 56 103 l 131 117 z "},"î":{"ha":510,"x_min":-37,"x_max":540,"o":"m 182 1221 l 317 1221 l 540 949 l 454 875 l 251 1036 l 46 874 l -37 949 l 182 1221 m 131 117 l 131 607 l 42 635 l 42 754 l 351 792 l 354 792 l 401 760 l 401 117 l 472 103 l 472 0 l 56 0 l 56 103 l 131 117 z "},"ï":{"ha":510,"x_min":-53,"x_max":563,"o":"m 131 117 l 131 607 l 42 635 l 42 754 l 351 792 l 354 792 l 401 760 l 401 117 l 472 103 l 472 0 l 56 0 l 56 103 l 131 117 m 57 897 q -22 933 10 897 q -53 1018 -53 969 q -19 1122 -53 1083 q 81 1161 14 1161 q 174 1127 143 1161 q 204 1042 204 1093 q 168 937 204 976 q 57 897 132 897 m 415 897 q 337 935 368 897 q 306 1018 306 974 q 339 1122 306 1083 q 439 1161 372 1161 q 532 1127 501 1161 q 563 1042 563 1093 q 526 937 563 976 q 415 897 490 897 z "},"ị":{"ha":510,"x_min":42,"x_max":472,"o":"m 229 882 q 131 918 169 882 q 93 1008 93 954 q 135 1115 93 1072 q 246 1157 176 1157 q 351 1122 314 1157 q 389 1031 389 1086 q 348 924 389 965 q 231 882 307 882 l 229 882 m 131 117 l 131 607 l 42 635 l 42 754 l 351 792 l 354 792 l 401 760 l 401 117 l 472 103 l 472 0 l 56 0 l 56 103 l 131 117 m 247 -278 q 174 -251 203 -278 q 144 -183 144 -224 q 176 -103 144 -135 q 260 -72 207 -72 q 339 -99 311 -72 q 367 -167 367 -125 q 336 -247 367 -215 q 249 -278 306 -278 l 247 -278 z "},"ì":{"ha":510,"x_min":-29,"x_max":472,"o":"m 274 872 q 168 931 231 888 q 51 1026 106 974 q -29 1124 -4 1079 l 118 1258 l 376 951 l 275 872 l 274 872 m 131 117 l 131 607 l 42 635 l 42 754 l 351 792 l 354 792 l 401 760 l 401 117 l 472 103 l 472 0 l 56 0 l 56 103 l 131 117 z "},"ỉ":{"ha":510,"x_min":42,"x_max":472,"o":"m 131 117 l 131 607 l 42 635 l 42 754 l 351 792 l 354 792 l 401 760 l 401 117 l 472 103 l 472 0 l 56 0 l 56 103 l 131 117 m 229 838 q 206 872 221 846 q 190 907 190 897 q 197 932 190 922 q 221 954 204 942 q 251 993 247 972 l 251 997 q 239 1034 251 1021 q 194 1047 226 1047 q 156 1044 161 1047 l 149 1190 q 169 1194 151 1192 q 200 1197 186 1197 q 295 1178 244 1197 q 381 1122 346 1160 q 417 1031 417 1085 q 399 976 417 999 q 360 937 381 953 q 331 914 339 921 q 311 874 311 897 q 315 846 311 863 l 229 838 z "},"ĳ":{"ha":994,"x_min":42,"x_max":908,"o":"m 229 882 q 131 918 169 882 q 93 1008 93 954 q 135 1115 93 1072 q 246 1157 176 1157 q 351 1122 314 1157 q 389 1031 389 1086 q 348 924 389 965 q 231 882 307 882 l 229 882 m 131 117 l 131 607 l 42 635 l 42 754 l 351 792 l 354 792 l 401 760 l 401 117 l 472 103 l 472 0 l 56 0 l 56 103 l 131 117 m 721 882 q 623 918 661 882 q 585 1008 585 954 q 626 1115 585 1072 q 738 1157 668 1157 q 843 1122 806 1157 q 881 1031 881 1086 q 840 924 881 965 q 722 882 799 882 l 721 882 m 556 754 l 858 792 l 861 792 l 908 760 l 908 15 q 854 -172 908 -92 q 725 -295 800 -253 q 590 -337 650 -337 q 501 -332 519 -337 l 489 -233 q 554 -217 525 -233 q 623 -122 601 -190 q 644 67 644 -54 l 644 606 l 556 633 l 556 754 z "},"ī":{"ha":510,"x_min":21,"x_max":476,"o":"m 476 1108 l 476 958 l 21 958 l 21 1108 l 476 1108 m 131 117 l 131 607 l 42 635 l 42 754 l 351 792 l 354 792 l 401 760 l 401 117 l 472 103 l 472 0 l 56 0 l 56 103 l 131 117 z "},"į":{"ha":510,"x_min":42,"x_max":472,"o":"m 243 882 q 145 918 183 882 q 107 1008 107 954 q 149 1115 107 1072 q 260 1157 190 1157 q 365 1122 328 1157 q 403 1031 403 1086 q 362 924 403 965 q 244 882 321 882 l 243 882 m 374 0 q 299 -60 322 -26 q 275 -126 275 -93 q 297 -176 275 -157 q 360 -194 319 -194 q 392 -191 378 -194 q 416 -184 406 -187 q 433 -178 426 -181 l 432 -287 q 353 -322 404 -308 q 258 -335 303 -335 q 125 -299 183 -335 q 67 -193 67 -262 q 107 -87 67 -139 q 226 0 147 -35 l 56 0 l 56 103 l 131 117 l 131 607 l 42 635 l 42 754 l 351 792 l 354 792 l 401 760 l 401 117 l 472 103 l 472 0 l 374 0 z "},"ĩ":{"ha":510,"x_min":-74,"x_max":576,"o":"m -74 1007 q 15 1117 -36 1072 q 146 1163 65 1163 q 224 1147 192 1163 q 296 1101 256 1131 q 351 1066 331 1076 q 397 1056 371 1056 q 455 1070 432 1056 q 504 1111 478 1085 l 576 1047 q 489 935 538 979 q 361 892 440 892 q 286 907 318 892 q 214 951 254 922 q 157 987 181 975 q 106 999 133 999 q 47 984 71 999 q -3 943 24 969 l -74 1007 m 131 117 l 131 607 l 42 635 l 42 754 l 351 792 l 354 792 l 401 760 l 401 117 l 472 103 l 472 0 l 56 0 l 56 103 l 131 117 z "},"j":{"ha":485,"x_min":-21,"x_max":399,"o":"m 211 882 q 113 918 151 882 q 75 1008 75 954 q 117 1115 75 1072 q 228 1157 158 1157 q 333 1122 296 1157 q 371 1031 371 1086 q 330 924 371 965 q 213 882 289 882 l 211 882 m 46 754 l 349 792 l 351 792 l 399 760 l 399 15 q 344 -172 399 -92 q 215 -295 290 -253 q 81 -337 140 -337 q -8 -332 10 -337 l -21 -233 q 44 -217 15 -233 q 113 -122 92 -190 q 135 67 135 -54 l 135 606 l 46 633 l 46 754 z "},"ȷ":{"ha":485,"x_min":-21,"x_max":399,"o":"m 46 754 l 349 792 l 351 792 l 399 760 l 399 15 q 344 -172 399 -92 q 215 -295 290 -253 q 81 -337 140 -337 q -8 -332 10 -337 l -21 -233 q 44 -217 15 -233 q 113 -122 92 -190 q 135 67 135 -54 l 135 606 l 46 633 l 46 754 z "},"ĵ":{"ha":485,"x_min":-57,"x_max":521,"o":"m 163 1221 l 297 1221 l 521 949 l 435 875 l 232 1036 l 26 874 l -57 949 l 163 1221 m 46 754 l 349 792 l 351 792 l 399 760 l 399 15 q 344 -172 399 -92 q 215 -295 290 -253 q 81 -337 140 -337 q -8 -332 10 -337 l -21 -233 q 44 -217 15 -233 q 113 -122 92 -190 q 135 67 135 -54 l 135 606 l 46 633 l 46 754 z "},"k":{"ha":931,"x_min":25,"x_max":942,"o":"m 114 117 l 114 986 l 25 1007 l 25 1103 l 331 1139 l 335 1139 l 381 1106 l 381 472 l 376 411 l 607 658 l 506 672 l 506 771 l 904 771 l 904 672 l 786 654 l 663 539 l 876 117 l 942 103 l 942 0 l 531 0 l 531 103 l 582 117 l 474 368 l 375 264 l 379 193 l 379 117 l 449 103 l 449 0 l 43 0 l 43 103 l 114 117 z "},"ķ":{"ha":931,"x_min":25,"x_max":942,"o":"m 114 117 l 114 986 l 25 1007 l 25 1103 l 331 1139 l 335 1139 l 381 1106 l 381 472 l 376 411 l 607 658 l 506 672 l 506 771 l 904 771 l 904 672 l 786 654 l 663 539 l 876 117 l 942 103 l 942 0 l 531 0 l 531 103 l 582 117 l 474 368 l 375 264 l 379 193 l 379 117 l 449 103 l 449 0 l 43 0 l 43 103 l 114 117 m 624 -171 q 602 -262 624 -217 q 551 -340 581 -308 q 501 -379 522 -372 l 499 -379 l 415 -361 l 411 -350 q 432 -319 424 -344 q 440 -268 440 -293 q 415 -219 440 -235 q 382 -149 382 -196 q 419 -80 382 -101 q 503 -58 457 -58 l 507 -58 q 592 -87 560 -58 q 624 -171 624 -117 z "},"ĸ":{"ha":960,"x_min":63,"x_max":974,"o":"m 139 117 l 140 607 l 64 633 l 64 758 l 346 792 l 349 792 l 410 760 l 410 485 l 406 389 l 643 657 l 529 671 l 529 771 l 940 771 l 940 671 l 825 657 l 689 533 l 907 118 l 974 103 l 974 0 l 564 0 l 564 103 l 613 115 l 506 357 l 407 249 l 413 189 l 413 117 l 481 103 l 481 0 l 63 0 l 63 103 l 139 117 z "},"l":{"ha":485,"x_min":24,"x_max":456,"o":"m 114 117 l 114 986 l 24 1007 l 24 1103 l 329 1139 l 333 1139 l 379 1106 l 379 117 l 456 103 l 456 0 l 38 0 l 38 103 l 114 117 z "},"ĺ":{"ha":488,"x_min":24,"x_max":467,"o":"m 101 1150 l 303 1365 l 467 1257 q 325 1144 408 1196 q 200 1081 242 1092 l 101 1150 m 38 0 l 38 103 l 114 117 l 114 879 l 24 900 l 24 996 l 332 1033 l 382 999 l 382 117 l 458 103 l 458 0 l 38 0 z "},"ľ":{"ha":690,"x_min":24,"x_max":686,"o":"m 492 672 l 486 690 q 499 765 494 722 q 503 904 503 808 q 490 1023 503 978 q 465 1086 478 1068 l 471 1115 l 647 1153 q 674 1085 663 1133 q 686 967 686 1036 q 671 819 686 888 q 635 706 656 751 q 601 646 615 660 l 492 672 m 38 0 l 38 103 l 114 117 l 114 986 l 24 1007 l 24 1103 l 329 1139 l 333 1139 l 379 1106 l 379 117 l 456 103 l 456 0 l 38 0 z "},"ļ":{"ha":485,"x_min":24,"x_max":456,"o":"m 114 117 l 114 986 l 24 1007 l 24 1103 l 329 1139 l 333 1139 l 379 1106 l 379 117 l 456 103 l 456 0 l 38 0 l 38 103 l 114 117 m 361 -171 q 340 -262 361 -217 q 289 -340 318 -308 q 239 -379 260 -372 l 236 -379 l 153 -361 l 149 -350 q 169 -319 161 -344 q 178 -268 178 -293 q 153 -219 178 -235 q 119 -149 119 -196 q 157 -80 119 -101 q 240 -58 194 -58 l 244 -58 q 329 -87 297 -58 q 361 -171 361 -117 z "},"ŀ":{"ha":736,"x_min":24,"x_max":764,"o":"m 114 117 l 114 986 l 24 1007 l 24 1103 l 329 1139 l 333 1139 l 379 1106 l 379 117 l 456 103 l 456 0 l 38 0 l 38 103 l 114 117 m 601 386 q 508 424 549 386 q 468 515 468 461 q 513 615 468 576 q 625 654 558 654 q 726 615 688 654 q 764 524 764 576 q 720 422 764 458 q 601 386 676 386 z "},"ǉ":{"ha":969,"x_min":24,"x_max":883,"o":"m 114 117 l 114 986 l 24 1007 l 24 1103 l 329 1139 l 333 1139 l 379 1106 l 379 117 l 456 103 l 456 0 l 38 0 l 38 103 l 114 117 m 696 882 q 598 918 636 882 q 560 1008 560 954 q 601 1115 560 1072 q 713 1157 643 1157 q 818 1122 781 1157 q 856 1031 856 1086 q 815 924 856 965 q 697 882 774 882 l 696 882 m 531 754 l 833 792 l 836 792 l 883 760 l 883 15 q 829 -172 883 -92 q 700 -295 775 -253 q 565 -337 625 -337 q 476 -332 494 -337 l 464 -233 q 529 -217 500 -233 q 598 -122 576 -190 q 619 67 619 -54 l 619 606 l 531 633 l 531 754 z "},"ł":{"ha":518,"x_min":18,"x_max":531,"o":"m 139 557 l 139 986 l 49 1007 l 49 1103 l 356 1139 l 360 1139 l 406 1106 l 406 663 l 531 719 l 531 596 l 406 542 l 406 117 l 481 103 l 481 0 l 64 0 l 64 103 l 139 117 l 139 439 l 18 386 l 18 503 l 139 557 z "},"m":{"ha":1442,"x_min":58,"x_max":1414,"o":"m 64 103 l 132 117 l 132 607 l 58 633 l 58 758 l 338 792 l 342 792 l 381 760 l 381 679 q 510 756 424 725 q 654 788 596 788 q 776 762 729 788 q 847 683 824 736 q 964 760 896 732 q 1107 788 1032 788 q 1283 717 1228 788 q 1339 492 1339 647 l 1339 117 l 1414 103 l 1414 0 l 1014 0 l 1014 103 l 1065 117 l 1065 485 q 1047 608 1065 575 q 979 640 1028 640 q 871 593 926 640 q 878 492 878 556 l 878 117 l 946 103 l 946 0 l 546 0 l 546 103 l 603 117 l 603 490 q 585 608 603 576 q 518 640 567 640 q 406 593 460 640 l 406 117 l 472 103 l 472 0 l 64 0 l 64 103 z "},"ṁ":{"ha":1442,"x_min":58,"x_max":1414,"o":"m 64 103 l 132 117 l 132 607 l 58 633 l 58 758 l 338 792 l 342 792 l 381 760 l 381 679 q 510 756 424 725 q 654 788 596 788 q 776 762 729 788 q 847 683 824 736 q 964 760 896 732 q 1107 788 1032 788 q 1283 717 1228 788 q 1339 492 1339 647 l 1339 117 l 1414 103 l 1414 0 l 1014 0 l 1014 103 l 1065 117 l 1065 485 q 1047 608 1065 575 q 979 640 1028 640 q 871 593 926 640 q 878 492 878 556 l 878 117 l 946 103 l 946 0 l 546 0 l 546 103 l 603 117 l 603 490 q 585 608 603 576 q 518 640 567 640 q 406 593 460 640 l 406 117 l 472 103 l 472 0 l 64 0 l 64 103 m 708 882 q 610 918 649 882 q 572 1008 572 954 q 614 1115 572 1072 q 725 1157 656 1157 q 831 1122 793 1157 q 868 1031 868 1086 q 827 924 868 965 q 710 882 786 882 l 708 882 z "},"n":{"ha":979,"x_min":58,"x_max":947,"o":"m 132 607 l 58 633 l 58 758 l 338 792 l 342 792 l 382 760 l 382 713 l 381 681 q 499 757 428 726 q 656 788 571 788 q 785 759 736 788 q 856 667 833 731 q 879 492 879 603 l 879 117 l 947 104 l 947 0 l 546 0 l 546 103 l 604 117 l 604 490 q 586 608 604 576 q 519 640 568 640 q 459 627 485 640 q 406 593 433 614 l 406 117 l 474 103 l 474 0 l 61 0 l 61 103 l 132 117 l 132 607 z "},"ń":{"ha":979,"x_min":58,"x_max":947,"o":"m 132 607 l 58 633 l 58 758 l 338 792 l 342 792 l 382 760 l 382 713 l 381 681 q 499 757 428 726 q 656 788 571 788 q 785 759 736 788 q 856 667 833 731 q 879 492 879 603 l 879 117 l 947 104 l 947 0 l 546 0 l 546 103 l 604 117 l 604 490 q 586 608 604 576 q 519 640 568 640 q 459 627 485 640 q 406 593 433 614 l 406 117 l 474 103 l 474 0 l 61 0 l 61 103 l 132 117 l 132 607 m 385 951 l 643 1258 l 790 1124 q 653 976 751 1056 q 486 872 556 897 l 385 951 z "},"ň":{"ha":979,"x_min":58,"x_max":947,"o":"m 301 1222 l 506 1056 l 711 1224 l 796 1150 l 572 876 l 438 876 l 218 1150 l 301 1222 m 132 607 l 58 633 l 58 758 l 338 792 l 342 792 l 382 760 l 382 713 l 381 681 q 499 757 428 726 q 656 788 571 788 q 785 759 736 788 q 856 667 833 731 q 879 492 879 603 l 879 117 l 947 104 l 947 0 l 546 0 l 546 103 l 604 117 l 604 490 q 586 608 604 576 q 519 640 568 640 q 459 627 485 640 q 406 593 433 614 l 406 117 l 474 103 l 474 0 l 61 0 l 61 103 l 132 117 l 132 607 z "},"ņ":{"ha":979,"x_min":58,"x_max":947,"o":"m 132 607 l 58 633 l 58 758 l 338 792 l 342 792 l 382 760 l 382 713 l 381 681 q 499 757 428 726 q 656 788 571 788 q 785 759 736 788 q 856 667 833 731 q 879 492 879 603 l 879 117 l 947 104 l 947 0 l 546 0 l 546 103 l 604 117 l 604 490 q 586 608 604 576 q 519 640 568 640 q 459 627 485 640 q 406 593 433 614 l 406 117 l 474 103 l 474 0 l 61 0 l 61 103 l 132 117 l 132 607 m 610 -171 q 588 -262 610 -217 q 538 -340 567 -308 q 488 -379 508 -372 l 485 -379 l 401 -361 l 397 -350 q 418 -319 410 -344 q 426 -268 426 -293 q 401 -219 426 -235 q 368 -149 368 -196 q 406 -80 368 -101 q 489 -58 443 -58 l 493 -58 q 578 -87 546 -58 q 610 -171 610 -117 z "},"ŋ":{"ha":971,"x_min":58,"x_max":881,"o":"m 133 608 l 58 635 l 58 760 l 340 793 l 343 793 l 383 760 l 383 718 l 382 682 q 503 758 432 728 q 657 789 574 789 q 828 722 776 789 q 881 494 881 654 l 881 15 q 794 -265 881 -162 q 538 -369 707 -368 q 494 -369 522 -371 q 463 -364 467 -368 l 456 -258 q 492 -255 467 -260 q 529 -243 517 -250 q 582 -188 565 -226 q 602 -102 599 -150 q 606 31 606 -54 l 606 494 q 586 608 606 576 q 518 640 567 640 q 408 593 464 640 l 408 117 l 475 103 l 475 0 l 64 0 l 64 103 l 133 117 l 133 608 z "},"ǌ":{"ha":1464,"x_min":-21,"x_max":1432,"o":"m 211 882 q 113 918 151 882 q 75 1008 75 954 q 117 1115 75 1072 q 228 1157 158 1157 q 333 1122 296 1157 q 371 1031 371 1086 q 330 924 371 965 q 213 882 289 882 l 211 882 m 81 -337 q -8 -332 10 -337 l -21 -233 q 44 -217 15 -233 q 113 -122 92 -190 q 135 67 135 -54 l 135 606 l 46 633 l 46 754 l 349 792 l 351 792 l 399 760 l 399 15 q 344 -172 399 -92 q 215 -295 290 -253 q 81 -337 140 -337 m 546 103 l 617 117 l 617 607 l 543 633 l 543 758 l 822 792 l 826 792 l 867 760 l 867 713 l 865 681 q 984 757 913 726 q 1140 788 1056 788 q 1269 759 1221 788 q 1341 667 1318 731 q 1364 492 1364 603 l 1364 117 l 1432 104 l 1432 0 l 1031 0 l 1031 103 l 1089 117 l 1089 490 q 1071 608 1089 576 q 1004 640 1053 640 q 944 627 969 640 q 890 593 918 614 l 890 117 l 958 103 l 958 0 l 546 0 l 546 103 z "},"ñ":{"ha":979,"x_min":58,"x_max":947,"o":"m 183 1007 q 272 1117 221 1072 q 403 1163 322 1163 q 481 1147 449 1163 q 553 1101 513 1131 q 608 1066 588 1076 q 654 1056 628 1056 q 712 1070 689 1056 q 761 1111 735 1085 l 833 1047 q 746 935 794 979 q 618 892 697 892 q 543 907 575 892 q 471 951 511 922 q 414 987 438 975 q 363 999 390 999 q 304 984 328 999 q 254 943 281 969 l 183 1007 m 132 607 l 58 633 l 58 758 l 338 792 l 342 792 l 382 760 l 382 713 l 381 681 q 499 757 428 726 q 656 788 571 788 q 785 759 736 788 q 856 667 833 731 q 879 492 879 603 l 879 117 l 947 104 l 947 0 l 546 0 l 546 103 l 604 117 l 604 490 q 586 608 604 576 q 519 640 568 640 q 459 627 485 640 q 406 593 433 614 l 406 117 l 474 103 l 474 0 l 61 0 l 61 103 l 132 117 l 132 607 z "},"o":{"ha":861,"x_min":36,"x_max":825,"o":"m 36 379 q 90 610 36 517 q 235 747 144 703 q 440 792 326 792 q 720 690 615 792 q 825 397 825 589 q 712 85 825 186 q 419 -15 599 -15 q 220 29 307 -15 q 85 162 133 74 q 36 379 36 250 m 435 90 q 511 158 488 90 q 535 378 535 225 q 511 615 535 544 q 429 686 488 686 q 350 617 376 686 q 324 399 324 549 q 350 163 324 235 q 435 90 376 90 z "},"ó":{"ha":861,"x_min":36,"x_max":825,"o":"m 36 379 q 90 610 36 517 q 235 747 144 703 q 440 792 326 792 q 720 690 615 792 q 825 397 825 589 q 712 85 825 186 q 419 -15 599 -15 q 220 29 307 -15 q 85 162 133 74 q 36 379 36 250 m 435 90 q 511 158 488 90 q 535 378 535 225 q 511 615 535 544 q 429 686 488 686 q 350 617 376 686 q 324 399 324 549 q 350 163 324 235 q 435 90 376 90 m 325 951 l 583 1258 l 731 1124 q 594 976 692 1056 q 426 872 496 897 l 325 951 z "},"ŏ":{"ha":861,"x_min":36,"x_max":825,"o":"m 428 892 q 288 922 349 892 q 194 1006 228 953 q 161 1125 161 1060 q 164 1203 161 1188 l 282 1203 q 283 1171 282 1182 q 428 1064 301 1064 q 569 1169 551 1064 q 572 1203 572 1194 l 688 1203 l 689 1126 q 656 1006 689 1060 q 563 922 622 953 q 428 892 503 892 m 36 379 q 90 610 36 517 q 235 747 144 703 q 440 792 326 792 q 720 690 615 792 q 825 397 825 589 q 712 85 825 186 q 419 -15 599 -15 q 220 29 307 -15 q 85 162 133 74 q 36 379 36 250 m 435 90 q 511 158 488 90 q 535 378 535 225 q 511 615 535 544 q 429 686 488 686 q 350 617 376 686 q 324 399 324 549 q 350 163 324 235 q 435 90 376 90 z "},"ô":{"ha":861,"x_min":36,"x_max":825,"o":"m 360 1221 l 494 1221 l 718 949 l 632 875 l 429 1036 l 224 874 l 140 949 l 360 1221 m 36 379 q 90 610 36 517 q 235 747 144 703 q 440 792 326 792 q 720 690 615 792 q 825 397 825 589 q 712 85 825 186 q 419 -15 599 -15 q 220 29 307 -15 q 85 162 133 74 q 36 379 36 250 m 435 90 q 511 158 488 90 q 535 378 535 225 q 511 615 535 544 q 429 686 488 686 q 350 617 376 686 q 324 399 324 549 q 350 163 324 235 q 435 90 376 90 z "},"ố":{"ha":861,"x_min":36,"x_max":940,"o":"m 604 1078 l 818 1332 l 940 1221 q 826 1099 907 1164 q 689 1013 746 1033 l 604 1078 m 372 1143 l 483 1143 l 668 918 l 597 858 l 431 990 l 260 857 l 192 918 l 372 1143 m 36 379 q 90 610 36 517 q 235 747 144 703 q 440 792 326 792 q 720 690 615 792 q 825 397 825 589 q 712 85 825 186 q 419 -15 599 -15 q 220 29 307 -15 q 85 162 133 74 q 36 379 36 250 m 435 90 q 511 158 488 90 q 535 378 535 225 q 511 615 535 544 q 429 686 488 686 q 350 617 376 686 q 324 399 324 549 q 350 163 324 235 q 435 90 376 90 z "},"ộ":{"ha":861,"x_min":36,"x_max":825,"o":"m 36 379 q 90 610 36 517 q 235 747 144 703 q 440 792 326 792 q 720 690 615 792 q 825 397 825 589 q 712 85 825 186 q 419 -15 599 -15 q 220 29 307 -15 q 85 162 133 74 q 36 379 36 250 m 435 90 q 511 158 488 90 q 535 378 535 225 q 511 615 535 544 q 429 686 488 686 q 350 617 376 686 q 324 399 324 549 q 350 163 324 235 q 435 90 376 90 m 422 -278 q 349 -251 378 -278 q 319 -183 319 -224 q 351 -103 319 -135 q 435 -72 382 -72 q 514 -99 486 -72 q 542 -167 542 -125 q 511 -247 542 -215 q 424 -278 481 -278 l 422 -278 m 361 1222 l 496 1222 l 719 950 l 633 876 l 431 1038 l 225 875 l 142 950 l 361 1222 z "},"ồ":{"ha":861,"x_min":36,"x_max":825,"o":"m 613 1138 q 475 1224 556 1158 q 363 1346 394 1290 l 485 1457 l 699 1203 l 614 1138 l 613 1138 m 372 1143 l 483 1143 l 668 918 l 597 858 l 431 990 l 260 857 l 192 918 l 372 1143 m 36 379 q 90 610 36 517 q 235 747 144 703 q 440 792 326 792 q 720 690 615 792 q 825 397 825 589 q 712 85 825 186 q 419 -15 599 -15 q 220 29 307 -15 q 85 162 133 74 q 36 379 36 250 m 435 90 q 511 158 488 90 q 535 378 535 225 q 511 615 535 544 q 429 686 488 686 q 350 617 376 686 q 324 399 324 549 q 350 163 324 235 q 435 90 376 90 z "},"ổ":{"ha":861,"x_min":36,"x_max":825,"o":"m 639 1043 q 619 1072 632 1050 q 607 1101 607 1093 q 613 1121 607 1114 q 632 1140 618 1128 q 649 1156 643 1149 q 657 1172 656 1163 l 657 1175 q 610 1217 657 1217 q 578 1214 582 1217 l 572 1335 q 588 1338 574 1336 q 614 1340 603 1340 q 693 1325 651 1340 q 764 1278 735 1310 q 793 1203 793 1247 q 778 1156 793 1175 q 745 1125 763 1138 q 722 1107 728 1113 q 707 1072 707 1092 q 710 1050 707 1058 l 639 1043 m 372 1143 l 483 1143 l 668 918 l 597 858 l 431 990 l 260 857 l 192 918 l 372 1143 m 36 379 q 90 610 36 517 q 235 747 144 703 q 440 792 326 792 q 720 690 615 792 q 825 397 825 589 q 712 85 825 186 q 419 -15 599 -15 q 220 29 307 -15 q 85 162 133 74 q 36 379 36 250 m 435 90 q 511 158 488 90 q 535 378 535 225 q 511 615 535 544 q 429 686 488 686 q 350 617 376 686 q 324 399 324 549 q 350 163 324 235 q 435 90 376 90 z "},"ỗ":{"ha":861,"x_min":36,"x_max":825,"o":"m 179 1265 q 251 1357 210 1319 q 361 1394 293 1394 q 426 1381 399 1394 q 485 1343 453 1368 q 531 1314 514 1322 q 568 1306 547 1306 q 617 1318 597 1306 q 657 1351 636 1331 l 717 1299 q 644 1206 683 1242 q 539 1171 604 1171 q 477 1183 504 1171 q 417 1219 450 1196 q 369 1249 388 1239 q 328 1258 351 1258 q 278 1246 299 1258 q 238 1213 258 1233 l 179 1265 m 372 1143 l 483 1143 l 668 918 l 597 858 l 431 990 l 260 857 l 192 918 l 372 1143 m 36 379 q 90 610 36 517 q 235 747 144 703 q 440 792 326 792 q 720 690 615 792 q 825 397 825 589 q 712 85 825 186 q 419 -15 599 -15 q 220 29 307 -15 q 85 162 133 74 q 36 379 36 250 m 435 90 q 511 158 488 90 q 535 378 535 225 q 511 615 535 544 q 429 686 488 686 q 350 617 376 686 q 324 399 324 549 q 350 163 324 235 q 435 90 376 90 z "},"ö":{"ha":861,"x_min":36,"x_max":825,"o":"m 36 379 q 90 610 36 517 q 235 747 144 703 q 440 792 326 792 q 720 690 615 792 q 825 397 825 589 q 712 85 825 186 q 419 -15 599 -15 q 220 29 307 -15 q 85 162 133 74 q 36 379 36 250 m 435 90 q 511 158 488 90 q 535 378 535 225 q 511 615 535 544 q 429 686 488 686 q 350 617 376 686 q 324 399 324 549 q 350 163 324 235 q 435 90 376 90 m 232 897 q 153 933 185 897 q 122 1018 122 969 q 156 1122 122 1083 q 256 1161 189 1161 q 349 1127 318 1161 q 379 1042 379 1093 q 343 937 379 976 q 232 897 307 897 m 590 897 q 512 935 543 897 q 481 1018 481 974 q 514 1122 481 1083 q 614 1161 547 1161 q 707 1127 676 1161 q 738 1042 738 1093 q 701 937 738 976 q 590 897 665 897 z "},"ọ":{"ha":861,"x_min":36,"x_max":825,"o":"m 36 379 q 90 610 36 517 q 235 747 144 703 q 440 792 326 792 q 720 690 615 792 q 825 397 825 589 q 712 85 825 186 q 419 -15 599 -15 q 220 29 307 -15 q 85 162 133 74 q 36 379 36 250 m 435 90 q 511 158 488 90 q 535 378 535 225 q 511 615 535 544 q 429 686 488 686 q 350 617 376 686 q 324 399 324 549 q 350 163 324 235 q 435 90 376 90 m 422 -278 q 349 -251 378 -278 q 319 -183 319 -224 q 351 -103 319 -135 q 435 -72 382 -72 q 514 -99 486 -72 q 542 -167 542 -125 q 511 -247 542 -215 q 424 -278 481 -278 l 422 -278 z "},"ò":{"ha":861,"x_min":36,"x_max":825,"o":"m 451 872 q 346 931 408 888 q 228 1026 283 974 q 149 1124 174 1079 l 296 1258 l 554 951 l 453 872 l 451 872 m 36 379 q 90 610 36 517 q 235 747 144 703 q 440 792 326 792 q 720 690 615 792 q 825 397 825 589 q 712 85 825 186 q 419 -15 599 -15 q 220 29 307 -15 q 85 162 133 74 q 36 379 36 250 m 435 90 q 511 158 488 90 q 535 378 535 225 q 511 615 535 544 q 429 686 488 686 q 350 617 376 686 q 324 399 324 549 q 350 163 324 235 q 435 90 376 90 z "},"ỏ":{"ha":861,"x_min":36,"x_max":825,"o":"m 36 379 q 90 610 36 517 q 235 747 144 703 q 440 792 326 792 q 720 690 615 792 q 825 397 825 589 q 712 85 825 186 q 419 -15 599 -15 q 220 29 307 -15 q 85 162 133 74 q 36 379 36 250 m 435 90 q 511 158 488 90 q 535 378 535 225 q 511 615 535 544 q 429 686 488 686 q 350 617 376 686 q 324 399 324 549 q 350 163 324 235 q 435 90 376 90 m 404 838 q 381 872 396 846 q 365 907 365 897 q 372 932 365 922 q 396 954 379 942 q 426 993 422 972 l 426 997 q 414 1034 426 1021 q 369 1047 401 1047 q 331 1044 336 1047 l 324 1190 q 344 1194 326 1192 q 375 1197 361 1197 q 470 1178 419 1197 q 556 1122 521 1160 q 592 1031 592 1085 q 574 976 592 999 q 535 937 556 953 q 506 914 514 921 q 486 874 486 897 q 490 846 486 863 l 404 838 z "},"ơ":{"ha":861,"x_min":36,"x_max":858,"o":"m 858 907 q 825 772 858 831 q 735 675 792 713 q 825 397 825 571 q 712 85 825 186 q 419 -15 599 -15 q 220 29 307 -15 q 85 162 133 74 q 36 379 36 250 q 90 610 36 517 q 235 747 144 703 q 440 792 326 792 q 571 775 510 792 q 658 824 631 785 q 693 914 686 864 q 694 938 696 932 l 856 938 q 858 907 858 915 m 435 90 q 511 158 488 90 q 535 378 535 225 q 511 615 535 544 q 429 686 488 686 q 350 617 376 686 q 324 399 324 549 q 350 163 324 235 q 435 90 376 90 z "},"ớ":{"ha":861,"x_min":36,"x_max":858,"o":"m 858 907 q 825 772 858 831 q 735 675 792 713 q 825 397 825 571 q 712 85 825 186 q 419 -15 599 -15 q 220 29 307 -15 q 85 162 133 74 q 36 379 36 250 q 90 610 36 517 q 235 747 144 703 q 440 792 326 792 q 571 775 510 792 q 658 824 631 785 q 693 914 686 864 q 694 938 696 932 l 856 938 q 858 907 858 915 m 435 90 q 511 158 488 90 q 535 378 535 225 q 511 615 535 544 q 429 686 488 686 q 350 617 376 686 q 324 399 324 549 q 350 163 324 235 q 435 90 376 90 m 325 951 l 583 1258 l 731 1124 q 594 976 692 1056 q 426 872 496 897 l 325 951 z "},"ợ":{"ha":861,"x_min":36,"x_max":858,"o":"m 858 907 q 825 772 858 831 q 735 675 792 713 q 825 397 825 571 q 712 85 825 186 q 419 -15 599 -15 q 220 29 307 -15 q 85 162 133 74 q 36 379 36 250 q 90 610 36 517 q 235 747 144 703 q 440 792 326 792 q 571 775 510 792 q 658 824 631 785 q 693 914 686 864 q 694 938 696 932 l 856 938 q 858 907 858 915 m 435 90 q 511 158 488 90 q 535 378 535 225 q 511 615 535 544 q 429 686 488 686 q 350 617 376 686 q 324 399 324 549 q 350 163 324 235 q 435 90 376 90 m 422 -278 q 349 -251 378 -278 q 319 -183 319 -224 q 351 -103 319 -135 q 435 -72 382 -72 q 514 -99 486 -72 q 542 -167 542 -125 q 511 -247 542 -215 q 424 -278 481 -278 l 422 -278 z "},"ờ":{"ha":861,"x_min":36,"x_max":858,"o":"m 858 907 q 825 772 858 831 q 735 675 792 713 q 825 397 825 571 q 712 85 825 186 q 419 -15 599 -15 q 220 29 307 -15 q 85 162 133 74 q 36 379 36 250 q 90 610 36 517 q 235 747 144 703 q 440 792 326 792 q 571 775 510 792 q 658 824 631 785 q 693 914 686 864 q 694 938 696 932 l 856 938 q 858 907 858 915 m 435 90 q 511 158 488 90 q 535 378 535 225 q 511 615 535 544 q 429 686 488 686 q 350 617 376 686 q 324 399 324 549 q 350 163 324 235 q 435 90 376 90 m 447 872 q 342 931 404 888 q 224 1026 279 974 q 144 1124 169 1079 l 292 1258 l 550 951 l 449 872 l 447 872 z "},"ở":{"ha":861,"x_min":36,"x_max":858,"o":"m 858 907 q 825 772 858 831 q 735 675 792 713 q 825 397 825 571 q 712 85 825 186 q 419 -15 599 -15 q 220 29 307 -15 q 85 162 133 74 q 36 379 36 250 q 90 610 36 517 q 235 747 144 703 q 440 792 326 792 q 571 775 510 792 q 658 824 631 785 q 693 914 686 864 q 694 938 696 932 l 856 938 q 858 907 858 915 m 435 90 q 511 158 488 90 q 535 378 535 225 q 511 615 535 544 q 429 686 488 686 q 350 617 376 686 q 324 399 324 549 q 350 163 324 235 q 435 90 376 90 m 404 838 q 381 872 396 846 q 365 907 365 897 q 372 932 365 922 q 396 954 379 942 q 426 993 422 972 l 426 997 q 414 1034 426 1021 q 369 1047 401 1047 q 331 1044 336 1047 l 324 1190 q 344 1194 326 1192 q 375 1197 361 1197 q 470 1178 419 1197 q 556 1122 521 1160 q 592 1031 592 1085 q 574 976 592 999 q 535 937 556 953 q 506 914 514 921 q 486 874 486 897 q 490 846 486 863 l 404 838 z "},"ỡ":{"ha":861,"x_min":36,"x_max":858,"o":"m 858 907 q 825 772 858 831 q 735 675 792 713 q 825 397 825 571 q 712 85 825 186 q 419 -15 599 -15 q 220 29 307 -15 q 85 162 133 74 q 36 379 36 250 q 90 610 36 517 q 235 747 144 703 q 440 792 326 792 q 571 775 510 792 q 658 824 631 785 q 693 914 686 864 q 694 938 696 932 l 856 938 q 858 907 858 915 m 435 90 q 511 158 488 90 q 535 378 535 225 q 511 615 535 544 q 429 686 488 686 q 350 617 376 686 q 324 399 324 549 q 350 163 324 235 q 435 90 376 90 m 106 1007 q 194 1117 143 1072 q 325 1163 244 1163 q 403 1147 371 1163 q 475 1101 435 1131 q 530 1066 510 1076 q 576 1056 550 1056 q 634 1070 611 1056 q 683 1111 657 1085 l 756 1047 q 668 935 717 979 q 540 892 619 892 q 465 907 497 892 q 393 951 433 922 q 336 987 360 975 q 285 999 313 999 q 226 984 250 999 q 176 943 201 969 l 106 1007 z "},"ő":{"ha":861,"x_min":36,"x_max":872,"o":"m 510 1129 q 388 1006 478 1079 q 242 900 297 932 l 150 971 l 368 1243 l 510 1129 m 872 1132 q 754 1008 847 1086 q 606 900 661 931 l 515 971 l 738 1243 l 872 1132 m 36 379 q 90 610 36 517 q 235 747 144 703 q 440 792 326 792 q 720 690 615 792 q 825 397 825 589 q 712 85 825 186 q 419 -15 599 -15 q 220 29 307 -15 q 85 162 133 74 q 36 379 36 250 m 435 90 q 511 158 488 90 q 535 378 535 225 q 511 615 535 544 q 429 686 488 686 q 350 617 376 686 q 324 399 324 549 q 350 163 324 235 q 435 90 376 90 z "},"ō":{"ha":861,"x_min":36,"x_max":825,"o":"m 656 1108 l 656 958 l 200 958 l 200 1108 l 656 1108 m 36 379 q 90 610 36 517 q 235 747 144 703 q 440 792 326 792 q 720 690 615 792 q 825 397 825 589 q 712 85 825 186 q 419 -15 599 -15 q 220 29 307 -15 q 85 162 133 74 q 36 379 36 250 m 435 90 q 511 158 488 90 q 535 378 535 225 q 511 615 535 544 q 429 686 488 686 q 350 617 376 686 q 324 399 324 549 q 350 163 324 235 q 435 90 376 90 z "},"ø":{"ha":861,"x_min":36,"x_max":825,"o":"m 36 379 q 90 610 36 517 q 235 747 144 703 q 440 792 326 792 q 510 788 476 792 l 564 953 l 675 921 l 624 756 q 772 622 719 713 q 825 397 825 532 q 712 85 825 186 q 419 -15 599 -15 q 360 -12 399 -15 l 293 -197 l 178 -164 l 243 18 q 91 151 146 60 q 36 379 36 243 m 324 399 q 339 201 324 275 l 489 657 q 429 686 467 686 q 350 617 376 686 q 324 399 324 549 m 435 90 q 511 158 488 90 q 535 378 535 225 q 522 567 535 506 l 375 118 q 435 90 399 90 z "},"õ":{"ha":861,"x_min":36,"x_max":825,"o":"m 104 1007 q 192 1117 142 1072 q 324 1163 243 1163 q 401 1147 369 1163 q 474 1101 433 1131 q 528 1066 508 1076 q 575 1056 549 1056 q 633 1070 610 1056 q 682 1111 656 1085 l 754 1047 q 667 935 715 979 q 539 892 618 892 q 464 907 496 892 q 392 951 432 922 q 335 987 358 975 q 283 999 311 999 q 225 984 249 999 q 175 943 201 969 l 104 1007 m 36 379 q 90 610 36 517 q 235 747 144 703 q 440 792 326 792 q 720 690 615 792 q 825 397 825 589 q 712 85 825 186 q 419 -15 599 -15 q 220 29 307 -15 q 85 162 133 74 q 36 379 36 250 m 435 90 q 511 158 488 90 q 535 378 535 225 q 511 615 535 544 q 429 686 488 686 q 350 617 376 686 q 324 399 324 549 q 350 163 324 235 q 435 90 376 90 z "},"œ":{"ha":1286,"x_min":36,"x_max":1246,"o":"m 419 -15 q 142 85 247 -15 q 36 378 36 186 q 90 608 36 515 q 236 747 144 701 q 442 792 328 792 q 686 718 604 792 q 929 792 781 792 q 1163 717 1083 792 q 1244 507 1243 642 q 1233 357 1246 426 l 817 357 q 872 197 826 249 q 1000 146 917 146 q 1104 162 1049 146 q 1196 197 1160 178 l 1238 103 q 1167 51 1215 79 q 1056 4 1119 24 q 926 -15 992 -15 q 661 67 754 -15 q 419 -15 569 -15 m 435 90 q 509 157 486 90 q 532 379 532 224 q 522 561 532 494 q 489 657 511 628 q 428 686 467 686 q 350 619 375 686 q 325 397 325 551 q 351 159 325 228 q 435 90 376 90 m 990 458 l 990 515 q 974 643 990 600 q 913 686 957 686 q 860 669 881 686 q 826 601 839 651 q 814 458 814 551 l 990 458 z "},"p":{"ha":896,"x_min":33,"x_max":856,"o":"m 856 410 q 808 199 856 296 q 665 44 761 103 q 432 -15 569 -15 q 368 -4 397 -15 l 372 -115 l 372 -222 l 479 -240 l 479 -336 l 33 -336 l 33 -240 l 110 -222 l 110 607 l 35 633 l 35 758 l 308 792 l 311 792 l 353 760 l 353 689 q 436 761 381 731 q 556 792 492 792 q 774 699 692 792 q 856 410 856 606 m 460 649 q 408 638 432 649 q 372 610 385 626 l 372 108 q 398 92 381 99 q 436 86 415 86 q 574 393 574 86 q 544 586 574 524 q 460 649 514 649 z "},"ṗ":{"ha":896,"x_min":33,"x_max":856,"o":"m 426 882 q 328 918 367 882 q 290 1008 290 954 q 332 1115 290 1072 q 443 1157 374 1157 q 549 1122 511 1157 q 586 1031 586 1086 q 545 924 586 965 q 428 882 504 882 l 426 882 m 856 410 q 808 199 856 296 q 665 44 761 103 q 432 -15 569 -15 q 368 -4 397 -15 l 372 -115 l 372 -222 l 479 -240 l 479 -336 l 33 -336 l 33 -240 l 110 -222 l 110 607 l 35 633 l 35 758 l 308 792 l 311 792 l 353 760 l 353 689 q 436 761 381 731 q 556 792 492 792 q 774 699 692 792 q 856 410 856 606 m 460 649 q 408 638 432 649 q 372 610 385 626 l 372 108 q 398 92 381 99 q 436 86 415 86 q 574 393 574 86 q 544 586 574 524 q 460 649 514 649 z "},"þ":{"ha":889,"x_min":13,"x_max":851,"o":"m 311 1139 l 314 1139 l 365 1108 l 365 710 q 449 768 399 744 q 554 792 499 792 q 771 699 690 792 q 851 410 851 606 q 800 192 851 289 q 652 40 749 96 q 426 -15 556 -15 q 363 -14 382 -15 l 367 -94 l 367 -222 l 485 -240 l 485 -336 l 25 -336 l 25 -240 l 104 -222 l 104 992 l 13 1013 l 13 1103 l 311 1139 m 454 638 q 403 626 428 638 q 365 599 378 615 l 365 100 q 389 83 371 90 q 432 76 407 76 q 532 156 496 76 q 568 393 568 236 q 454 638 568 638 z "},"q":{"ha":865,"x_min":39,"x_max":882,"o":"m 379 -240 l 526 -221 l 526 -32 l 531 63 q 444 6 496 26 q 339 -15 392 -15 q 122 79 204 -15 q 39 369 39 174 q 87 578 39 482 q 231 733 135 675 q 465 792 326 792 q 622 763 531 792 l 751 785 l 789 760 l 789 -222 l 882 -240 l 882 -336 l 379 -336 l 379 -240 m 439 124 q 489 135 465 124 q 526 164 513 147 l 526 664 q 499 680 518 674 q 458 686 481 686 q 324 385 324 686 q 354 188 324 251 q 439 124 385 124 z "},"r":{"ha":681,"x_min":57,"x_max":657,"o":"m 57 103 l 132 117 l 132 607 l 58 633 l 58 758 l 308 792 l 313 792 l 357 760 l 357 722 l 351 603 l 357 603 q 399 686 365 642 q 485 761 433 731 q 596 792 536 792 q 657 781 635 792 l 657 497 q 601 529 629 518 q 525 540 572 540 q 451 532 485 540 q 400 513 417 524 l 400 117 l 542 103 l 542 0 l 57 0 l 57 103 z "},"ŕ":{"ha":681,"x_min":57,"x_max":668,"o":"m 57 103 l 132 117 l 132 607 l 58 633 l 58 758 l 308 792 l 313 792 l 357 760 l 357 722 l 351 603 l 357 603 q 399 686 365 642 q 485 761 433 731 q 596 792 536 792 q 657 781 635 792 l 657 497 q 601 529 629 518 q 525 540 572 540 q 451 532 485 540 q 400 513 417 524 l 400 117 l 542 103 l 542 0 l 57 0 l 57 103 m 263 951 l 521 1258 l 668 1124 q 531 976 629 1056 q 364 872 433 897 l 263 951 z "},"ř":{"ha":681,"x_min":57,"x_max":657,"o":"m 57 103 l 132 117 l 132 607 l 58 633 l 58 758 l 308 792 l 313 792 l 357 760 l 357 722 l 351 603 l 357 603 q 399 686 365 642 q 485 761 433 731 q 596 792 536 792 q 657 781 635 792 l 657 497 q 601 529 629 518 q 525 540 572 540 q 451 532 485 540 q 400 513 417 524 l 400 117 l 542 103 l 542 0 l 57 0 l 57 103 m 163 1222 l 367 1056 l 572 1224 l 657 1150 l 433 876 l 299 876 l 79 1150 l 163 1222 z "},"ŗ":{"ha":681,"x_min":57,"x_max":657,"o":"m 57 103 l 132 117 l 132 607 l 58 633 l 58 758 l 308 792 l 313 792 l 357 760 l 357 722 l 351 603 l 357 603 q 399 686 365 642 q 485 761 433 731 q 596 792 536 792 q 657 781 635 792 l 657 497 q 601 529 629 518 q 525 540 572 540 q 451 532 485 540 q 400 513 417 524 l 400 117 l 542 103 l 542 0 l 57 0 l 57 103 m 392 -171 q 370 -262 392 -217 q 319 -340 349 -308 q 269 -379 290 -372 l 267 -379 l 183 -361 l 179 -350 q 200 -319 192 -344 q 208 -268 208 -293 q 183 -219 208 -235 q 150 -149 150 -196 q 188 -80 150 -101 q 271 -58 225 -58 l 275 -58 q 360 -87 328 -58 q 392 -171 392 -117 z "},"s":{"ha":749,"x_min":56,"x_max":715,"o":"m 251 118 q 290 95 258 106 q 350 85 321 85 q 422 106 396 85 q 447 158 447 126 q 414 217 447 194 q 304 275 381 240 l 225 313 q 99 412 142 353 q 56 557 56 471 q 93 676 56 622 q 205 760 131 729 q 383 790 279 790 q 497 783 450 790 q 601 763 543 776 q 667 750 642 751 l 667 553 l 522 553 l 483 661 q 455 682 476 672 q 403 692 433 692 q 331 672 357 692 q 304 617 304 651 q 338 553 304 578 q 447 496 371 529 l 476 483 q 599 421 549 453 q 682 340 649 389 q 715 224 715 292 q 633 53 715 122 q 379 -15 550 -15 q 240 -4 300 -15 q 119 25 181 7 q 60 39 78 38 l 60 228 l 211 228 l 251 118 z "},"ś":{"ha":749,"x_min":56,"x_max":715,"o":"m 251 118 q 290 95 258 106 q 350 85 321 85 q 422 106 396 85 q 447 158 447 126 q 414 217 447 194 q 304 275 381 240 l 225 313 q 99 412 142 353 q 56 557 56 471 q 93 676 56 622 q 205 760 131 729 q 383 790 279 790 q 497 783 450 790 q 601 763 543 776 q 667 750 642 751 l 667 553 l 522 553 l 483 661 q 455 682 476 672 q 403 692 433 692 q 331 672 357 692 q 304 617 304 651 q 338 553 304 578 q 447 496 371 529 l 476 483 q 599 421 549 453 q 682 340 649 389 q 715 224 715 292 q 633 53 715 122 q 379 -15 550 -15 q 240 -4 300 -15 q 119 25 181 7 q 60 39 78 38 l 60 228 l 211 228 l 251 118 m 269 951 l 528 1258 l 675 1124 q 538 976 636 1056 q 371 872 440 897 l 269 951 z "},"š":{"ha":749,"x_min":56,"x_max":715,"o":"m 185 1222 l 389 1056 l 594 1224 l 679 1150 l 456 876 l 321 876 l 101 1150 l 185 1222 m 251 118 q 290 95 258 106 q 350 85 321 85 q 422 106 396 85 q 447 158 447 126 q 414 217 447 194 q 304 275 381 240 l 225 313 q 99 412 142 353 q 56 557 56 471 q 93 676 56 622 q 205 760 131 729 q 383 790 279 790 q 497 783 450 790 q 601 763 543 776 q 667 750 642 751 l 667 553 l 522 553 l 483 661 q 455 682 476 672 q 403 692 433 692 q 331 672 357 692 q 304 617 304 651 q 338 553 304 578 q 447 496 371 529 l 476 483 q 599 421 549 453 q 682 340 649 389 q 715 224 715 292 q 633 53 715 122 q 379 -15 550 -15 q 240 -4 300 -15 q 119 25 181 7 q 60 39 78 38 l 60 228 l 211 228 l 251 118 z "},"ŝ":{"ha":749,"x_min":56,"x_max":715,"o":"m 321 1221 l 456 1221 l 679 949 l 593 875 l 390 1036 l 185 874 l 101 949 l 321 1221 m 251 118 q 290 95 258 106 q 350 85 321 85 q 422 106 396 85 q 447 158 447 126 q 414 217 447 194 q 304 275 381 240 l 225 313 q 99 412 142 353 q 56 557 56 471 q 93 676 56 622 q 205 760 131 729 q 383 790 279 790 q 497 783 450 790 q 601 763 543 776 q 667 750 642 751 l 667 553 l 522 553 l 483 661 q 455 682 476 672 q 403 692 433 692 q 331 672 357 692 q 304 617 304 651 q 338 553 304 578 q 447 496 371 529 l 476 483 q 599 421 549 453 q 682 340 649 389 q 715 224 715 292 q 633 53 715 122 q 379 -15 550 -15 q 240 -4 300 -15 q 119 25 181 7 q 60 39 78 38 l 60 228 l 211 228 l 251 118 z "},"ș":{"ha":749,"x_min":56,"x_max":715,"o":"m 251 118 q 290 95 258 106 q 350 85 321 85 q 422 106 396 85 q 447 158 447 126 q 414 217 447 194 q 304 275 381 240 l 225 313 q 99 412 142 353 q 56 557 56 471 q 93 676 56 622 q 205 760 131 729 q 383 790 279 790 q 497 783 450 790 q 601 763 543 776 q 667 750 642 751 l 667 553 l 522 553 l 483 661 q 455 682 476 672 q 403 692 433 692 q 331 672 357 692 q 304 617 304 651 q 338 553 304 578 q 447 496 371 529 l 476 483 q 599 421 549 453 q 682 340 649 389 q 715 224 715 292 q 633 53 715 122 q 379 -15 550 -15 q 240 -4 300 -15 q 119 25 181 7 q 60 39 78 38 l 60 228 l 211 228 l 251 118 m 494 -171 q 473 -262 494 -217 q 422 -340 451 -308 q 372 -379 393 -372 l 369 -379 l 286 -361 l 282 -350 q 303 -319 294 -344 q 311 -268 311 -293 q 286 -219 311 -235 q 253 -149 253 -196 q 290 -80 253 -101 q 374 -58 328 -58 l 378 -58 q 463 -87 431 -58 q 494 -171 494 -117 z "},"ṡ":{"ha":749,"x_min":56,"x_max":715,"o":"m 369 882 q 272 918 310 882 q 233 1008 233 954 q 275 1115 233 1072 q 386 1157 317 1157 q 492 1122 454 1157 q 529 1031 529 1086 q 488 924 529 965 q 371 882 447 882 l 369 882 m 251 118 q 290 95 258 106 q 350 85 321 85 q 422 106 396 85 q 447 158 447 126 q 414 217 447 194 q 304 275 381 240 l 225 313 q 99 412 142 353 q 56 557 56 471 q 93 676 56 622 q 205 760 131 729 q 383 790 279 790 q 497 783 450 790 q 601 763 543 776 q 667 750 642 751 l 667 553 l 522 553 l 483 661 q 455 682 476 672 q 403 692 433 692 q 331 672 357 692 q 304 617 304 651 q 338 553 304 578 q 447 496 371 529 l 476 483 q 599 421 549 453 q 682 340 649 389 q 715 224 715 292 q 633 53 715 122 q 379 -15 550 -15 q 240 -4 300 -15 q 119 25 181 7 q 60 39 78 38 l 60 228 l 211 228 l 251 118 z "},"ß":{"ha":944,"x_min":28,"x_max":926,"o":"m 97 661 q 151 880 97 781 q 306 1038 204 979 q 546 1096 407 1096 q 767 1047 696 1096 q 839 911 839 999 q 816 820 839 853 q 749 753 793 788 q 701 708 717 728 q 685 658 685 688 q 705 606 685 632 q 767 544 725 581 q 848 462 817 499 q 903 370 879 425 q 926 247 926 315 q 838 56 926 128 q 571 -15 750 -15 q 513 -10 551 -15 q 454 0 474 -6 l 454 126 q 492 114 468 119 q 540 108 517 108 q 610 139 585 108 q 636 215 636 169 q 613 319 636 278 q 544 414 590 361 q 487 490 506 458 q 468 565 468 522 q 482 632 468 606 q 524 692 496 658 q 578 774 560 735 q 597 885 597 814 q 514 983 597 983 q 369 688 369 983 l 369 0 l 28 0 l 28 103 l 97 118 l 97 661 z "},"ə":{"ha":776,"x_min":36,"x_max":740,"o":"m 354 788 q 648 681 556 788 q 740 388 740 575 q 637 86 740 192 q 351 -19 533 -19 q 119 56 199 -19 q 36 265 39 131 q 50 415 36 353 l 464 415 q 410 575 454 524 q 282 626 365 626 q 180 610 233 626 q 89 574 126 594 l 44 669 q 113 721 65 693 q 225 768 161 749 q 354 788 289 788 m 292 314 l 290 257 q 308 128 290 171 q 369 86 325 86 q 422 103 401 86 q 454 171 442 121 q 467 314 467 221 l 292 314 z "},"t":{"ha":568,"x_min":22,"x_max":572,"o":"m 290 -11 q 146 34 192 -11 q 100 168 100 79 l 100 644 l 22 644 l 22 733 l 111 774 q 160 851 140 803 q 207 985 185 907 l 360 985 l 371 772 l 553 772 l 553 644 l 374 644 l 374 306 q 377 200 374 229 q 392 162 381 171 q 431 153 403 153 q 539 169 481 153 l 572 71 q 453 13 529 38 q 290 -11 376 -11 z "},"ŧ":{"ha":574,"x_min":19,"x_max":574,"o":"m 101 644 l 24 644 l 24 733 q 74 756 22 735 l 113 774 q 160 851 140 804 q 208 985 179 890 l 361 985 l 371 772 l 553 772 l 553 644 l 374 644 l 374 499 l 544 499 l 544 382 l 374 382 l 374 306 q 377 201 374 231 q 392 162 381 171 q 432 153 404 153 q 539 169 481 153 l 540 169 l 574 71 q 453 13 531 38 q 290 -11 376 -11 l 289 -11 q 147 34 192 -11 q 101 168 101 79 l 101 382 l 19 382 l 19 499 l 101 499 l 101 644 z "},"ť":{"ha":568,"x_min":22,"x_max":650,"o":"m 290 -11 q 146 34 192 -11 q 100 168 100 79 l 100 644 l 22 644 l 22 733 l 111 774 q 160 851 140 803 q 207 985 185 907 l 360 985 l 371 772 l 553 772 l 553 644 l 374 644 l 374 306 q 377 200 374 229 q 392 162 381 171 q 431 153 403 153 q 539 169 481 153 l 572 71 q 453 13 529 38 q 290 -11 376 -11 m 456 853 l 450 871 q 463 946 458 903 q 467 1085 467 989 q 454 1203 467 1158 q 429 1267 442 1249 l 435 1296 l 611 1333 q 638 1265 626 1314 q 650 1147 650 1217 q 635 1000 650 1068 q 599 886 619 932 q 565 826 579 840 l 456 853 z "},"ţ":{"ha":568,"x_min":22,"x_max":572,"o":"m 374 -4 q 438 -92 410 -40 q 463 -201 467 -143 q 403 -330 457 -293 q 242 -367 350 -367 q 190 -360 218 -367 q 143 -346 161 -354 l 143 -201 q 199 -210 172 -210 q 252 -203 233 -210 q 281 -177 271 -197 q 292 -115 292 -157 q 281 -61 292 -90 q 257 -10 271 -32 q 100 168 100 4 l 100 644 l 22 644 l 22 733 l 111 774 q 160 851 140 803 q 207 985 185 907 l 360 985 l 371 772 l 553 772 l 553 644 l 374 644 l 374 306 q 377 200 374 229 q 392 162 381 171 q 431 153 403 153 q 539 169 481 153 l 572 71 q 488 25 540 46 q 374 -4 436 4 z "},"ț":{"ha":568,"x_min":22,"x_max":572,"o":"m 290 -11 q 146 34 192 -11 q 100 168 100 79 l 100 644 l 22 644 l 22 733 l 111 774 q 160 851 140 803 q 207 985 185 907 l 360 985 l 371 772 l 553 772 l 553 644 l 374 644 l 374 306 q 377 200 374 229 q 392 162 381 171 q 431 153 403 153 q 539 169 481 153 l 572 71 q 453 13 529 38 q 290 -11 376 -11 m 433 -171 q 412 -262 433 -217 q 361 -340 390 -308 q 311 -379 332 -372 l 308 -379 l 225 -361 l 221 -350 q 242 -319 233 -344 q 250 -268 250 -293 q 225 -219 250 -235 q 192 -149 192 -196 q 229 -80 192 -101 q 313 -58 267 -58 l 317 -58 q 401 -87 369 -58 q 433 -171 433 -117 z "},"ṫ":{"ha":568,"x_min":22,"x_max":572,"o":"m 290 -11 q 146 34 192 -11 q 100 168 100 79 l 100 644 l 22 644 l 22 733 l 111 774 q 160 851 140 803 q 207 985 185 907 l 360 985 l 371 772 l 553 772 l 553 644 l 374 644 l 374 306 q 377 200 374 229 q 392 162 381 171 q 431 153 403 153 q 539 169 481 153 l 572 71 q 453 13 529 38 q 290 -11 376 -11 m 286 1063 q 188 1099 226 1063 q 150 1189 150 1135 q 192 1295 150 1253 q 303 1338 233 1338 q 408 1302 371 1338 q 446 1211 446 1267 q 405 1104 446 1146 q 288 1063 364 1063 l 286 1063 z "},"u":{"ha":901,"x_min":33,"x_max":882,"o":"m 681 -15 q 576 79 576 -15 l 576 101 q 484 19 549 54 q 351 -15 419 -15 q 201 13 257 -15 q 119 105 144 42 q 93 275 93 168 l 93 653 l 33 669 l 33 771 l 328 789 l 329 789 l 361 769 l 361 261 q 381 155 361 185 q 444 125 400 125 q 546 165 506 125 l 546 653 l 465 672 l 465 771 l 774 789 l 778 789 l 813 769 l 813 108 l 882 108 l 882 7 q 681 -15 767 -15 z "},"ú":{"ha":901,"x_min":33,"x_max":882,"o":"m 681 -15 q 576 79 576 -15 l 576 101 q 484 19 549 54 q 351 -15 419 -15 q 201 13 257 -15 q 119 105 144 42 q 93 275 93 168 l 93 653 l 33 669 l 33 771 l 328 789 l 329 789 l 361 769 l 361 261 q 381 155 361 185 q 444 125 400 125 q 546 165 506 125 l 546 653 l 465 672 l 465 771 l 774 789 l 778 789 l 813 769 l 813 108 l 882 108 l 882 7 q 681 -15 767 -15 m 318 951 l 576 1258 l 724 1124 q 587 976 685 1056 q 419 872 489 897 l 318 951 z "},"ŭ":{"ha":901,"x_min":33,"x_max":882,"o":"m 461 892 q 322 922 382 892 q 228 1006 261 953 q 194 1125 194 1060 q 197 1203 194 1188 l 315 1203 q 317 1171 315 1182 q 461 1064 335 1064 q 603 1169 585 1064 q 606 1203 606 1194 l 721 1203 l 722 1126 q 689 1006 722 1060 q 596 922 656 953 q 461 892 536 892 m 681 -15 q 576 79 576 -15 l 576 101 q 484 19 549 54 q 351 -15 419 -15 q 201 13 257 -15 q 119 105 144 42 q 93 275 93 168 l 93 653 l 33 669 l 33 771 l 328 789 l 329 789 l 361 769 l 361 261 q 381 155 361 185 q 444 125 400 125 q 546 165 506 125 l 546 653 l 465 672 l 465 771 l 774 789 l 778 789 l 813 769 l 813 108 l 882 108 l 882 7 q 681 -15 767 -15 z "},"û":{"ha":901,"x_min":33,"x_max":882,"o":"m 392 1221 l 526 1221 l 750 949 l 664 875 l 461 1036 l 256 874 l 172 949 l 392 1221 m 681 -15 q 576 79 576 -15 l 576 101 q 484 19 549 54 q 351 -15 419 -15 q 201 13 257 -15 q 119 105 144 42 q 93 275 93 168 l 93 653 l 33 669 l 33 771 l 328 789 l 329 789 l 361 769 l 361 261 q 381 155 361 185 q 444 125 400 125 q 546 165 506 125 l 546 653 l 465 672 l 465 771 l 774 789 l 778 789 l 813 769 l 813 108 l 882 108 l 882 7 q 681 -15 767 -15 z "},"ü":{"ha":901,"x_min":33,"x_max":882,"o":"m 681 -15 q 576 79 576 -15 l 576 101 q 484 19 549 54 q 351 -15 419 -15 q 201 13 257 -15 q 119 105 144 42 q 93 275 93 168 l 93 653 l 33 669 l 33 771 l 328 789 l 329 789 l 361 769 l 361 261 q 381 155 361 185 q 444 125 400 125 q 546 165 506 125 l 546 653 l 465 672 l 465 771 l 774 789 l 778 789 l 813 769 l 813 108 l 882 108 l 882 7 q 681 -15 767 -15 m 225 897 q 147 933 178 897 q 115 1018 115 969 q 149 1122 115 1083 q 249 1161 182 1161 q 342 1127 311 1161 q 372 1042 372 1093 q 336 937 372 976 q 225 897 300 897 m 583 897 q 505 935 536 897 q 474 1018 474 974 q 507 1122 474 1083 q 607 1161 540 1161 q 700 1127 669 1161 q 731 1042 731 1093 q 694 937 731 976 q 583 897 658 897 z "},"ụ":{"ha":901,"x_min":33,"x_max":882,"o":"m 681 -15 q 576 79 576 -15 l 576 101 q 484 19 549 54 q 351 -15 419 -15 q 201 13 257 -15 q 119 105 144 42 q 93 275 93 168 l 93 653 l 33 669 l 33 771 l 328 789 l 329 789 l 361 769 l 361 261 q 381 155 361 185 q 444 125 400 125 q 546 165 506 125 l 546 653 l 465 672 l 465 771 l 774 789 l 778 789 l 813 769 l 813 108 l 882 108 l 882 7 q 681 -15 767 -15 m 443 -278 q 369 -251 399 -278 q 340 -183 340 -224 q 372 -103 340 -135 q 456 -72 403 -72 q 535 -99 507 -72 q 563 -167 563 -125 q 532 -247 563 -215 q 444 -278 501 -278 l 443 -278 z "},"ù":{"ha":901,"x_min":33,"x_max":882,"o":"m 485 872 q 379 931 442 888 q 262 1026 317 974 q 182 1124 207 1079 l 329 1258 l 588 951 l 486 872 l 485 872 m 681 -15 q 576 79 576 -15 l 576 101 q 484 19 549 54 q 351 -15 419 -15 q 201 13 257 -15 q 119 105 144 42 q 93 275 93 168 l 93 653 l 33 669 l 33 771 l 328 789 l 329 789 l 361 769 l 361 261 q 381 155 361 185 q 444 125 400 125 q 546 165 506 125 l 546 653 l 465 672 l 465 771 l 774 789 l 778 789 l 813 769 l 813 108 l 882 108 l 882 7 q 681 -15 767 -15 z "},"ủ":{"ha":901,"x_min":33,"x_max":882,"o":"m 681 -15 q 576 79 576 -15 l 576 101 q 484 19 549 54 q 351 -15 419 -15 q 201 13 257 -15 q 119 105 144 42 q 93 275 93 168 l 93 653 l 33 669 l 33 771 l 328 789 l 329 789 l 361 769 l 361 261 q 381 155 361 185 q 444 125 400 125 q 546 165 506 125 l 546 653 l 465 672 l 465 771 l 774 789 l 778 789 l 813 769 l 813 108 l 882 108 l 882 7 q 681 -15 767 -15 m 397 838 q 374 872 389 846 q 358 907 358 897 q 365 932 358 922 q 389 954 372 942 q 419 993 415 972 l 419 997 q 407 1034 419 1021 q 363 1047 394 1047 q 324 1044 329 1047 l 317 1190 q 337 1194 319 1192 q 368 1197 354 1197 q 463 1178 413 1197 q 549 1122 514 1160 q 585 1031 585 1085 q 567 976 585 999 q 528 937 549 953 q 499 914 507 921 q 479 874 479 897 q 483 846 479 863 l 397 838 z "},"ư":{"ha":901,"x_min":33,"x_max":1033,"o":"m 1033 907 q 969 728 1033 800 q 813 628 906 657 l 813 108 l 882 108 l 882 7 q 681 -15 767 -15 q 576 79 576 -15 l 576 101 q 484 19 549 54 q 351 -15 419 -15 q 201 13 257 -15 q 119 105 144 42 q 93 275 93 168 l 93 653 l 33 669 l 33 771 l 328 789 l 329 789 l 361 769 l 361 261 q 381 155 361 185 q 444 125 400 125 q 546 165 506 125 l 546 653 l 465 672 l 465 771 l 774 789 l 778 789 l 783 786 q 868 914 853 818 q 869 938 871 932 l 1031 938 q 1033 907 1033 915 z "},"ứ":{"ha":901,"x_min":33,"x_max":1033,"o":"m 1033 907 q 969 728 1033 800 q 813 628 906 657 l 813 108 l 882 108 l 882 7 q 681 -15 767 -15 q 576 79 576 -15 l 576 101 q 484 19 549 54 q 351 -15 419 -15 q 201 13 257 -15 q 119 105 144 42 q 93 275 93 168 l 93 653 l 33 669 l 33 771 l 328 789 l 329 789 l 361 769 l 361 261 q 381 155 361 185 q 444 125 400 125 q 546 165 506 125 l 546 653 l 465 672 l 465 771 l 774 789 l 778 789 l 783 786 q 868 914 853 818 q 869 938 871 932 l 1031 938 q 1033 907 1033 915 m 318 951 l 576 1258 l 724 1124 q 587 976 685 1056 q 419 872 489 897 l 318 951 z "},"ự":{"ha":901,"x_min":33,"x_max":1033,"o":"m 1033 907 q 969 728 1033 800 q 813 628 906 657 l 813 108 l 882 108 l 882 7 q 681 -15 767 -15 q 576 79 576 -15 l 576 101 q 484 19 549 54 q 351 -15 419 -15 q 201 13 257 -15 q 119 105 144 42 q 93 275 93 168 l 93 653 l 33 669 l 33 771 l 328 789 l 329 789 l 361 769 l 361 261 q 381 155 361 185 q 444 125 400 125 q 546 165 506 125 l 546 653 l 465 672 l 465 771 l 774 789 l 778 789 l 783 786 q 868 914 853 818 q 869 938 871 932 l 1031 938 q 1033 907 1033 915 m 443 -278 q 369 -251 399 -278 q 340 -183 340 -224 q 372 -103 340 -135 q 456 -72 403 -72 q 535 -99 507 -72 q 563 -167 563 -125 q 532 -247 563 -215 q 444 -278 501 -278 l 443 -278 z "},"ừ":{"ha":901,"x_min":33,"x_max":1033,"o":"m 1033 907 q 969 728 1033 800 q 813 628 906 657 l 813 108 l 882 108 l 882 7 q 681 -15 767 -15 q 576 79 576 -15 l 576 101 q 484 19 549 54 q 351 -15 419 -15 q 201 13 257 -15 q 119 105 144 42 q 93 275 93 168 l 93 653 l 33 669 l 33 771 l 328 789 l 329 789 l 361 769 l 361 261 q 381 155 361 185 q 444 125 400 125 q 546 165 506 125 l 546 653 l 465 672 l 465 771 l 774 789 l 778 789 l 783 786 q 868 914 853 818 q 869 938 871 932 l 1031 938 q 1033 907 1033 915 m 440 872 q 335 931 397 888 q 217 1026 272 974 q 138 1124 163 1079 l 285 1258 l 543 951 l 442 872 l 440 872 z "},"ử":{"ha":901,"x_min":33,"x_max":1033,"o":"m 1033 907 q 969 728 1033 800 q 813 628 906 657 l 813 108 l 882 108 l 882 7 q 681 -15 767 -15 q 576 79 576 -15 l 576 101 q 484 19 549 54 q 351 -15 419 -15 q 201 13 257 -15 q 119 105 144 42 q 93 275 93 168 l 93 653 l 33 669 l 33 771 l 328 789 l 329 789 l 361 769 l 361 261 q 381 155 361 185 q 444 125 400 125 q 546 165 506 125 l 546 653 l 465 672 l 465 771 l 774 789 l 778 789 l 783 786 q 868 914 853 818 q 869 938 871 932 l 1031 938 q 1033 907 1033 915 m 397 838 q 374 872 389 846 q 358 907 358 897 q 365 932 358 922 q 389 954 372 942 q 419 993 415 972 l 419 997 q 407 1034 419 1021 q 363 1047 394 1047 q 324 1044 329 1047 l 317 1190 q 337 1194 319 1192 q 368 1197 354 1197 q 463 1178 413 1197 q 549 1122 514 1160 q 585 1031 585 1085 q 567 976 585 999 q 528 937 549 953 q 499 914 507 921 q 479 874 479 897 q 483 846 479 863 l 397 838 z "},"ữ":{"ha":901,"x_min":33,"x_max":1033,"o":"m 1033 907 q 969 728 1033 800 q 813 628 906 657 l 813 108 l 882 108 l 882 7 q 681 -15 767 -15 q 576 79 576 -15 l 576 101 q 484 19 549 54 q 351 -15 419 -15 q 201 13 257 -15 q 119 105 144 42 q 93 275 93 168 l 93 653 l 33 669 l 33 771 l 328 789 l 329 789 l 361 769 l 361 261 q 381 155 361 185 q 444 125 400 125 q 546 165 506 125 l 546 653 l 465 672 l 465 771 l 774 789 l 778 789 l 783 786 q 868 914 853 818 q 869 938 871 932 l 1031 938 q 1033 907 1033 915 m 99 1007 q 187 1117 136 1072 q 318 1163 238 1163 q 396 1147 364 1163 q 468 1101 428 1131 q 523 1066 503 1076 q 569 1056 543 1056 q 627 1070 604 1056 q 676 1111 650 1085 l 749 1047 q 661 935 710 979 q 533 892 613 892 q 458 907 490 892 q 386 951 426 922 q 329 987 353 975 q 278 999 306 999 q 219 984 243 999 q 169 943 194 969 l 99 1007 z "},"ű":{"ha":901,"x_min":33,"x_max":904,"o":"m 542 1129 q 419 1006 510 1079 q 274 900 329 932 l 182 971 l 400 1243 l 542 1129 m 904 1132 q 786 1008 879 1086 q 638 900 693 931 l 547 971 l 769 1243 l 904 1132 m 681 -15 q 576 79 576 -15 l 576 101 q 484 19 549 54 q 351 -15 419 -15 q 201 13 257 -15 q 119 105 144 42 q 93 275 93 168 l 93 653 l 33 669 l 33 771 l 328 789 l 329 789 l 361 769 l 361 261 q 381 155 361 185 q 444 125 400 125 q 546 165 506 125 l 546 653 l 465 672 l 465 771 l 774 789 l 778 789 l 813 769 l 813 108 l 882 108 l 882 7 q 681 -15 767 -15 z "},"ū":{"ha":901,"x_min":33,"x_max":882,"o":"m 688 1108 l 688 958 l 232 958 l 232 1108 l 688 1108 m 681 -15 q 576 79 576 -15 l 576 101 q 484 19 549 54 q 351 -15 419 -15 q 201 13 257 -15 q 119 105 144 42 q 93 275 93 168 l 93 653 l 33 669 l 33 771 l 328 789 l 329 789 l 361 769 l 361 261 q 381 155 361 185 q 444 125 400 125 q 546 165 506 125 l 546 653 l 465 672 l 465 771 l 774 789 l 778 789 l 813 769 l 813 108 l 882 108 l 882 7 q 681 -15 767 -15 z "}}}
